  0
SECTION
  2
HEADER
  9
$ACADVER
  1
AC1009
  9
$EXTMIN
 10
0.0
 20
0.0
 30
0.0
  9
$EXTMAX
 10
100.0
 20
100.0
 30
0.0
  9
$INSBASE
 10
0.0
 20
0.0
 30
0.0
  0
ENDSEC
  0
SECTION
  2
TABLES
  0
TABLE
  2
LTYPE
 70
19
  0
LTYPE
  2
PHANTOM
 70
0
  3
Phantom ______  __  __  ______  __  __  ______
 72
65
 73
6
 40
2.5
 49
1.25
 49
-0.25
 49
0.25
 49
-0.25
 49
0.25
 49
-0.25
  0
LTYPE
  2
DOT2
 70
0
  3
Dot (.5) . . . . . . . . . . . . . . . . . . . 
 72
65
 73
2
 40
0.1
 49
0.0
 49
-0.1
  0
LTYPE
  2
DIVIDE
 70
0
  3
Divide __ . . __ . . __ . . __ . . __ . . __
 72
65
 73
6
 40
1.6
 49
1.0
 49
-0.2
 49
0.0
 49
-0.2
 49
0.0
 49
-0.2
  0
LTYPE
  2
DIVIDEX2
 70
0
  3
Divide (2x) ____  . .  ____  . .  ____  . .  ____
 72
65
 73
6
 40
2.6
 49
2.0
 49
-0.2
 49
0.0
 49
-0.2
 49
0.0
 49
-0.2
  0
LTYPE
  2
CENTER
 70
0
  3
Center ____ _ ____ _ ____ _ ____ _ ____ _ ____
 72
65
 73
4
 40
2.0
 49
1.25
 49
-0.25
 49
0.25
 49
-0.25
  0
LTYPE
  2
DASHDOT
 70
0
  3
Dash dot __ . __ . __ . __ . __ . __ . __ . __
 72
65
 73
4
 40
1.4
 49
1.0
 49
-0.2
 49
0.0
 49
-0.2
  0
LTYPE
  2
CENTERX2
 70
0
  3
Center (2x) ________  __  ________  __  ________
 72
65
 73
4
 40
3.5
 49
2.5
 49
-0.25
 49
0.5
 49
-0.25
  0
LTYPE
  2
PHANTOMX2
 70
0
  3
Phantom (2x)____________    ____    ____    ____________
 72
65
 73
6
 40
4.25
 49
2.5
 49
-0.25
 49
0.5
 49
-0.25
 49
0.5
 49
-0.25
  0
LTYPE
  2
CONTINUOUS
 70
0
  3
Solid
 72
65
 73
0
 40
0.0
  0
LTYPE
  2
PHANTOM2
 70
0
  3
Phantom (.5x) ___ _ _ ___ _ _ ___ _ _ ___ _ _ ___
 72
65
 73
6
 40
1.25
 49
0.625
 49
-0.125
 49
0.125
 49
-0.125
 49
0.125
 49
-0.125
  0
LTYPE
  2
DASHED
 70
0
  3
Dashed __ __ __ __ __ __ __ __ __ __ __ __ __ _
 72
65
 73
2
 40
0.6
 49
0.5
 49
-0.1
  0
LTYPE
  2
DASHED2
 70
0
  3
Dashed (.5x) _ _ _ _ _ _ _ _ _ _ _ _ _ _
 72
65
 73
2
 40
0.3
 49
0.25
 49
-0.05
  0
LTYPE
  2
DASHDOT2
 70
0
  3
Dash dot (.5x) _ . _ . _ . _ . _ . _ . _ . _
 72
65
 73
4
 40
0.7
 49
0.5
 49
-0.1
 49
0.0
 49
-0.1
  0
LTYPE
  2
DOTX2
 70
0
  3
Dot (2x) .    .    .    .    .    .    .    . 
 72
65
 73
2
 40
0.4
 49
0.0
 49
-0.4
  0
LTYPE
  2
DIVIDE2
 70
0
  3
Divide(.5x) _ . _ . _ . _ . _ . _ . _ . _
 72
65
 73
6
 40
0.8
 49
0.5
 49
-0.1
 49
0.0
 49
-0.1
 49
0.0
 49
-0.1
  0
LTYPE
  2
CENTER2
 70
0
  3
Center (.5x) ____ _ ____ _ ____ _ ____ _ ____
 72
65
 73
4
 40
1.0
 49
0.625
 49
-0.125
 49
0.125
 49
-0.125
  0
LTYPE
  2
DASHDOTX2
 70
0
  3
Dash dot (2x) ____  .  ____  .  ____  .  ____
 72
65
 73
4
 40
2.4
 49
2.0
 49
-0.2
 49
0.0
 49
-0.2
  0
LTYPE
  2
DOT
 70
0
  3
Dot .  .  .  .  .  .  .  .  .  .  .  .  .  .  .  .
 72
65
 73
2
 40
0.2
 49
0.0
 49
-0.2
  0
LTYPE
  2
DASHEDX2
 70
0
  3
Dashed (2x) ____  ____  ____  ____  ____  ____
 72
65
 73
2
 40
1.2
 49
1.0
 49
-0.2
  0
ENDTAB
  0
TABLE
  2
LAYER
 70
5
  0
LAYER
  2
VIEWPORTS
 70
0
 62
7
  6
CONTINUOUS
  0
LAYER
  2
TABLEGRID
 70
0
 62
1
  6
CONTINUOUS
  0
LAYER
  2
TABLECONTENT
 70
0
 62
1
  6
CONTINUOUS
  0
LAYER
  2
DIMENSIONS
 70
0
 62
1
  6
CONTINUOUS
  0
LAYER
  2
TABLEBACKGROUND
 70
0
 62
1
  6
CONTINUOUS
  0
ENDTAB
  0
TABLE
  2
STYLE
 70
12
  0
STYLE
  2
TIMES
 70
0
 40
0.0
 41
1.0
 42
1.0
 50
0.0
 71
0
  3
times.ttf
  4

  0
STYLE
  2
ARIAL
 70
0
 40
0.0
 41
1.0
 42
1.0
 50
0.0
 71
0
  3
arial.ttf
  4

  0
STYLE
  2
TIMES_BOLD
 70
0
 40
0.0
 41
1.0
 42
1.0
 50
0.0
 71
0
  3
timesbd.ttf
  4

  0
STYLE
  2
ARIAL_BLACK
 70
0
 40
0.0
 41
1.0
 42
1.0
 50
0.0
 71
0
  3
ariblk.ttf
  4

  0
STYLE
  2
TIMES_ITALIC
 70
0
 40
0.0
 41
1.0
 42
1.0
 50
0.0
 71
0
  3
timesi.ttf
  4

  0
STYLE
  2
ISOCPEUR
 70
0
 40
0.0
 41
1.0
 42
1.0
 50
0.0
 71
0
  3
isocpeur.ttf
  4

  0
STYLE
  2
ARIAL_BOLD
 70
0
 40
0.0
 41
1.0
 42
1.0
 50
0.0
 71
0
  3
arialbd.ttf
  4

  0
STYLE
  2
ARIAL_ITALIC
 70
0
 40
0.0
 41
1.0
 42
1.0
 50
0.0
 71
0
  3
ariali.ttf
  4

  0
STYLE
  2
ARIAL_BOLD_ITALIC
 70
0
 40
0.0
 41
1.0
 42
1.0
 50
0.0
 71
0
  3
arialbi.ttf
  4

  0
STYLE
  2
TIMES_BOLD_ITALIC
 70
0
 40
0.0
 41
1.0
 42
1.0
 50
0.0
 71
0
  3
timesbi.ttf
  4

  0
STYLE
  2
ISOCPEUR_ITALIC
 70
0
 40
0.0
 41
1.0
 42
1.0
 50
0.0
 71
0
  3
isocpeui.ttf
  4

  0
STYLE
  2
STANDARD
 70
0
 40
0.0
 41
1.0
 42
1.0
 50
0.0
 71
0
  3
arial.ttf
  4

  0
ENDTAB
  0
TABLE
  2
VIEW
 70
0
  0
ENDTAB
  0
TABLE
  2
APPID
 70
1
  0
APPID
  2
DXFWRITE
 70
0
  0
ENDTAB
  0
TABLE
  2
VPORT
 70
0
  0
ENDTAB
  0
TABLE
  2
UCS
 70
0
  0
ENDTAB
  0
ENDSEC
  0
SECTION
  2
BLOCKS
  0
ENDSEC
  0
SECTION
  2
ENTITIES
  0
VIEWPORT
  8
VIEWPORTS
 67
1
 10
0.0
 20
0.0
 30
0.0
 40
1.0
 41
1.0
 68
1
 69
1
1001
ACAD
1000
MVIEW
1002
{
1070
16
1010
0.0
1020
0.0
1030
0.0
1010
0.0
1020
0.0
1030
0.0
1040
0.0
1040
1.0
1040
0.0
1040
0.0
1040
50.0
1040
0.0
1040
0.0
1070
0
1070
100
1070
1
1070
3
1070
0
1070
0
1070
0
1070
0
1040
0.0
1040
0.0
1040
0.0
1040
0.1
1040
0.1
1040
0.1
1040
0.1
1070
0
1002
{
1002
}
1002
}
  0
LINE
 62
3
  8
0
 10
10.0
 20
20.0
 30
0.0
 11
110.0
 21
20.0
 31
0.0
  0
LINE
 62
3
  8
0
 10
110.0
 20
20.0
 30
0.0
 11
110.0
 21
60.0
 31
0.0
  0
LINE
 62
3
  8
0
 10
110.0
 20
60.0
 30
0.0
 11
10.0
 21
60.0
 31
0.0
  0
LINE
 62
3
  8
0
 10
10.0
 20
60.0
 30
0.0
 11
10.0
 21
20.0
 31
0.0
  0
LINE
 62
3
  8
0
 10
35.0
 20
20.0
 30
0.0
 11
35.0
 21
25.0
 31
0.0
  0
LINE
 62
3
  8
0
 10
35.0
 20
27.0
 30
0.0
 11
35.0
 21
35.0
 31
0.0
  0
LINE
 62
3
  8
0
 10
35.0
 20
37.0
 30
0.0
 11
35.0
 21
45.0
 31
0.0
  0
LINE
 62
3
  8
0
 10
35.0
 20
47.0
 30
0.0
 11
35.0
 21
55.0
 31
0.0
  0
LINE
 62
3
  8
0
 10
35.0
 20
57.0
 30
0.0
 11
35.0
 21
60.0
 31
0.0
  0
LINE
 62
3
  8
0
 10
37.0
 20
20.0
 30
0.0
 11
37.0
 21
25.0
 31
0.0
  0
LINE
 62
3
  8
0
 10
37.0
 20
27.0
 30
0.0
 11
37.0
 21
35.0
 31
0.0
  0
LINE
 62
3
  8
0
 10
37.0
 20
37.0
 30
0.0
 11
37.0
 21
45.0
 31
0.0
  0
LINE
 62
3
  8
0
 10
37.0
 20
47.0
 30
0.0
 11
37.0
 21
55.0
 31
0.0
  0
LINE
 62
3
  8
0
 10
37.0
 20
57.0
 30
0.0
 11
37.0
 21
60.0
 31
0.0
  0
LINE
 62
3
  8
0
 10
39.0
 20
20.0
 30
0.0
 11
39.0
 21
25.0
 31
0.0
  0
LINE
 62
3
  8
0
 10
39.0
 20
27.0
 30
0.0
 11
39.0
 21
35.0
 31
0.0
  0
LINE
 62
3
  8
0
 10
39.0
 20
37.0
 30
0.0
 11
39.0
 21
45.0
 31
0.0
  0
LINE
 62
3
  8
0
 10
39.0
 20
47.0
 30
0.0
 11
39.0
 21
55.0
 31
0.0
  0
LINE
 62
3
  8
0
 10
39.0
 20
57.0
 30
0.0
 11
39.0
 21
60.0
 31
0.0
  0
LINE
 62
3
  8
0
 10
41.0
 20
20.0
 30
0.0
 11
41.0
 21
25.0
 31
0.0
  0
LINE
 62
3
  8
0
 10
41.0
 20
27.0
 30
0.0
 11
41.0
 21
35.0
 31
0.0
  0
LINE
 62
3
  8
0
 10
41.0
 20
37.0
 30
0.0
 11
41.0
 21
45.0
 31
0.0
  0
LINE
 62
3
  8
0
 10
41.0
 20
47.0
 30
0.0
 11
41.0
 21
55.0
 31
0.0
  0
LINE
 62
3
  8
0
 10
41.0
 20
57.0
 30
0.0
 11
41.0
 21
60.0
 31
0.0
  0
LINE
 62
3
  8
0
 10
43.0
 20
20.0
 30
0.0
 11
43.0
 21
25.0
 31
0.0
  0
LINE
 62
3
  8
0
 10
43.0
 20
27.0
 30
0.0
 11
43.0
 21
35.0
 31
0.0
  0
LINE
 62
3
  8
0
 10
43.0
 20
37.0
 30
0.0
 11
43.0
 21
45.0
 31
0.0
  0
LINE
 62
3
  8
0
 10
43.0
 20
47.0
 30
0.0
 11
43.0
 21
55.0
 31
0.0
  0
LINE
 62
3
  8
0
 10
43.0
 20
57.0
 30
0.0
 11
43.0
 21
60.0
 31
0.0
  0
LINE
 62
3
  8
0
 10
45.0
 20
20.0
 30
0.0
 11
45.0
 21
25.0
 31
0.0
  0
LINE
 62
3
  8
0
 10
45.0
 20
27.0
 30
0.0
 11
45.0
 21
35.0
 31
0.0
  0
LINE
 62
3
  8
0
 10
45.0
 20
37.0
 30
0.0
 11
45.0
 21
45.0
 31
0.0
  0
LINE
 62
3
  8
0
 10
45.0
 20
47.0
 30
0.0
 11
45.0
 21
55.0
 31
0.0
  0
LINE
 62
3
  8
0
 10
45.0
 20
57.0
 30
0.0
 11
45.0
 21
60.0
 31
0.0
  0
LINE
 62
3
  8
0
 10
47.0
 20
20.0
 30
0.0
 11
47.0
 21
25.0
 31
0.0
  0
LINE
 62
3
  8
0
 10
47.0
 20
27.0
 30
0.0
 11
47.0
 21
35.0
 31
0.0
  0
LINE
 62
3
  8
0
 10
47.0
 20
37.0
 30
0.0
 11
47.0
 21
45.0
 31
0.0
  0
LINE
 62
3
  8
0
 10
47.0
 20
47.0
 30
0.0
 11
47.0
 21
55.0
 31
0.0
  0
LINE
 62
3
  8
0
 10
47.0
 20
57.0
 30
0.0
 11
47.0
 21
60.0
 31
0.0
  0
LINE
 62
3
  8
0
 10
49.0
 20
20.0
 30
0.0
 11
49.0
 21
25.0
 31
0.0
  0
LINE
 62
3
  8
0
 10
49.0
 20
27.0
 30
0.0
 11
49.0
 21
35.0
 31
0.0
  0
LINE
 62
3
  8
0
 10
49.0
 20
37.0
 30
0.0
 11
49.0
 21
45.0
 31
0.0
  0
LINE
 62
3
  8
0
 10
49.0
 20
47.0
 30
0.0
 11
49.0
 21
55.0
 31
0.0
  0
LINE
 62
3
  8
0
 10
49.0
 20
57.0
 30
0.0
 11
49.0
 21
60.0
 31
0.0
  0
LINE
 62
3
  8
0
 10
51.0
 20
20.0
 30
0.0
 11
51.0
 21
25.0
 31
0.0
  0
LINE
 62
3
  8
0
 10
51.0
 20
27.0
 30
0.0
 11
51.0
 21
35.0
 31
0.0
  0
LINE
 62
3
  8
0
 10
51.0
 20
37.0
 30
0.0
 11
51.0
 21
45.0
 31
0.0
  0
LINE
 62
3
  8
0
 10
51.0
 20
47.0
 30
0.0
 11
51.0
 21
55.0
 31
0.0
  0
LINE
 62
3
  8
0
 10
51.0
 20
57.0
 30
0.0
 11
51.0
 21
60.0
 31
0.0
  0
LINE
 62
3
  8
0
 10
53.0
 20
20.0
 30
0.0
 11
53.0
 21
25.0
 31
0.0
  0
LINE
 62
3
  8
0
 10
53.0
 20
27.0
 30
0.0
 11
53.0
 21
35.0
 31
0.0
  0
LINE
 62
3
  8
0
 10
53.0
 20
37.0
 30
0.0
 11
53.0
 21
45.0
 31
0.0
  0
LINE
 62
3
  8
0
 10
53.0
 20
47.0
 30
0.0
 11
53.0
 21
55.0
 31
0.0
  0
LINE
 62
3
  8
0
 10
53.0
 20
57.0
 30
0.0
 11
53.0
 21
60.0
 31
0.0
  0
LINE
 62
3
  8
0
 10
55.0
 20
20.0
 30
0.0
 11
55.0
 21
25.0
 31
0.0
  0
LINE
 62
3
  8
0
 10
55.0
 20
27.0
 30
0.0
 11
55.0
 21
35.0
 31
0.0
  0
LINE
 62
3
  8
0
 10
55.0
 20
37.0
 30
0.0
 11
55.0
 21
45.0
 31
0.0
  0
LINE
 62
3
  8
0
 10
55.0
 20
47.0
 30
0.0
 11
55.0
 21
55.0
 31
0.0
  0
LINE
 62
3
  8
0
 10
55.0
 20
57.0
 30
0.0
 11
55.0
 21
60.0
 31
0.0
  0
LINE
 62
3
  8
0
 10
57.0
 20
20.0
 30
0.0
 11
57.0
 21
25.0
 31
0.0
  0
LINE
 62
3
  8
0
 10
57.0
 20
27.0
 30
0.0
 11
57.0
 21
35.0
 31
0.0
  0
LINE
 62
3
  8
0
 10
57.0
 20
37.0
 30
0.0
 11
57.0
 21
45.0
 31
0.0
  0
LINE
 62
3
  8
0
 10
57.0
 20
47.0
 30
0.0
 11
57.0
 21
55.0
 31
0.0
  0
LINE
 62
3
  8
0
 10
57.0
 20
57.0
 30
0.0
 11
57.0
 21
60.0
 31
0.0
  0
LINE
 62
3
  8
0
 10
59.0
 20
20.0
 30
0.0
 11
59.0
 21
25.0
 31
0.0
  0
LINE
 62
3
  8
0
 10
59.0
 20
27.0
 30
0.0
 11
59.0
 21
35.0
 31
0.0
  0
LINE
 62
3
  8
0
 10
59.0
 20
37.0
 30
0.0
 11
59.0
 21
45.0
 31
0.0
  0
LINE
 62
3
  8
0
 10
59.0
 20
47.0
 30
0.0
 11
59.0
 21
55.0
 31
0.0
  0
LINE
 62
3
  8
0
 10
59.0
 20
57.0
 30
0.0
 11
59.0
 21
60.0
 31
0.0
  0
LINE
 62
3
  8
0
 10
61.0
 20
20.0
 30
0.0
 11
61.0
 21
25.0
 31
0.0
  0
LINE
 62
3
  8
0
 10
61.0
 20
27.0
 30
0.0
 11
61.0
 21
35.0
 31
0.0
  0
LINE
 62
3
  8
0
 10
61.0
 20
37.0
 30
0.0
 11
61.0
 21
45.0
 31
0.0
  0
LINE
 62
3
  8
0
 10
61.0
 20
47.0
 30
0.0
 11
61.0
 21
55.0
 31
0.0
  0
LINE
 62
3
  8
0
 10
61.0
 20
57.0
 30
0.0
 11
61.0
 21
60.0
 31
0.0
  0
LINE
 62
3
  8
0
 10
63.0
 20
20.0
 30
0.0
 11
63.0
 21
25.0
 31
0.0
  0
LINE
 62
3
  8
0
 10
63.0
 20
27.0
 30
0.0
 11
63.0
 21
35.0
 31
0.0
  0
LINE
 62
3
  8
0
 10
63.0
 20
37.0
 30
0.0
 11
63.0
 21
45.0
 31
0.0
  0
LINE
 62
3
  8
0
 10
63.0
 20
47.0
 30
0.0
 11
63.0
 21
55.0
 31
0.0
  0
LINE
 62
3
  8
0
 10
63.0
 20
57.0
 30
0.0
 11
63.0
 21
60.0
 31
0.0
  0
LINE
 62
3
  8
0
 10
65.0
 20
20.0
 30
0.0
 11
65.0
 21
25.0
 31
0.0
  0
LINE
 62
3
  8
0
 10
65.0
 20
27.0
 30
0.0
 11
65.0
 21
35.0
 31
0.0
  0
LINE
 62
3
  8
0
 10
65.0
 20
37.0
 30
0.0
 11
65.0
 21
45.0
 31
0.0
  0
LINE
 62
3
  8
0
 10
65.0
 20
47.0
 30
0.0
 11
65.0
 21
55.0
 31
0.0
  0
LINE
 62
3
  8
0
 10
65.0
 20
57.0
 30
0.0
 11
65.0
 21
60.0
 31
0.0
  0
LINE
 62
3
  8
0
 10
67.0
 20
20.0
 30
0.0
 11
67.0
 21
25.0
 31
0.0
  0
LINE
 62
3
  8
0
 10
67.0
 20
27.0
 30
0.0
 11
67.0
 21
35.0
 31
0.0
  0
LINE
 62
3
  8
0
 10
67.0
 20
37.0
 30
0.0
 11
67.0
 21
45.0
 31
0.0
  0
LINE
 62
3
  8
0
 10
67.0
 20
47.0
 30
0.0
 11
67.0
 21
55.0
 31
0.0
  0
LINE
 62
3
  8
0
 10
67.0
 20
57.0
 30
0.0
 11
67.0
 21
60.0
 31
0.0
  0
LINE
 62
3
  8
0
 10
69.0
 20
20.0
 30
0.0
 11
69.0
 21
25.0
 31
0.0
  0
LINE
 62
3
  8
0
 10
69.0
 20
27.0
 30
0.0
 11
69.0
 21
35.0
 31
0.0
  0
LINE
 62
3
  8
0
 10
69.0
 20
37.0
 30
0.0
 11
69.0
 21
45.0
 31
0.0
  0
LINE
 62
3
  8
0
 10
69.0
 20
47.0
 30
0.0
 11
69.0
 21
55.0
 31
0.0
  0
LINE
 62
3
  8
0
 10
69.0
 20
57.0
 30
0.0
 11
69.0
 21
60.0
 31
0.0
  0
LINE
 62
3
  8
0
 10
71.0
 20
20.0
 30
0.0
 11
71.0
 21
25.0
 31
0.0
  0
LINE
 62
3
  8
0
 10
71.0
 20
27.0
 30
0.0
 11
71.0
 21
35.0
 31
0.0
  0
LINE
 62
3
  8
0
 10
71.0
 20
37.0
 30
0.0
 11
71.0
 21
45.0
 31
0.0
  0
LINE
 62
3
  8
0
 10
71.0
 20
47.0
 30
0.0
 11
71.0
 21
55.0
 31
0.0
  0
LINE
 62
3
  8
0
 10
71.0
 20
57.0
 30
0.0
 11
71.0
 21
60.0
 31
0.0
  0
LINE
 62
3
  8
0
 10
73.0
 20
20.0
 30
0.0
 11
73.0
 21
25.0
 31
0.0
  0
LINE
 62
3
  8
0
 10
73.0
 20
27.0
 30
0.0
 11
73.0
 21
35.0
 31
0.0
  0
LINE
 62
3
  8
0
 10
73.0
 20
37.0
 30
0.0
 11
73.0
 21
45.0
 31
0.0
  0
LINE
 62
3
  8
0
 10
73.0
 20
47.0
 30
0.0
 11
73.0
 21
55.0
 31
0.0
  0
LINE
 62
3
  8
0
 10
73.0
 20
57.0
 30
0.0
 11
73.0
 21
60.0
 31
0.0
  0
LINE
 62
3
  8
0
 10
75.0
 20
20.0
 30
0.0
 11
75.0
 21
25.0
 31
0.0
  0
LINE
 62
3
  8
0
 10
75.0
 20
27.0
 30
0.0
 11
75.0
 21
35.0
 31
0.0
  0
LINE
 62
3
  8
0
 10
75.0
 20
37.0
 30
0.0
 11
75.0
 21
45.0
 31
0.0
  0
LINE
 62
3
  8
0
 10
75.0
 20
47.0
 30
0.0
 11
75.0
 21
55.0
 31
0.0
  0
LINE
 62
3
  8
0
 10
75.0
 20
57.0
 30
0.0
 11
75.0
 21
60.0
 31
0.0
  0
LINE
 62
3
  8
0
 10
77.0
 20
20.0
 30
0.0
 11
77.0
 21
25.0
 31
0.0
  0
LINE
 62
3
  8
0
 10
77.0
 20
27.0
 30
0.0
 11
77.0
 21
35.0
 31
0.0
  0
LINE
 62
3
  8
0
 10
77.0
 20
37.0
 30
0.0
 11
77.0
 21
45.0
 31
0.0
  0
LINE
 62
3
  8
0
 10
77.0
 20
47.0
 30
0.0
 11
77.0
 21
55.0
 31
0.0
  0
LINE
 62
3
  8
0
 10
77.0
 20
57.0
 30
0.0
 11
77.0
 21
60.0
 31
0.0
  0
LINE
 62
3
  8
0
 10
79.0
 20
20.0
 30
0.0
 11
79.0
 21
25.0
 31
0.0
  0
LINE
 62
3
  8
0
 10
79.0
 20
27.0
 30
0.0
 11
79.0
 21
35.0
 31
0.0
  0
LINE
 62
3
  8
0
 10
79.0
 20
37.0
 30
0.0
 11
79.0
 21
45.0
 31
0.0
  0
LINE
 62
3
  8
0
 10
79.0
 20
47.0
 30
0.0
 11
79.0
 21
55.0
 31
0.0
  0
LINE
 62
3
  8
0
 10
79.0
 20
57.0
 30
0.0
 11
79.0
 21
60.0
 31
0.0
  0
LINE
 62
3
  8
0
 10
81.0
 20
20.0
 30
0.0
 11
81.0
 21
25.0
 31
0.0
  0
LINE
 62
3
  8
0
 10
81.0
 20
27.0
 30
0.0
 11
81.0
 21
35.0
 31
0.0
  0
LINE
 62
3
  8
0
 10
81.0
 20
37.0
 30
0.0
 11
81.0
 21
45.0
 31
0.0
  0
LINE
 62
3
  8
0
 10
81.0
 20
47.0
 30
0.0
 11
81.0
 21
55.0
 31
0.0
  0
LINE
 62
3
  8
0
 10
81.0
 20
57.0
 30
0.0
 11
81.0
 21
60.0
 31
0.0
  0
LINE
 62
3
  8
0
 10
83.0
 20
20.0
 30
0.0
 11
83.0
 21
25.0
 31
0.0
  0
LINE
 62
3
  8
0
 10
83.0
 20
27.0
 30
0.0
 11
83.0
 21
35.0
 31
0.0
  0
LINE
 62
3
  8
0
 10
83.0
 20
37.0
 30
0.0
 11
83.0
 21
45.0
 31
0.0
  0
LINE
 62
3
  8
0
 10
83.0
 20
47.0
 30
0.0
 11
83.0
 21
55.0
 31
0.0
  0
LINE
 62
3
  8
0
 10
83.0
 20
57.0
 30
0.0
 11
83.0
 21
60.0
 31
0.0
  0
LINE
 62
3
  8
0
 10
36.0
 20
22.0
 30
0.0
 11
36.0
 21
30.0
 31
0.0
  0
LINE
 62
3
  8
0
 10
36.0
 20
32.0
 30
0.0
 11
36.0
 21
40.0
 31
0.0
  0
LINE
 62
3
  8
0
 10
36.0
 20
42.0
 30
0.0
 11
36.0
 21
50.0
 31
0.0
  0
LINE
 62
3
  8
0
 10
36.0
 20
52.0
 30
0.0
 11
36.0
 21
58.0
 31
0.0
  0
LINE
 62
3
  8
0
 10
38.0
 20
22.0
 30
0.0
 11
38.0
 21
30.0
 31
0.0
  0
LINE
 62
3
  8
0
 10
38.0
 20
32.0
 30
0.0
 11
38.0
 21
40.0
 31
0.0
  0
LINE
 62
3
  8
0
 10
38.0
 20
42.0
 30
0.0
 11
38.0
 21
50.0
 31
0.0
  0
LINE
 62
3
  8
0
 10
38.0
 20
52.0
 30
0.0
 11
38.0
 21
58.0
 31
0.0
  0
LINE
 62
3
  8
0
 10
40.0
 20
22.0
 30
0.0
 11
40.0
 21
30.0
 31
0.0
  0
LINE
 62
3
  8
0
 10
40.0
 20
32.0
 30
0.0
 11
40.0
 21
40.0
 31
0.0
  0
LINE
 62
3
  8
0
 10
40.0
 20
42.0
 30
0.0
 11
40.0
 21
50.0
 31
0.0
  0
LINE
 62
3
  8
0
 10
40.0
 20
52.0
 30
0.0
 11
40.0
 21
58.0
 31
0.0
  0
LINE
 62
3
  8
0
 10
42.0
 20
22.0
 30
0.0
 11
42.0
 21
30.0
 31
0.0
  0
LINE
 62
3
  8
0
 10
42.0
 20
32.0
 30
0.0
 11
42.0
 21
40.0
 31
0.0
  0
LINE
 62
3
  8
0
 10
42.0
 20
42.0
 30
0.0
 11
42.0
 21
50.0
 31
0.0
  0
LINE
 62
3
  8
0
 10
42.0
 20
52.0
 30
0.0
 11
42.0
 21
58.0
 31
0.0
  0
LINE
 62
3
  8
0
 10
44.0
 20
22.0
 30
0.0
 11
44.0
 21
30.0
 31
0.0
  0
LINE
 62
3
  8
0
 10
44.0
 20
32.0
 30
0.0
 11
44.0
 21
40.0
 31
0.0
  0
LINE
 62
3
  8
0
 10
44.0
 20
42.0
 30
0.0
 11
44.0
 21
50.0
 31
0.0
  0
LINE
 62
3
  8
0
 10
44.0
 20
52.0
 30
0.0
 11
44.0
 21
58.0
 31
0.0
  0
LINE
 62
3
  8
0
 10
46.0
 20
22.0
 30
0.0
 11
46.0
 21
30.0
 31
0.0
  0
LINE
 62
3
  8
0
 10
46.0
 20
32.0
 30
0.0
 11
46.0
 21
40.0
 31
0.0
  0
LINE
 62
3
  8
0
 10
46.0
 20
42.0
 30
0.0
 11
46.0
 21
50.0
 31
0.0
  0
LINE
 62
3
  8
0
 10
46.0
 20
52.0
 30
0.0
 11
46.0
 21
58.0
 31
0.0
  0
LINE
 62
3
  8
0
 10
48.0
 20
22.0
 30
0.0
 11
48.0
 21
30.0
 31
0.0
  0
LINE
 62
3
  8
0
 10
48.0
 20
32.0
 30
0.0
 11
48.0
 21
40.0
 31
0.0
  0
LINE
 62
3
  8
0
 10
48.0
 20
42.0
 30
0.0
 11
48.0
 21
50.0
 31
0.0
  0
LINE
 62
3
  8
0
 10
48.0
 20
52.0
 30
0.0
 11
48.0
 21
58.0
 31
0.0
  0
LINE
 62
3
  8
0
 10
50.0
 20
22.0
 30
0.0
 11
50.0
 21
30.0
 31
0.0
  0
LINE
 62
3
  8
0
 10
50.0
 20
32.0
 30
0.0
 11
50.0
 21
40.0
 31
0.0
  0
LINE
 62
3
  8
0
 10
50.0
 20
42.0
 30
0.0
 11
50.0
 21
50.0
 31
0.0
  0
LINE
 62
3
  8
0
 10
50.0
 20
52.0
 30
0.0
 11
50.0
 21
58.0
 31
0.0
  0
LINE
 62
3
  8
0
 10
52.0
 20
22.0
 30
0.0
 11
52.0
 21
30.0
 31
0.0
  0
LINE
 62
3
  8
0
 10
52.0
 20
32.0
 30
0.0
 11
52.0
 21
40.0
 31
0.0
  0
LINE
 62
3
  8
0
 10
52.0
 20
42.0
 30
0.0
 11
52.0
 21
50.0
 31
0.0
  0
LINE
 62
3
  8
0
 10
52.0
 20
52.0
 30
0.0
 11
52.0
 21
58.0
 31
0.0
  0
LINE
 62
3
  8
0
 10
54.0
 20
22.0
 30
0.0
 11
54.0
 21
30.0
 31
0.0
  0
LINE
 62
3
  8
0
 10
54.0
 20
32.0
 30
0.0
 11
54.0
 21
40.0
 31
0.0
  0
LINE
 62
3
  8
0
 10
54.0
 20
42.0
 30
0.0
 11
54.0
 21
50.0
 31
0.0
  0
LINE
 62
3
  8
0
 10
54.0
 20
52.0
 30
0.0
 11
54.0
 21
58.0
 31
0.0
  0
LINE
 62
3
  8
0
 10
56.0
 20
22.0
 30
0.0
 11
56.0
 21
30.0
 31
0.0
  0
LINE
 62
3
  8
0
 10
56.0
 20
32.0
 30
0.0
 11
56.0
 21
40.0
 31
0.0
  0
LINE
 62
3
  8
0
 10
56.0
 20
42.0
 30
0.0
 11
56.0
 21
50.0
 31
0.0
  0
LINE
 62
3
  8
0
 10
56.0
 20
52.0
 30
0.0
 11
56.0
 21
58.0
 31
0.0
  0
LINE
 62
3
  8
0
 10
58.0
 20
22.0
 30
0.0
 11
58.0
 21
30.0
 31
0.0
  0
LINE
 62
3
  8
0
 10
58.0
 20
32.0
 30
0.0
 11
58.0
 21
40.0
 31
0.0
  0
LINE
 62
3
  8
0
 10
58.0
 20
42.0
 30
0.0
 11
58.0
 21
50.0
 31
0.0
  0
LINE
 62
3
  8
0
 10
58.0
 20
52.0
 30
0.0
 11
58.0
 21
58.0
 31
0.0
  0
LINE
 62
3
  8
0
 10
60.0
 20
22.0
 30
0.0
 11
60.0
 21
30.0
 31
0.0
  0
LINE
 62
3
  8
0
 10
60.0
 20
32.0
 30
0.0
 11
60.0
 21
40.0
 31
0.0
  0
LINE
 62
3
  8
0
 10
60.0
 20
42.0
 30
0.0
 11
60.0
 21
50.0
 31
0.0
  0
LINE
 62
3
  8
0
 10
60.0
 20
52.0
 30
0.0
 11
60.0
 21
58.0
 31
0.0
  0
LINE
 62
3
  8
0
 10
62.0
 20
22.0
 30
0.0
 11
62.0
 21
30.0
 31
0.0
  0
LINE
 62
3
  8
0
 10
62.0
 20
32.0
 30
0.0
 11
62.0
 21
40.0
 31
0.0
  0
LINE
 62
3
  8
0
 10
62.0
 20
42.0
 30
0.0
 11
62.0
 21
50.0
 31
0.0
  0
LINE
 62
3
  8
0
 10
62.0
 20
52.0
 30
0.0
 11
62.0
 21
58.0
 31
0.0
  0
LINE
 62
3
  8
0
 10
64.0
 20
22.0
 30
0.0
 11
64.0
 21
30.0
 31
0.0
  0
LINE
 62
3
  8
0
 10
64.0
 20
32.0
 30
0.0
 11
64.0
 21
40.0
 31
0.0
  0
LINE
 62
3
  8
0
 10
64.0
 20
42.0
 30
0.0
 11
64.0
 21
50.0
 31
0.0
  0
LINE
 62
3
  8
0
 10
64.0
 20
52.0
 30
0.0
 11
64.0
 21
58.0
 31
0.0
  0
LINE
 62
3
  8
0
 10
66.0
 20
22.0
 30
0.0
 11
66.0
 21
30.0
 31
0.0
  0
LINE
 62
3
  8
0
 10
66.0
 20
32.0
 30
0.0
 11
66.0
 21
40.0
 31
0.0
  0
LINE
 62
3
  8
0
 10
66.0
 20
42.0
 30
0.0
 11
66.0
 21
50.0
 31
0.0
  0
LINE
 62
3
  8
0
 10
66.0
 20
52.0
 30
0.0
 11
66.0
 21
58.0
 31
0.0
  0
LINE
 62
3
  8
0
 10
68.0
 20
22.0
 30
0.0
 11
68.0
 21
30.0
 31
0.0
  0
LINE
 62
3
  8
0
 10
68.0
 20
32.0
 30
0.0
 11
68.0
 21
40.0
 31
0.0
  0
LINE
 62
3
  8
0
 10
68.0
 20
42.0
 30
0.0
 11
68.0
 21
50.0
 31
0.0
  0
LINE
 62
3
  8
0
 10
68.0
 20
52.0
 30
0.0
 11
68.0
 21
58.0
 31
0.0
  0
LINE
 62
3
  8
0
 10
70.0
 20
22.0
 30
0.0
 11
70.0
 21
30.0
 31
0.0
  0
LINE
 62
3
  8
0
 10
70.0
 20
32.0
 30
0.0
 11
70.0
 21
40.0
 31
0.0
  0
LINE
 62
3
  8
0
 10
70.0
 20
42.0
 30
0.0
 11
70.0
 21
50.0
 31
0.0
  0
LINE
 62
3
  8
0
 10
70.0
 20
52.0
 30
0.0
 11
70.0
 21
58.0
 31
0.0
  0
LINE
 62
3
  8
0
 10
72.0
 20
22.0
 30
0.0
 11
72.0
 21
30.0
 31
0.0
  0
LINE
 62
3
  8
0
 10
72.0
 20
32.0
 30
0.0
 11
72.0
 21
40.0
 31
0.0
  0
LINE
 62
3
  8
0
 10
72.0
 20
42.0
 30
0.0
 11
72.0
 21
50.0
 31
0.0
  0
LINE
 62
3
  8
0
 10
72.0
 20
52.0
 30
0.0
 11
72.0
 21
58.0
 31
0.0
  0
LINE
 62
3
  8
0
 10
74.0
 20
22.0
 30
0.0
 11
74.0
 21
30.0
 31
0.0
  0
LINE
 62
3
  8
0
 10
74.0
 20
32.0
 30
0.0
 11
74.0
 21
40.0
 31
0.0
  0
LINE
 62
3
  8
0
 10
74.0
 20
42.0
 30
0.0
 11
74.0
 21
50.0
 31
0.0
  0
LINE
 62
3
  8
0
 10
74.0
 20
52.0
 30
0.0
 11
74.0
 21
58.0
 31
0.0
  0
LINE
 62
3
  8
0
 10
76.0
 20
22.0
 30
0.0
 11
76.0
 21
30.0
 31
0.0
  0
LINE
 62
3
  8
0
 10
76.0
 20
32.0
 30
0.0
 11
76.0
 21
40.0
 31
0.0
  0
LINE
 62
3
  8
0
 10
76.0
 20
42.0
 30
0.0
 11
76.0
 21
50.0
 31
0.0
  0
LINE
 62
3
  8
0
 10
76.0
 20
52.0
 30
0.0
 11
76.0
 21
58.0
 31
0.0
  0
LINE
 62
3
  8
0
 10
78.0
 20
22.0
 30
0.0
 11
78.0
 21
30.0
 31
0.0
  0
LINE
 62
3
  8
0
 10
78.0
 20
32.0
 30
0.0
 11
78.0
 21
40.0
 31
0.0
  0
LINE
 62
3
  8
0
 10
78.0
 20
42.0
 30
0.0
 11
78.0
 21
50.0
 31
0.0
  0
LINE
 62
3
  8
0
 10
78.0
 20
52.0
 30
0.0
 11
78.0
 21
58.0
 31
0.0
  0
LINE
 62
3
  8
0
 10
80.0
 20
22.0
 30
0.0
 11
80.0
 21
30.0
 31
0.0
  0
LINE
 62
3
  8
0
 10
80.0
 20
32.0
 30
0.0
 11
80.0
 21
40.0
 31
0.0
  0
LINE
 62
3
  8
0
 10
80.0
 20
42.0
 30
0.0
 11
80.0
 21
50.0
 31
0.0
  0
LINE
 62
3
  8
0
 10
80.0
 20
52.0
 30
0.0
 11
80.0
 21
58.0
 31
0.0
  0
LINE
 62
3
  8
0
 10
82.0
 20
22.0
 30
0.0
 11
82.0
 21
30.0
 31
0.0
  0
LINE
 62
3
  8
0
 10
82.0
 20
32.0
 30
0.0
 11
82.0
 21
40.0
 31
0.0
  0
LINE
 62
3
  8
0
 10
82.0
 20
42.0
 30
0.0
 11
82.0
 21
50.0
 31
0.0
  0
LINE
 62
3
  8
0
 10
82.0
 20
52.0
 30
0.0
 11
82.0
 21
58.0
 31
0.0
  0
LINE
 62
3
  8
0
 10
84.0
 20
22.0
 30
0.0
 11
84.0
 21
30.0
 31
0.0
  0
LINE
 62
3
  8
0
 10
84.0
 20
32.0
 30
0.0
 11
84.0
 21
40.0
 31
0.0
  0
LINE
 62
3
  8
0
 10
84.0
 20
42.0
 30
0.0
 11
84.0
 21
50.0
 31
0.0
  0
LINE
 62
3
  8
0
 10
84.0
 20
52.0
 30
0.0
 11
84.0
 21
58.0
 31
0.0
  0
TEXT
 62
3
  8
0
 10
12.0
 20
30.0
 30
0.0
 40
3.0
  1
pitch 1.0
 50
0.0
 41
1.0
 51
0.0
  7
STANDARD
 71
0
 72
0
 73
3
 11
12.0
 21
30.0
 31
0.0
  0
LINE
 62
3
  8
0
 10
10.0
 20
61.0
 30
0.0
 11
110.0
 21
61.0
 31
0.0
  0
LINE
 62
3
  8
0
 10
110.0
 20
61.0
 30
0.0
 11
110.0
 21
101.0
 31
0.0
  0
LINE
 62
3
  8
0
 10
110.0
 20
101.0
 30
0.0
 11
10.0
 21
101.0
 31
0.0
  0
LINE
 62
3
  8
0
 10
10.0
 20
101.0
 30
0.0
 11
10.0
 21
61.0
 31
0.0
  0
LINE
 62
3
  8
0
 10
35.0
 20
61.0
 30
0.0
 11
35.0
 21
66.0
 31
0.0
  0
LINE
 62
3
  8
0
 10
35.0
 20
68.0
 30
0.0
 11
35.0
 21
76.0
 31
0.0
  0
LINE
 62
3
  8
0
 10
35.0
 20
78.0
 30
0.0
 11
35.0
 21
86.0
 31
0.0
  0
LINE
 62
3
  8
0
 10
35.0
 20
88.0
 30
0.0
 11
35.0
 21
96.0
 31
0.0
  0
LINE
 62
3
  8
0
 10
35.0
 20
98.0
 30
0.0
 11
35.0
 21
101.0
 31
0.0
  0
LINE
 62
3
  8
0
 10
38.0
 20
61.0
 30
0.0
 11
38.0
 21
66.0
 31
0.0
  0
LINE
 62
3
  8
0
 10
38.0
 20
68.0
 30
0.0
 11
38.0
 21
76.0
 31
0.0
  0
LINE
 62
3
  8
0
 10
38.0
 20
78.0
 30
0.0
 11
38.0
 21
86.0
 31
0.0
  0
LINE
 62
3
  8
0
 10
38.0
 20
88.0
 30
0.0
 11
38.0
 21
96.0
 31
0.0
  0
LINE
 62
3
  8
0
 10
38.0
 20
98.0
 30
0.0
 11
38.0
 21
101.0
 31
0.0
  0
LINE
 62
3
  8
0
 10
41.0
 20
61.0
 30
0.0
 11
41.0
 21
66.0
 31
0.0
  0
LINE
 62
3
  8
0
 10
41.0
 20
68.0
 30
0.0
 11
41.0
 21
76.0
 31
0.0
  0
LINE
 62
3
  8
0
 10
41.0
 20
78.0
 30
0.0
 11
41.0
 21
86.0
 31
0.0
  0
LINE
 62
3
  8
0
 10
41.0
 20
88.0
 30
0.0
 11
41.0
 21
96.0
 31
0.0
  0
LINE
 62
3
  8
0
 10
41.0
 20
98.0
 30
0.0
 11
41.0
 21
101.0
 31
0.0
  0
LINE
 62
3
  8
0
 10
44.0
 20
61.0
 30
0.0
 11
44.0
 21
66.0
 31
0.0
  0
LINE
 62
3
  8
0
 10
44.0
 20
68.0
 30
0.0
 11
44.0
 21
76.0
 31
0.0
  0
LINE
 62
3
  8
0
 10
44.0
 20
78.0
 30
0.0
 11
44.0
 21
86.0
 31
0.0
  0
LINE
 62
3
  8
0
 10
44.0
 20
88.0
 30
0.0
 11
44.0
 21
96.0
 31
0.0
  0
LINE
 62
3
  8
0
 10
44.0
 20
98.0
 30
0.0
 11
44.0
 21
101.0
 31
0.0
  0
LINE
 62
3
  8
0
 10
47.0
 20
61.0
 30
0.0
 11
47.0
 21
66.0
 31
0.0
  0
LINE
 62
3
  8
0
 10
47.0
 20
68.0
 30
0.0
 11
47.0
 21
76.0
 31
0.0
  0
LINE
 62
3
  8
0
 10
47.0
 20
78.0
 30
0.0
 11
47.0
 21
86.0
 31
0.0
  0
LINE
 62
3
  8
0
 10
47.0
 20
88.0
 30
0.0
 11
47.0
 21
96.0
 31
0.0
  0
LINE
 62
3
  8
0
 10
47.0
 20
98.0
 30
0.0
 11
47.0
 21
101.0
 31
0.0
  0
LINE
 62
3
  8
0
 10
50.0
 20
61.0
 30
0.0
 11
50.0
 21
66.0
 31
0.0
  0
LINE
 62
3
  8
0
 10
50.0
 20
68.0
 30
0.0
 11
50.0
 21
76.0
 31
0.0
  0
LINE
 62
3
  8
0
 10
50.0
 20
78.0
 30
0.0
 11
50.0
 21
86.0
 31
0.0
  0
LINE
 62
3
  8
0
 10
50.0
 20
88.0
 30
0.0
 11
50.0
 21
96.0
 31
0.0
  0
LINE
 62
3
  8
0
 10
50.0
 20
98.0
 30
0.0
 11
50.0
 21
101.0
 31
0.0
  0
LINE
 62
3
  8
0
 10
53.0
 20
61.0
 30
0.0
 11
53.0
 21
66.0
 31
0.0
  0
LINE
 62
3
  8
0
 10
53.0
 20
68.0
 30
0.0
 11
53.0
 21
76.0
 31
0.0
  0
LINE
 62
3
  8
0
 10
53.0
 20
78.0
 30
0.0
 11
53.0
 21
86.0
 31
0.0
  0
LINE
 62
3
  8
0
 10
53.0
 20
88.0
 30
0.0
 11
53.0
 21
96.0
 31
0.0
  0
LINE
 62
3
  8
0
 10
53.0
 20
98.0
 30
0.0
 11
53.0
 21
101.0
 31
0.0
  0
LINE
 62
3
  8
0
 10
56.0
 20
61.0
 30
0.0
 11
56.0
 21
66.0
 31
0.0
  0
LINE
 62
3
  8
0
 10
56.0
 20
68.0
 30
0.0
 11
56.0
 21
76.0
 31
0.0
  0
LINE
 62
3
  8
0
 10
56.0
 20
78.0
 30
0.0
 11
56.0
 21
86.0
 31
0.0
  0
LINE
 62
3
  8
0
 10
56.0
 20
88.0
 30
0.0
 11
56.0
 21
96.0
 31
0.0
  0
LINE
 62
3
  8
0
 10
56.0
 20
98.0
 30
0.0
 11
56.0
 21
101.0
 31
0.0
  0
LINE
 62
3
  8
0
 10
59.0
 20
61.0
 30
0.0
 11
59.0
 21
66.0
 31
0.0
  0
LINE
 62
3
  8
0
 10
59.0
 20
68.0
 30
0.0
 11
59.0
 21
76.0
 31
0.0
  0
LINE
 62
3
  8
0
 10
59.0
 20
78.0
 30
0.0
 11
59.0
 21
86.0
 31
0.0
  0
LINE
 62
3
  8
0
 10
59.0
 20
88.0
 30
0.0
 11
59.0
 21
96.0
 31
0.0
  0
LINE
 62
3
  8
0
 10
59.0
 20
98.0
 30
0.0
 11
59.0
 21
101.0
 31
0.0
  0
LINE
 62
3
  8
0
 10
62.0
 20
61.0
 30
0.0
 11
62.0
 21
66.0
 31
0.0
  0
LINE
 62
3
  8
0
 10
62.0
 20
68.0
 30
0.0
 11
62.0
 21
76.0
 31
0.0
  0
LINE
 62
3
  8
0
 10
62.0
 20
78.0
 30
0.0
 11
62.0
 21
86.0
 31
0.0
  0
LINE
 62
3
  8
0
 10
62.0
 20
88.0
 30
0.0
 11
62.0
 21
96.0
 31
0.0
  0
LINE
 62
3
  8
0
 10
62.0
 20
98.0
 30
0.0
 11
62.0
 21
101.0
 31
0.0
  0
LINE
 62
3
  8
0
 10
65.0
 20
61.0
 30
0.0
 11
65.0
 21
66.0
 31
0.0
  0
LINE
 62
3
  8
0
 10
65.0
 20
68.0
 30
0.0
 11
65.0
 21
76.0
 31
0.0
  0
LINE
 62
3
  8
0
 10
65.0
 20
78.0
 30
0.0
 11
65.0
 21
86.0
 31
0.0
  0
LINE
 62
3
  8
0
 10
65.0
 20
88.0
 30
0.0
 11
65.0
 21
96.0
 31
0.0
  0
LINE
 62
3
  8
0
 10
65.0
 20
98.0
 30
0.0
 11
65.0
 21
101.0
 31
0.0
  0
LINE
 62
3
  8
0
 10
68.0
 20
61.0
 30
0.0
 11
68.0
 21
66.0
 31
0.0
  0
LINE
 62
3
  8
0
 10
68.0
 20
68.0
 30
0.0
 11
68.0
 21
76.0
 31
0.0
  0
LINE
 62
3
  8
0
 10
68.0
 20
78.0
 30
0.0
 11
68.0
 21
86.0
 31
0.0
  0
LINE
 62
3
  8
0
 10
68.0
 20
88.0
 30
0.0
 11
68.0
 21
96.0
 31
0.0
  0
LINE
 62
3
  8
0
 10
68.0
 20
98.0
 30
0.0
 11
68.0
 21
101.0
 31
0.0
  0
LINE
 62
3
  8
0
 10
71.0
 20
61.0
 30
0.0
 11
71.0
 21
66.0
 31
0.0
  0
LINE
 62
3
  8
0
 10
71.0
 20
68.0
 30
0.0
 11
71.0
 21
76.0
 31
0.0
  0
LINE
 62
3
  8
0
 10
71.0
 20
78.0
 30
0.0
 11
71.0
 21
86.0
 31
0.0
  0
LINE
 62
3
  8
0
 10
71.0
 20
88.0
 30
0.0
 11
71.0
 21
96.0
 31
0.0
  0
LINE
 62
3
  8
0
 10
71.0
 20
98.0
 30
0.0
 11
71.0
 21
101.0
 31
0.0
  0
LINE
 62
3
  8
0
 10
74.0
 20
61.0
 30
0.0
 11
74.0
 21
66.0
 31
0.0
  0
LINE
 62
3
  8
0
 10
74.0
 20
68.0
 30
0.0
 11
74.0
 21
76.0
 31
0.0
  0
LINE
 62
3
  8
0
 10
74.0
 20
78.0
 30
0.0
 11
74.0
 21
86.0
 31
0.0
  0
LINE
 62
3
  8
0
 10
74.0
 20
88.0
 30
0.0
 11
74.0
 21
96.0
 31
0.0
  0
LINE
 62
3
  8
0
 10
74.0
 20
98.0
 30
0.0
 11
74.0
 21
101.0
 31
0.0
  0
LINE
 62
3
  8
0
 10
77.0
 20
61.0
 30
0.0
 11
77.0
 21
66.0
 31
0.0
  0
LINE
 62
3
  8
0
 10
77.0
 20
68.0
 30
0.0
 11
77.0
 21
76.0
 31
0.0
  0
LINE
 62
3
  8
0
 10
77.0
 20
78.0
 30
0.0
 11
77.0
 21
86.0
 31
0.0
  0
LINE
 62
3
  8
0
 10
77.0
 20
88.0
 30
0.0
 11
77.0
 21
96.0
 31
0.0
  0
LINE
 62
3
  8
0
 10
77.0
 20
98.0
 30
0.0
 11
77.0
 21
101.0
 31
0.0
  0
LINE
 62
3
  8
0
 10
80.0
 20
61.0
 30
0.0
 11
80.0
 21
66.0
 31
0.0
  0
LINE
 62
3
  8
0
 10
80.0
 20
68.0
 30
0.0
 11
80.0
 21
76.0
 31
0.0
  0
LINE
 62
3
  8
0
 10
80.0
 20
78.0
 30
0.0
 11
80.0
 21
86.0
 31
0.0
  0
LINE
 62
3
  8
0
 10
80.0
 20
88.0
 30
0.0
 11
80.0
 21
96.0
 31
0.0
  0
LINE
 62
3
  8
0
 10
80.0
 20
98.0
 30
0.0
 11
80.0
 21
101.0
 31
0.0
  0
LINE
 62
3
  8
0
 10
83.0
 20
61.0
 30
0.0
 11
83.0
 21
66.0
 31
0.0
  0
LINE
 62
3
  8
0
 10
83.0
 20
68.0
 30
0.0
 11
83.0
 21
76.0
 31
0.0
  0
LINE
 62
3
  8
0
 10
83.0
 20
78.0
 30
0.0
 11
83.0
 21
86.0
 31
0.0
  0
LINE
 62
3
  8
0
 10
83.0
 20
88.0
 30
0.0
 11
83.0
 21
96.0
 31
0.0
  0
LINE
 62
3
  8
0
 10
83.0
 20
98.0
 30
0.0
 11
83.0
 21
101.0
 31
0.0
  0
LINE
 62
3
  8
0
 10
36.5
 20
63.0
 30
0.0
 11
36.5
 21
71.0
 31
0.0
  0
LINE
 62
3
  8
0
 10
36.5
 20
73.0
 30
0.0
 11
36.5
 21
81.0
 31
0.0
  0
LINE
 62
3
  8
0
 10
36.5
 20
83.0
 30
0.0
 11
36.5
 21
91.0
 31
0.0
  0
LINE
 62
3
  8
0
 10
36.5
 20
93.0
 30
0.0
 11
36.5
 21
99.0
 31
0.0
  0
LINE
 62
3
  8
0
 10
39.5
 20
63.0
 30
0.0
 11
39.5
 21
71.0
 31
0.0
  0
LINE
 62
3
  8
0
 10
39.5
 20
73.0
 30
0.0
 11
39.5
 21
81.0
 31
0.0
  0
LINE
 62
3
  8
0
 10
39.5
 20
83.0
 30
0.0
 11
39.5
 21
91.0
 31
0.0
  0
LINE
 62
3
  8
0
 10
39.5
 20
93.0
 30
0.0
 11
39.5
 21
99.0
 31
0.0
  0
LINE
 62
3
  8
0
 10
42.5
 20
63.0
 30
0.0
 11
42.5
 21
71.0
 31
0.0
  0
LINE
 62
3
  8
0
 10
42.5
 20
73.0
 30
0.0
 11
42.5
 21
81.0
 31
0.0
  0
LINE
 62
3
  8
0
 10
42.5
 20
83.0
 30
0.0
 11
42.5
 21
91.0
 31
0.0
  0
LINE
 62
3
  8
0
 10
42.5
 20
93.0
 30
0.0
 11
42.5
 21
99.0
 31
0.0
  0
LINE
 62
3
  8
0
 10
45.5
 20
63.0
 30
0.0
 11
45.5
 21
71.0
 31
0.0
  0
LINE
 62
3
  8
0
 10
45.5
 20
73.0
 30
0.0
 11
45.5
 21
81.0
 31
0.0
  0
LINE
 62
3
  8
0
 10
45.5
 20
83.0
 30
0.0
 11
45.5
 21
91.0
 31
0.0
  0
LINE
 62
3
  8
0
 10
45.5
 20
93.0
 30
0.0
 11
45.5
 21
99.0
 31
0.0
  0
LINE
 62
3
  8
0
 10
48.5
 20
63.0
 30
0.0
 11
48.5
 21
71.0
 31
0.0
  0
LINE
 62
3
  8
0
 10
48.5
 20
73.0
 30
0.0
 11
48.5
 21
81.0
 31
0.0
  0
LINE
 62
3
  8
0
 10
48.5
 20
83.0
 30
0.0
 11
48.5
 21
91.0
 31
0.0
  0
LINE
 62
3
  8
0
 10
48.5
 20
93.0
 30
0.0
 11
48.5
 21
99.0
 31
0.0
  0
LINE
 62
3
  8
0
 10
51.5
 20
63.0
 30
0.0
 11
51.5
 21
71.0
 31
0.0
  0
LINE
 62
3
  8
0
 10
51.5
 20
73.0
 30
0.0
 11
51.5
 21
81.0
 31
0.0
  0
LINE
 62
3
  8
0
 10
51.5
 20
83.0
 30
0.0
 11
51.5
 21
91.0
 31
0.0
  0
LINE
 62
3
  8
0
 10
51.5
 20
93.0
 30
0.0
 11
51.5
 21
99.0
 31
0.0
  0
LINE
 62
3
  8
0
 10
54.5
 20
63.0
 30
0.0
 11
54.5
 21
71.0
 31
0.0
  0
LINE
 62
3
  8
0
 10
54.5
 20
73.0
 30
0.0
 11
54.5
 21
81.0
 31
0.0
  0
LINE
 62
3
  8
0
 10
54.5
 20
83.0
 30
0.0
 11
54.5
 21
91.0
 31
0.0
  0
LINE
 62
3
  8
0
 10
54.5
 20
93.0
 30
0.0
 11
54.5
 21
99.0
 31
0.0
  0
LINE
 62
3
  8
0
 10
57.5
 20
63.0
 30
0.0
 11
57.5
 21
71.0
 31
0.0
  0
LINE
 62
3
  8
0
 10
57.5
 20
73.0
 30
0.0
 11
57.5
 21
81.0
 31
0.0
  0
LINE
 62
3
  8
0
 10
57.5
 20
83.0
 30
0.0
 11
57.5
 21
91.0
 31
0.0
  0
LINE
 62
3
  8
0
 10
57.5
 20
93.0
 30
0.0
 11
57.5
 21
99.0
 31
0.0
  0
LINE
 62
3
  8
0
 10
60.5
 20
63.0
 30
0.0
 11
60.5
 21
71.0
 31
0.0
  0
LINE
 62
3
  8
0
 10
60.5
 20
73.0
 30
0.0
 11
60.5
 21
81.0
 31
0.0
  0
LINE
 62
3
  8
0
 10
60.5
 20
83.0
 30
0.0
 11
60.5
 21
91.0
 31
0.0
  0
LINE
 62
3
  8
0
 10
60.5
 20
93.0
 30
0.0
 11
60.5
 21
99.0
 31
0.0
  0
LINE
 62
3
  8
0
 10
63.5
 20
63.0
 30
0.0
 11
63.5
 21
71.0
 31
0.0
  0
LINE
 62
3
  8
0
 10
63.5
 20
73.0
 30
0.0
 11
63.5
 21
81.0
 31
0.0
  0
LINE
 62
3
  8
0
 10
63.5
 20
83.0
 30
0.0
 11
63.5
 21
91.0
 31
0.0
  0
LINE
 62
3
  8
0
 10
63.5
 20
93.0
 30
0.0
 11
63.5
 21
99.0
 31
0.0
  0
LINE
 62
3
  8
0
 10
66.5
 20
63.0
 30
0.0
 11
66.5
 21
71.0
 31
0.0
  0
LINE
 62
3
  8
0
 10
66.5
 20
73.0
 30
0.0
 11
66.5
 21
81.0
 31
0.0
  0
LINE
 62
3
  8
0
 10
66.5
 20
83.0
 30
0.0
 11
66.5
 21
91.0
 31
0.0
  0
LINE
 62
3
  8
0
 10
66.5
 20
93.0
 30
0.0
 11
66.5
 21
99.0
 31
0.0
  0
LINE
 62
3
  8
0
 10
69.5
 20
63.0
 30
0.0
 11
69.5
 21
71.0
 31
0.0
  0
LINE
 62
3
  8
0
 10
69.5
 20
73.0
 30
0.0
 11
69.5
 21
81.0
 31
0.0
  0
LINE
 62
3
  8
0
 10
69.5
 20
83.0
 30
0.0
 11
69.5
 21
91.0
 31
0.0
  0
LINE
 62
3
  8
0
 10
69.5
 20
93.0
 30
0.0
 11
69.5
 21
99.0
 31
0.0
  0
LINE
 62
3
  8
0
 10
72.5
 20
63.0
 30
0.0
 11
72.5
 21
71.0
 31
0.0
  0
LINE
 62
3
  8
0
 10
72.5
 20
73.0
 30
0.0
 11
72.5
 21
81.0
 31
0.0
  0
LINE
 62
3
  8
0
 10
72.5
 20
83.0
 30
0.0
 11
72.5
 21
91.0
 31
0.0
  0
LINE
 62
3
  8
0
 10
72.5
 20
93.0
 30
0.0
 11
72.5
 21
99.0
 31
0.0
  0
LINE
 62
3
  8
0
 10
75.5
 20
63.0
 30
0.0
 11
75.5
 21
71.0
 31
0.0
  0
LINE
 62
3
  8
0
 10
75.5
 20
73.0
 30
0.0
 11
75.5
 21
81.0
 31
0.0
  0
LINE
 62
3
  8
0
 10
75.5
 20
83.0
 30
0.0
 11
75.5
 21
91.0
 31
0.0
  0
LINE
 62
3
  8
0
 10
75.5
 20
93.0
 30
0.0
 11
75.5
 21
99.0
 31
0.0
  0
LINE
 62
3
  8
0
 10
78.5
 20
63.0
 30
0.0
 11
78.5
 21
71.0
 31
0.0
  0
LINE
 62
3
  8
0
 10
78.5
 20
73.0
 30
0.0
 11
78.5
 21
81.0
 31
0.0
  0
LINE
 62
3
  8
0
 10
78.5
 20
83.0
 30
0.0
 11
78.5
 21
91.0
 31
0.0
  0
LINE
 62
3
  8
0
 10
78.5
 20
93.0
 30
0.0
 11
78.5
 21
99.0
 31
0.0
  0
LINE
 62
3
  8
0
 10
81.5
 20
63.0
 30
0.0
 11
81.5
 21
71.0
 31
0.0
  0
LINE
 62
3
  8
0
 10
81.5
 20
73.0
 30
0.0
 11
81.5
 21
81.0
 31
0.0
  0
LINE
 62
3
  8
0
 10
81.5
 20
83.0
 30
0.0
 11
81.5
 21
91.0
 31
0.0
  0
LINE
 62
3
  8
0
 10
81.5
 20
93.0
 30
0.0
 11
81.5
 21
99.0
 31
0.0
  0
LINE
 62
3
  8
0
 10
84.5
 20
63.0
 30
0.0
 11
84.5
 21
71.0
 31
0.0
  0
LINE
 62
3
  8
0
 10
84.5
 20
73.0
 30
0.0
 11
84.5
 21
81.0
 31
0.0
  0
LINE
 62
3
  8
0
 10
84.5
 20
83.0
 30
0.0
 11
84.5
 21
91.0
 31
0.0
  0
LINE
 62
3
  8
0
 10
84.5
 20
93.0
 30
0.0
 11
84.5
 21
99.0
 31
0.0
  0
TEXT
 62
3
  8
0
 10
12.0
 20
71.0
 30
0.0
 40
3.0
  1
pitch 1.5
 50
0.0
 41
1.0
 51
0.0
  7
STANDARD
 71
0
 72
0
 73
3
 11
12.0
 21
71.0
 31
0.0
  0
LINE
 62
3
  8
0
 10
10.0
 20
102.0
 30
0.0
 11
110.0
 21
102.0
 31
0.0
  0
LINE
 62
3
  8
0
 10
110.0
 20
102.0
 30
0.0
 11
110.0
 21
142.0
 31
0.0
  0
LINE
 62
3
  8
0
 10
110.0
 20
142.0
 30
0.0
 11
10.0
 21
142.0
 31
0.0
  0
LINE
 62
3
  8
0
 10
10.0
 20
142.0
 30
0.0
 11
10.0
 21
102.0
 31
0.0
  0
LINE
 62
3
  8
0
 10
35.0
 20
102.0
 30
0.0
 11
35.0
 21
107.0
 31
0.0
  0
LINE
 62
3
  8
0
 10
35.0
 20
109.0
 30
0.0
 11
35.0
 21
117.0
 31
0.0
  0
LINE
 62
3
  8
0
 10
35.0
 20
119.0
 30
0.0
 11
35.0
 21
127.0
 31
0.0
  0
LINE
 62
3
  8
0
 10
35.0
 20
129.0
 30
0.0
 11
35.0
 21
137.0
 31
0.0
  0
LINE
 62
3
  8
0
 10
35.0
 20
139.0
 30
0.0
 11
35.0
 21
142.0
 31
0.0
  0
LINE
 62
3
  8
0
 10
39.0
 20
102.0
 30
0.0
 11
39.0
 21
107.0
 31
0.0
  0
LINE
 62
3
  8
0
 10
39.0
 20
109.0
 30
0.0
 11
39.0
 21
117.0
 31
0.0
  0
LINE
 62
3
  8
0
 10
39.0
 20
119.0
 30
0.0
 11
39.0
 21
127.0
 31
0.0
  0
LINE
 62
3
  8
0
 10
39.0
 20
129.0
 30
0.0
 11
39.0
 21
137.0
 31
0.0
  0
LINE
 62
3
  8
0
 10
39.0
 20
139.0
 30
0.0
 11
39.0
 21
142.0
 31
0.0
  0
LINE
 62
3
  8
0
 10
43.0
 20
102.0
 30
0.0
 11
43.0
 21
107.0
 31
0.0
  0
LINE
 62
3
  8
0
 10
43.0
 20
109.0
 30
0.0
 11
43.0
 21
117.0
 31
0.0
  0
LINE
 62
3
  8
0
 10
43.0
 20
119.0
 30
0.0
 11
43.0
 21
127.0
 31
0.0
  0
LINE
 62
3
  8
0
 10
43.0
 20
129.0
 30
0.0
 11
43.0
 21
137.0
 31
0.0
  0
LINE
 62
3
  8
0
 10
43.0
 20
139.0
 30
0.0
 11
43.0
 21
142.0
 31
0.0
  0
LINE
 62
3
  8
0
 10
47.0
 20
102.0
 30
0.0
 11
47.0
 21
107.0
 31
0.0
  0
LINE
 62
3
  8
0
 10
47.0
 20
109.0
 30
0.0
 11
47.0
 21
117.0
 31
0.0
  0
LINE
 62
3
  8
0
 10
47.0
 20
119.0
 30
0.0
 11
47.0
 21
127.0
 31
0.0
  0
LINE
 62
3
  8
0
 10
47.0
 20
129.0
 30
0.0
 11
47.0
 21
137.0
 31
0.0
  0
LINE
 62
3
  8
0
 10
47.0
 20
139.0
 30
0.0
 11
47.0
 21
142.0
 31
0.0
  0
LINE
 62
3
  8
0
 10
51.0
 20
102.0
 30
0.0
 11
51.0
 21
107.0
 31
0.0
  0
LINE
 62
3
  8
0
 10
51.0
 20
109.0
 30
0.0
 11
51.0
 21
117.0
 31
0.0
  0
LINE
 62
3
  8
0
 10
51.0
 20
119.0
 30
0.0
 11
51.0
 21
127.0
 31
0.0
  0
LINE
 62
3
  8
0
 10
51.0
 20
129.0
 30
0.0
 11
51.0
 21
137.0
 31
0.0
  0
LINE
 62
3
  8
0
 10
51.0
 20
139.0
 30
0.0
 11
51.0
 21
142.0
 31
0.0
  0
LINE
 62
3
  8
0
 10
55.0
 20
102.0
 30
0.0
 11
55.0
 21
107.0
 31
0.0
  0
LINE
 62
3
  8
0
 10
55.0
 20
109.0
 30
0.0
 11
55.0
 21
117.0
 31
0.0
  0
LINE
 62
3
  8
0
 10
55.0
 20
119.0
 30
0.0
 11
55.0
 21
127.0
 31
0.0
  0
LINE
 62
3
  8
0
 10
55.0
 20
129.0
 30
0.0
 11
55.0
 21
137.0
 31
0.0
  0
LINE
 62
3
  8
0
 10
55.0
 20
139.0
 30
0.0
 11
55.0
 21
142.0
 31
0.0
  0
LINE
 62
3
  8
0
 10
59.0
 20
102.0
 30
0.0
 11
59.0
 21
107.0
 31
0.0
  0
LINE
 62
3
  8
0
 10
59.0
 20
109.0
 30
0.0
 11
59.0
 21
117.0
 31
0.0
  0
LINE
 62
3
  8
0
 10
59.0
 20
119.0
 30
0.0
 11
59.0
 21
127.0
 31
0.0
  0
LINE
 62
3
  8
0
 10
59.0
 20
129.0
 30
0.0
 11
59.0
 21
137.0
 31
0.0
  0
LINE
 62
3
  8
0
 10
59.0
 20
139.0
 30
0.0
 11
59.0
 21
142.0
 31
0.0
  0
LINE
 62
3
  8
0
 10
63.0
 20
102.0
 30
0.0
 11
63.0
 21
107.0
 31
0.0
  0
LINE
 62
3
  8
0
 10
63.0
 20
109.0
 30
0.0
 11
63.0
 21
117.0
 31
0.0
  0
LINE
 62
3
  8
0
 10
63.0
 20
119.0
 30
0.0
 11
63.0
 21
127.0
 31
0.0
  0
LINE
 62
3
  8
0
 10
63.0
 20
129.0
 30
0.0
 11
63.0
 21
137.0
 31
0.0
  0
LINE
 62
3
  8
0
 10
63.0
 20
139.0
 30
0.0
 11
63.0
 21
142.0
 31
0.0
  0
LINE
 62
3
  8
0
 10
67.0
 20
102.0
 30
0.0
 11
67.0
 21
107.0
 31
0.0
  0
LINE
 62
3
  8
0
 10
67.0
 20
109.0
 30
0.0
 11
67.0
 21
117.0
 31
0.0
  0
LINE
 62
3
  8
0
 10
67.0
 20
119.0
 30
0.0
 11
67.0
 21
127.0
 31
0.0
  0
LINE
 62
3
  8
0
 10
67.0
 20
129.0
 30
0.0
 11
67.0
 21
137.0
 31
0.0
  0
LINE
 62
3
  8
0
 10
67.0
 20
139.0
 30
0.0
 11
67.0
 21
142.0
 31
0.0
  0
LINE
 62
3
  8
0
 10
71.0
 20
102.0
 30
0.0
 11
71.0
 21
107.0
 31
0.0
  0
LINE
 62
3
  8
0
 10
71.0
 20
109.0
 30
0.0
 11
71.0
 21
117.0
 31
0.0
  0
LINE
 62
3
  8
0
 10
71.0
 20
119.0
 30
0.0
 11
71.0
 21
127.0
 31
0.0
  0
LINE
 62
3
  8
0
 10
71.0
 20
129.0
 30
0.0
 11
71.0
 21
137.0
 31
0.0
  0
LINE
 62
3
  8
0
 10
71.0
 20
139.0
 30
0.0
 11
71.0
 21
142.0
 31
0.0
  0
LINE
 62
3
  8
0
 10
75.0
 20
102.0
 30
0.0
 11
75.0
 21
107.0
 31
0.0
  0
LINE
 62
3
  8
0
 10
75.0
 20
109.0
 30
0.0
 11
75.0
 21
117.0
 31
0.0
  0
LINE
 62
3
  8
0
 10
75.0
 20
119.0
 30
0.0
 11
75.0
 21
127.0
 31
0.0
  0
LINE
 62
3
  8
0
 10
75.0
 20
129.0
 30
0.0
 11
75.0
 21
137.0
 31
0.0
  0
LINE
 62
3
  8
0
 10
75.0
 20
139.0
 30
0.0
 11
75.0
 21
142.0
 31
0.0
  0
LINE
 62
3
  8
0
 10
79.0
 20
102.0
 30
0.0
 11
79.0
 21
107.0
 31
0.0
  0
LINE
 62
3
  8
0
 10
79.0
 20
109.0
 30
0.0
 11
79.0
 21
117.0
 31
0.0
  0
LINE
 62
3
  8
0
 10
79.0
 20
119.0
 30
0.0
 11
79.0
 21
127.0
 31
0.0
  0
LINE
 62
3
  8
0
 10
79.0
 20
129.0
 30
0.0
 11
79.0
 21
137.0
 31
0.0
  0
LINE
 62
3
  8
0
 10
79.0
 20
139.0
 30
0.0
 11
79.0
 21
142.0
 31
0.0
  0
LINE
 62
3
  8
0
 10
83.0
 20
102.0
 30
0.0
 11
83.0
 21
107.0
 31
0.0
  0
LINE
 62
3
  8
0
 10
83.0
 20
109.0
 30
0.0
 11
83.0
 21
117.0
 31
0.0
  0
LINE
 62
3
  8
0
 10
83.0
 20
119.0
 30
0.0
 11
83.0
 21
127.0
 31
0.0
  0
LINE
 62
3
  8
0
 10
83.0
 20
129.0
 30
0.0
 11
83.0
 21
137.0
 31
0.0
  0
LINE
 62
3
  8
0
 10
83.0
 20
139.0
 30
0.0
 11
83.0
 21
142.0
 31
0.0
  0
LINE
 62
3
  8
0
 10
37.0
 20
104.0
 30
0.0
 11
37.0
 21
112.0
 31
0.0
  0
LINE
 62
3
  8
0
 10
37.0
 20
114.0
 30
0.0
 11
37.0
 21
122.0
 31
0.0
  0
LINE
 62
3
  8
0
 10
37.0
 20
124.0
 30
0.0
 11
37.0
 21
132.0
 31
0.0
  0
LINE
 62
3
  8
0
 10
37.0
 20
134.0
 30
0.0
 11
37.0
 21
140.0
 31
0.0
  0
LINE
 62
3
  8
0
 10
41.0
 20
104.0
 30
0.0
 11
41.0
 21
112.0
 31
0.0
  0
LINE
 62
3
  8
0
 10
41.0
 20
114.0
 30
0.0
 11
41.0
 21
122.0
 31
0.0
  0
LINE
 62
3
  8
0
 10
41.0
 20
124.0
 30
0.0
 11
41.0
 21
132.0
 31
0.0
  0
LINE
 62
3
  8
0
 10
41.0
 20
134.0
 30
0.0
 11
41.0
 21
140.0
 31
0.0
  0
LINE
 62
3
  8
0
 10
45.0
 20
104.0
 30
0.0
 11
45.0
 21
112.0
 31
0.0
  0
LINE
 62
3
  8
0
 10
45.0
 20
114.0
 30
0.0
 11
45.0
 21
122.0
 31
0.0
  0
LINE
 62
3
  8
0
 10
45.0
 20
124.0
 30
0.0
 11
45.0
 21
132.0
 31
0.0
  0
LINE
 62
3
  8
0
 10
45.0
 20
134.0
 30
0.0
 11
45.0
 21
140.0
 31
0.0
  0
LINE
 62
3
  8
0
 10
49.0
 20
104.0
 30
0.0
 11
49.0
 21
112.0
 31
0.0
  0
LINE
 62
3
  8
0
 10
49.0
 20
114.0
 30
0.0
 11
49.0
 21
122.0
 31
0.0
  0
LINE
 62
3
  8
0
 10
49.0
 20
124.0
 30
0.0
 11
49.0
 21
132.0
 31
0.0
  0
LINE
 62
3
  8
0
 10
49.0
 20
134.0
 30
0.0
 11
49.0
 21
140.0
 31
0.0
  0
LINE
 62
3
  8
0
 10
53.0
 20
104.0
 30
0.0
 11
53.0
 21
112.0
 31
0.0
  0
LINE
 62
3
  8
0
 10
53.0
 20
114.0
 30
0.0
 11
53.0
 21
122.0
 31
0.0
  0
LINE
 62
3
  8
0
 10
53.0
 20
124.0
 30
0.0
 11
53.0
 21
132.0
 31
0.0
  0
LINE
 62
3
  8
0
 10
53.0
 20
134.0
 30
0.0
 11
53.0
 21
140.0
 31
0.0
  0
LINE
 62
3
  8
0
 10
57.0
 20
104.0
 30
0.0
 11
57.0
 21
112.0
 31
0.0
  0
LINE
 62
3
  8
0
 10
57.0
 20
114.0
 30
0.0
 11
57.0
 21
122.0
 31
0.0
  0
LINE
 62
3
  8
0
 10
57.0
 20
124.0
 30
0.0
 11
57.0
 21
132.0
 31
0.0
  0
LINE
 62
3
  8
0
 10
57.0
 20
134.0
 30
0.0
 11
57.0
 21
140.0
 31
0.0
  0
LINE
 62
3
  8
0
 10
61.0
 20
104.0
 30
0.0
 11
61.0
 21
112.0
 31
0.0
  0
LINE
 62
3
  8
0
 10
61.0
 20
114.0
 30
0.0
 11
61.0
 21
122.0
 31
0.0
  0
LINE
 62
3
  8
0
 10
61.0
 20
124.0
 30
0.0
 11
61.0
 21
132.0
 31
0.0
  0
LINE
 62
3
  8
0
 10
61.0
 20
134.0
 30
0.0
 11
61.0
 21
140.0
 31
0.0
  0
LINE
 62
3
  8
0
 10
65.0
 20
104.0
 30
0.0
 11
65.0
 21
112.0
 31
0.0
  0
LINE
 62
3
  8
0
 10
65.0
 20
114.0
 30
0.0
 11
65.0
 21
122.0
 31
0.0
  0
LINE
 62
3
  8
0
 10
65.0
 20
124.0
 30
0.0
 11
65.0
 21
132.0
 31
0.0
  0
LINE
 62
3
  8
0
 10
65.0
 20
134.0
 30
0.0
 11
65.0
 21
140.0
 31
0.0
  0
LINE
 62
3
  8
0
 10
69.0
 20
104.0
 30
0.0
 11
69.0
 21
112.0
 31
0.0
  0
LINE
 62
3
  8
0
 10
69.0
 20
114.0
 30
0.0
 11
69.0
 21
122.0
 31
0.0
  0
LINE
 62
3
  8
0
 10
69.0
 20
124.0
 30
0.0
 11
69.0
 21
132.0
 31
0.0
  0
LINE
 62
3
  8
0
 10
69.0
 20
134.0
 30
0.0
 11
69.0
 21
140.0
 31
0.0
  0
LINE
 62
3
  8
0
 10
73.0
 20
104.0
 30
0.0
 11
73.0
 21
112.0
 31
0.0
  0
LINE
 62
3
  8
0
 10
73.0
 20
114.0
 30
0.0
 11
73.0
 21
122.0
 31
0.0
  0
LINE
 62
3
  8
0
 10
73.0
 20
124.0
 30
0.0
 11
73.0
 21
132.0
 31
0.0
  0
LINE
 62
3
  8
0
 10
73.0
 20
134.0
 30
0.0
 11
73.0
 21
140.0
 31
0.0
  0
LINE
 62
3
  8
0
 10
77.0
 20
104.0
 30
0.0
 11
77.0
 21
112.0
 31
0.0
  0
LINE
 62
3
  8
0
 10
77.0
 20
114.0
 30
0.0
 11
77.0
 21
122.0
 31
0.0
  0
LINE
 62
3
  8
0
 10
77.0
 20
124.0
 30
0.0
 11
77.0
 21
132.0
 31
0.0
  0
LINE
 62
3
  8
0
 10
77.0
 20
134.0
 30
0.0
 11
77.0
 21
140.0
 31
0.0
  0
LINE
 62
3
  8
0
 10
81.0
 20
104.0
 30
0.0
 11
81.0
 21
112.0
 31
0.0
  0
LINE
 62
3
  8
0
 10
81.0
 20
114.0
 30
0.0
 11
81.0
 21
122.0
 31
0.0
  0
LINE
 62
3
  8
0
 10
81.0
 20
124.0
 30
0.0
 11
81.0
 21
132.0
 31
0.0
  0
LINE
 62
3
  8
0
 10
81.0
 20
134.0
 30
0.0
 11
81.0
 21
140.0
 31
0.0
  0
TEXT
 62
3
  8
0
 10
12.0
 20
112.0
 30
0.0
 40
3.0
  1
pitch 2.0
 50
0.0
 41
1.0
 51
0.0
  7
STANDARD
 71
0
 72
0
 73
3
 11
12.0
 21
112.0
 31
0.0
  0
LINE
 62
3
  8
0
 10
10.0
 20
143.0
 30
0.0
 11
110.0
 21
143.0
 31
0.0
  0
LINE
 62
3
  8
0
 10
110.0
 20
143.0
 30
0.0
 11
110.0
 21
183.0
 31
0.0
  0
LINE
 62
3
  8
0
 10
110.0
 20
183.0
 30
0.0
 11
10.0
 21
183.0
 31
0.0
  0
LINE
 62
3
  8
0
 10
10.0
 20
183.0
 30
0.0
 11
10.0
 21
143.0
 31
0.0
  0
LINE
 62
3
  8
0
 10
35.0
 20
143.0
 30
0.0
 11
35.0
 21
148.0
 31
0.0
  0
LINE
 62
3
  8
0
 10
35.0
 20
150.0
 30
0.0
 11
35.0
 21
158.0
 31
0.0
  0
LINE
 62
3
  8
0
 10
35.0
 20
160.0
 30
0.0
 11
35.0
 21
168.0
 31
0.0
  0
LINE
 62
3
  8
0
 10
35.0
 20
170.0
 30
0.0
 11
35.0
 21
178.0
 31
0.0
  0
LINE
 62
3
  8
0
 10
35.0
 20
180.0
 30
0.0
 11
35.0
 21
183.0
 31
0.0
  0
LINE
 62
3
  8
0
 10
40.0
 20
143.0
 30
0.0
 11
40.0
 21
148.0
 31
0.0
  0
LINE
 62
3
  8
0
 10
40.0
 20
150.0
 30
0.0
 11
40.0
 21
158.0
 31
0.0
  0
LINE
 62
3
  8
0
 10
40.0
 20
160.0
 30
0.0
 11
40.0
 21
168.0
 31
0.0
  0
LINE
 62
3
  8
0
 10
40.0
 20
170.0
 30
0.0
 11
40.0
 21
178.0
 31
0.0
  0
LINE
 62
3
  8
0
 10
40.0
 20
180.0
 30
0.0
 11
40.0
 21
183.0
 31
0.0
  0
LINE
 62
3
  8
0
 10
45.0
 20
143.0
 30
0.0
 11
45.0
 21
148.0
 31
0.0
  0
LINE
 62
3
  8
0
 10
45.0
 20
150.0
 30
0.0
 11
45.0
 21
158.0
 31
0.0
  0
LINE
 62
3
  8
0
 10
45.0
 20
160.0
 30
0.0
 11
45.0
 21
168.0
 31
0.0
  0
LINE
 62
3
  8
0
 10
45.0
 20
170.0
 30
0.0
 11
45.0
 21
178.0
 31
0.0
  0
LINE
 62
3
  8
0
 10
45.0
 20
180.0
 30
0.0
 11
45.0
 21
183.0
 31
0.0
  0
LINE
 62
3
  8
0
 10
50.0
 20
143.0
 30
0.0
 11
50.0
 21
148.0
 31
0.0
  0
LINE
 62
3
  8
0
 10
50.0
 20
150.0
 30
0.0
 11
50.0
 21
158.0
 31
0.0
  0
LINE
 62
3
  8
0
 10
50.0
 20
160.0
 30
0.0
 11
50.0
 21
168.0
 31
0.0
  0
LINE
 62
3
  8
0
 10
50.0
 20
170.0
 30
0.0
 11
50.0
 21
178.0
 31
0.0
  0
LINE
 62
3
  8
0
 10
50.0
 20
180.0
 30
0.0
 11
50.0
 21
183.0
 31
0.0
  0
LINE
 62
3
  8
0
 10
55.0
 20
143.0
 30
0.0
 11
55.0
 21
148.0
 31
0.0
  0
LINE
 62
3
  8
0
 10
55.0
 20
150.0
 30
0.0
 11
55.0
 21
158.0
 31
0.0
  0
LINE
 62
3
  8
0
 10
55.0
 20
160.0
 30
0.0
 11
55.0
 21
168.0
 31
0.0
  0
LINE
 62
3
  8
0
 10
55.0
 20
170.0
 30
0.0
 11
55.0
 21
178.0
 31
0.0
  0
LINE
 62
3
  8
0
 10
55.0
 20
180.0
 30
0.0
 11
55.0
 21
183.0
 31
0.0
  0
LINE
 62
3
  8
0
 10
60.0
 20
143.0
 30
0.0
 11
60.0
 21
148.0
 31
0.0
  0
LINE
 62
3
  8
0
 10
60.0
 20
150.0
 30
0.0
 11
60.0
 21
158.0
 31
0.0
  0
LINE
 62
3
  8
0
 10
60.0
 20
160.0
 30
0.0
 11
60.0
 21
168.0
 31
0.0
  0
LINE
 62
3
  8
0
 10
60.0
 20
170.0
 30
0.0
 11
60.0
 21
178.0
 31
0.0
  0
LINE
 62
3
  8
0
 10
60.0
 20
180.0
 30
0.0
 11
60.0
 21
183.0
 31
0.0
  0
LINE
 62
3
  8
0
 10
65.0
 20
143.0
 30
0.0
 11
65.0
 21
148.0
 31
0.0
  0
LINE
 62
3
  8
0
 10
65.0
 20
150.0
 30
0.0
 11
65.0
 21
158.0
 31
0.0
  0
LINE
 62
3
  8
0
 10
65.0
 20
160.0
 30
0.0
 11
65.0
 21
168.0
 31
0.0
  0
LINE
 62
3
  8
0
 10
65.0
 20
170.0
 30
0.0
 11
65.0
 21
178.0
 31
0.0
  0
LINE
 62
3
  8
0
 10
65.0
 20
180.0
 30
0.0
 11
65.0
 21
183.0
 31
0.0
  0
LINE
 62
3
  8
0
 10
70.0
 20
143.0
 30
0.0
 11
70.0
 21
148.0
 31
0.0
  0
LINE
 62
3
  8
0
 10
70.0
 20
150.0
 30
0.0
 11
70.0
 21
158.0
 31
0.0
  0
LINE
 62
3
  8
0
 10
70.0
 20
160.0
 30
0.0
 11
70.0
 21
168.0
 31
0.0
  0
LINE
 62
3
  8
0
 10
70.0
 20
170.0
 30
0.0
 11
70.0
 21
178.0
 31
0.0
  0
LINE
 62
3
  8
0
 10
70.0
 20
180.0
 30
0.0
 11
70.0
 21
183.0
 31
0.0
  0
LINE
 62
3
  8
0
 10
75.0
 20
143.0
 30
0.0
 11
75.0
 21
148.0
 31
0.0
  0
LINE
 62
3
  8
0
 10
75.0
 20
150.0
 30
0.0
 11
75.0
 21
158.0
 31
0.0
  0
LINE
 62
3
  8
0
 10
75.0
 20
160.0
 30
0.0
 11
75.0
 21
168.0
 31
0.0
  0
LINE
 62
3
  8
0
 10
75.0
 20
170.0
 30
0.0
 11
75.0
 21
178.0
 31
0.0
  0
LINE
 62
3
  8
0
 10
75.0
 20
180.0
 30
0.0
 11
75.0
 21
183.0
 31
0.0
  0
LINE
 62
3
  8
0
 10
80.0
 20
143.0
 30
0.0
 11
80.0
 21
148.0
 31
0.0
  0
LINE
 62
3
  8
0
 10
80.0
 20
150.0
 30
0.0
 11
80.0
 21
158.0
 31
0.0
  0
LINE
 62
3
  8
0
 10
80.0
 20
160.0
 30
0.0
 11
80.0
 21
168.0
 31
0.0
  0
LINE
 62
3
  8
0
 10
80.0
 20
170.0
 30
0.0
 11
80.0
 21
178.0
 31
0.0
  0
LINE
 62
3
  8
0
 10
80.0
 20
180.0
 30
0.0
 11
80.0
 21
183.0
 31
0.0
  0
LINE
 62
3
  8
0
 10
37.5
 20
145.0
 30
0.0
 11
37.5
 21
153.0
 31
0.0
  0
LINE
 62
3
  8
0
 10
37.5
 20
155.0
 30
0.0
 11
37.5
 21
163.0
 31
0.0
  0
LINE
 62
3
  8
0
 10
37.5
 20
165.0
 30
0.0
 11
37.5
 21
173.0
 31
0.0
  0
LINE
 62
3
  8
0
 10
37.5
 20
175.0
 30
0.0
 11
37.5
 21
181.0
 31
0.0
  0
LINE
 62
3
  8
0
 10
42.5
 20
145.0
 30
0.0
 11
42.5
 21
153.0
 31
0.0
  0
LINE
 62
3
  8
0
 10
42.5
 20
155.0
 30
0.0
 11
42.5
 21
163.0
 31
0.0
  0
LINE
 62
3
  8
0
 10
42.5
 20
165.0
 30
0.0
 11
42.5
 21
173.0
 31
0.0
  0
LINE
 62
3
  8
0
 10
42.5
 20
175.0
 30
0.0
 11
42.5
 21
181.0
 31
0.0
  0
LINE
 62
3
  8
0
 10
47.5
 20
145.0
 30
0.0
 11
47.5
 21
153.0
 31
0.0
  0
LINE
 62
3
  8
0
 10
47.5
 20
155.0
 30
0.0
 11
47.5
 21
163.0
 31
0.0
  0
LINE
 62
3
  8
0
 10
47.5
 20
165.0
 30
0.0
 11
47.5
 21
173.0
 31
0.0
  0
LINE
 62
3
  8
0
 10
47.5
 20
175.0
 30
0.0
 11
47.5
 21
181.0
 31
0.0
  0
LINE
 62
3
  8
0
 10
52.5
 20
145.0
 30
0.0
 11
52.5
 21
153.0
 31
0.0
  0
LINE
 62
3
  8
0
 10
52.5
 20
155.0
 30
0.0
 11
52.5
 21
163.0
 31
0.0
  0
LINE
 62
3
  8
0
 10
52.5
 20
165.0
 30
0.0
 11
52.5
 21
173.0
 31
0.0
  0
LINE
 62
3
  8
0
 10
52.5
 20
175.0
 30
0.0
 11
52.5
 21
181.0
 31
0.0
  0
LINE
 62
3
  8
0
 10
57.5
 20
145.0
 30
0.0
 11
57.5
 21
153.0
 31
0.0
  0
LINE
 62
3
  8
0
 10
57.5
 20
155.0
 30
0.0
 11
57.5
 21
163.0
 31
0.0
  0
LINE
 62
3
  8
0
 10
57.5
 20
165.0
 30
0.0
 11
57.5
 21
173.0
 31
0.0
  0
LINE
 62
3
  8
0
 10
57.5
 20
175.0
 30
0.0
 11
57.5
 21
181.0
 31
0.0
  0
LINE
 62
3
  8
0
 10
62.5
 20
145.0
 30
0.0
 11
62.5
 21
153.0
 31
0.0
  0
LINE
 62
3
  8
0
 10
62.5
 20
155.0
 30
0.0
 11
62.5
 21
163.0
 31
0.0
  0
LINE
 62
3
  8
0
 10
62.5
 20
165.0
 30
0.0
 11
62.5
 21
173.0
 31
0.0
  0
LINE
 62
3
  8
0
 10
62.5
 20
175.0
 30
0.0
 11
62.5
 21
181.0
 31
0.0
  0
LINE
 62
3
  8
0
 10
67.5
 20
145.0
 30
0.0
 11
67.5
 21
153.0
 31
0.0
  0
LINE
 62
3
  8
0
 10
67.5
 20
155.0
 30
0.0
 11
67.5
 21
163.0
 31
0.0
  0
LINE
 62
3
  8
0
 10
67.5
 20
165.0
 30
0.0
 11
67.5
 21
173.0
 31
0.0
  0
LINE
 62
3
  8
0
 10
67.5
 20
175.0
 30
0.0
 11
67.5
 21
181.0
 31
0.0
  0
LINE
 62
3
  8
0
 10
72.5
 20
145.0
 30
0.0
 11
72.5
 21
153.0
 31
0.0
  0
LINE
 62
3
  8
0
 10
72.5
 20
155.0
 30
0.0
 11
72.5
 21
163.0
 31
0.0
  0
LINE
 62
3
  8
0
 10
72.5
 20
165.0
 30
0.0
 11
72.5
 21
173.0
 31
0.0
  0
LINE
 62
3
  8
0
 10
72.5
 20
175.0
 30
0.0
 11
72.5
 21
181.0
 31
0.0
  0
LINE
 62
3
  8
0
 10
77.5
 20
145.0
 30
0.0
 11
77.5
 21
153.0
 31
0.0
  0
LINE
 62
3
  8
0
 10
77.5
 20
155.0
 30
0.0
 11
77.5
 21
163.0
 31
0.0
  0
LINE
 62
3
  8
0
 10
77.5
 20
165.0
 30
0.0
 11
77.5
 21
173.0
 31
0.0
  0
LINE
 62
3
  8
0
 10
77.5
 20
175.0
 30
0.0
 11
77.5
 21
181.0
 31
0.0
  0
LINE
 62
3
  8
0
 10
82.5
 20
145.0
 30
0.0
 11
82.5
 21
153.0
 31
0.0
  0
LINE
 62
3
  8
0
 10
82.5
 20
155.0
 30
0.0
 11
82.5
 21
163.0
 31
0.0
  0
LINE
 62
3
  8
0
 10
82.5
 20
165.0
 30
0.0
 11
82.5
 21
173.0
 31
0.0
  0
LINE
 62
3
  8
0
 10
82.5
 20
175.0
 30
0.0
 11
82.5
 21
181.0
 31
0.0
  0
TEXT
 62
3
  8
0
 10
12.0
 20
153.0
 30
0.0
 40
3.0
  1
pitch 2.5
 50
0.0
 41
1.0
 51
0.0
  7
STANDARD
 71
0
 72
0
 73
3
 11
12.0
 21
153.0
 31
0.0
  0
LINE
 62
3
  8
0
 10
10.0
 20
184.0
 30
0.0
 11
110.0
 21
184.0
 31
0.0
  0
LINE
 62
3
  8
0
 10
110.0
 20
184.0
 30
0.0
 11
110.0
 21
224.0
 31
0.0
  0
LINE
 62
3
  8
0
 10
110.0
 20
224.0
 30
0.0
 11
10.0
 21
224.0
 31
0.0
  0
LINE
 62
3
  8
0
 10
10.0
 20
224.0
 30
0.0
 11
10.0
 21
184.0
 31
0.0
  0
LINE
 62
3
  8
0
 10
35.0
 20
184.0
 30
0.0
 11
35.0
 21
189.0
 31
0.0
  0
LINE
 62
3
  8
0
 10
35.0
 20
191.0
 30
0.0
 11
35.0
 21
199.0
 31
0.0
  0
LINE
 62
3
  8
0
 10
35.0
 20
201.0
 30
0.0
 11
35.0
 21
209.0
 31
0.0
  0
LINE
 62
3
  8
0
 10
35.0
 20
211.0
 30
0.0
 11
35.0
 21
219.0
 31
0.0
  0
LINE
 62
3
  8
0
 10
35.0
 20
221.0
 30
0.0
 11
35.0
 21
224.0
 31
0.0
  0
LINE
 62
3
  8
0
 10
41.0
 20
184.0
 30
0.0
 11
41.0
 21
189.0
 31
0.0
  0
LINE
 62
3
  8
0
 10
41.0
 20
191.0
 30
0.0
 11
41.0
 21
199.0
 31
0.0
  0
LINE
 62
3
  8
0
 10
41.0
 20
201.0
 30
0.0
 11
41.0
 21
209.0
 31
0.0
  0
LINE
 62
3
  8
0
 10
41.0
 20
211.0
 30
0.0
 11
41.0
 21
219.0
 31
0.0
  0
LINE
 62
3
  8
0
 10
41.0
 20
221.0
 30
0.0
 11
41.0
 21
224.0
 31
0.0
  0
LINE
 62
3
  8
0
 10
47.0
 20
184.0
 30
0.0
 11
47.0
 21
189.0
 31
0.0
  0
LINE
 62
3
  8
0
 10
47.0
 20
191.0
 30
0.0
 11
47.0
 21
199.0
 31
0.0
  0
LINE
 62
3
  8
0
 10
47.0
 20
201.0
 30
0.0
 11
47.0
 21
209.0
 31
0.0
  0
LINE
 62
3
  8
0
 10
47.0
 20
211.0
 30
0.0
 11
47.0
 21
219.0
 31
0.0
  0
LINE
 62
3
  8
0
 10
47.0
 20
221.0
 30
0.0
 11
47.0
 21
224.0
 31
0.0
  0
LINE
 62
3
  8
0
 10
53.0
 20
184.0
 30
0.0
 11
53.0
 21
189.0
 31
0.0
  0
LINE
 62
3
  8
0
 10
53.0
 20
191.0
 30
0.0
 11
53.0
 21
199.0
 31
0.0
  0
LINE
 62
3
  8
0
 10
53.0
 20
201.0
 30
0.0
 11
53.0
 21
209.0
 31
0.0
  0
LINE
 62
3
  8
0
 10
53.0
 20
211.0
 30
0.0
 11
53.0
 21
219.0
 31
0.0
  0
LINE
 62
3
  8
0
 10
53.0
 20
221.0
 30
0.0
 11
53.0
 21
224.0
 31
0.0
  0
LINE
 62
3
  8
0
 10
59.0
 20
184.0
 30
0.0
 11
59.0
 21
189.0
 31
0.0
  0
LINE
 62
3
  8
0
 10
59.0
 20
191.0
 30
0.0
 11
59.0
 21
199.0
 31
0.0
  0
LINE
 62
3
  8
0
 10
59.0
 20
201.0
 30
0.0
 11
59.0
 21
209.0
 31
0.0
  0
LINE
 62
3
  8
0
 10
59.0
 20
211.0
 30
0.0
 11
59.0
 21
219.0
 31
0.0
  0
LINE
 62
3
  8
0
 10
59.0
 20
221.0
 30
0.0
 11
59.0
 21
224.0
 31
0.0
  0
LINE
 62
3
  8
0
 10
65.0
 20
184.0
 30
0.0
 11
65.0
 21
189.0
 31
0.0
  0
LINE
 62
3
  8
0
 10
65.0
 20
191.0
 30
0.0
 11
65.0
 21
199.0
 31
0.0
  0
LINE
 62
3
  8
0
 10
65.0
 20
201.0
 30
0.0
 11
65.0
 21
209.0
 31
0.0
  0
LINE
 62
3
  8
0
 10
65.0
 20
211.0
 30
0.0
 11
65.0
 21
219.0
 31
0.0
  0
LINE
 62
3
  8
0
 10
65.0
 20
221.0
 30
0.0
 11
65.0
 21
224.0
 31
0.0
  0
LINE
 62
3
  8
0
 10
71.0
 20
184.0
 30
0.0
 11
71.0
 21
189.0
 31
0.0
  0
LINE
 62
3
  8
0
 10
71.0
 20
191.0
 30
0.0
 11
71.0
 21
199.0
 31
0.0
  0
LINE
 62
3
  8
0
 10
71.0
 20
201.0
 30
0.0
 11
71.0
 21
209.0
 31
0.0
  0
LINE
 62
3
  8
0
 10
71.0
 20
211.0
 30
0.0
 11
71.0
 21
219.0
 31
0.0
  0
LINE
 62
3
  8
0
 10
71.0
 20
221.0
 30
0.0
 11
71.0
 21
224.0
 31
0.0
  0
LINE
 62
3
  8
0
 10
77.0
 20
184.0
 30
0.0
 11
77.0
 21
189.0
 31
0.0
  0
LINE
 62
3
  8
0
 10
77.0
 20
191.0
 30
0.0
 11
77.0
 21
199.0
 31
0.0
  0
LINE
 62
3
  8
0
 10
77.0
 20
201.0
 30
0.0
 11
77.0
 21
209.0
 31
0.0
  0
LINE
 62
3
  8
0
 10
77.0
 20
211.0
 30
0.0
 11
77.0
 21
219.0
 31
0.0
  0
LINE
 62
3
  8
0
 10
77.0
 20
221.0
 30
0.0
 11
77.0
 21
224.0
 31
0.0
  0
LINE
 62
3
  8
0
 10
83.0
 20
184.0
 30
0.0
 11
83.0
 21
189.0
 31
0.0
  0
LINE
 62
3
  8
0
 10
83.0
 20
191.0
 30
0.0
 11
83.0
 21
199.0
 31
0.0
  0
LINE
 62
3
  8
0
 10
83.0
 20
201.0
 30
0.0
 11
83.0
 21
209.0
 31
0.0
  0
LINE
 62
3
  8
0
 10
83.0
 20
211.0
 30
0.0
 11
83.0
 21
219.0
 31
0.0
  0
LINE
 62
3
  8
0
 10
83.0
 20
221.0
 30
0.0
 11
83.0
 21
224.0
 31
0.0
  0
LINE
 62
3
  8
0
 10
38.0
 20
186.0
 30
0.0
 11
38.0
 21
194.0
 31
0.0
  0
LINE
 62
3
  8
0
 10
38.0
 20
196.0
 30
0.0
 11
38.0
 21
204.0
 31
0.0
  0
LINE
 62
3
  8
0
 10
38.0
 20
206.0
 30
0.0
 11
38.0
 21
214.0
 31
0.0
  0
LINE
 62
3
  8
0
 10
38.0
 20
216.0
 30
0.0
 11
38.0
 21
222.0
 31
0.0
  0
LINE
 62
3
  8
0
 10
44.0
 20
186.0
 30
0.0
 11
44.0
 21
194.0
 31
0.0
  0
LINE
 62
3
  8
0
 10
44.0
 20
196.0
 30
0.0
 11
44.0
 21
204.0
 31
0.0
  0
LINE
 62
3
  8
0
 10
44.0
 20
206.0
 30
0.0
 11
44.0
 21
214.0
 31
0.0
  0
LINE
 62
3
  8
0
 10
44.0
 20
216.0
 30
0.0
 11
44.0
 21
222.0
 31
0.0
  0
LINE
 62
3
  8
0
 10
50.0
 20
186.0
 30
0.0
 11
50.0
 21
194.0
 31
0.0
  0
LINE
 62
3
  8
0
 10
50.0
 20
196.0
 30
0.0
 11
50.0
 21
204.0
 31
0.0
  0
LINE
 62
3
  8
0
 10
50.0
 20
206.0
 30
0.0
 11
50.0
 21
214.0
 31
0.0
  0
LINE
 62
3
  8
0
 10
50.0
 20
216.0
 30
0.0
 11
50.0
 21
222.0
 31
0.0
  0
LINE
 62
3
  8
0
 10
56.0
 20
186.0
 30
0.0
 11
56.0
 21
194.0
 31
0.0
  0
LINE
 62
3
  8
0
 10
56.0
 20
196.0
 30
0.0
 11
56.0
 21
204.0
 31
0.0
  0
LINE
 62
3
  8
0
 10
56.0
 20
206.0
 30
0.0
 11
56.0
 21
214.0
 31
0.0
  0
LINE
 62
3
  8
0
 10
56.0
 20
216.0
 30
0.0
 11
56.0
 21
222.0
 31
0.0
  0
LINE
 62
3
  8
0
 10
62.0
 20
186.0
 30
0.0
 11
62.0
 21
194.0
 31
0.0
  0
LINE
 62
3
  8
0
 10
62.0
 20
196.0
 30
0.0
 11
62.0
 21
204.0
 31
0.0
  0
LINE
 62
3
  8
0
 10
62.0
 20
206.0
 30
0.0
 11
62.0
 21
214.0
 31
0.0
  0
LINE
 62
3
  8
0
 10
62.0
 20
216.0
 30
0.0
 11
62.0
 21
222.0
 31
0.0
  0
LINE
 62
3
  8
0
 10
68.0
 20
186.0
 30
0.0
 11
68.0
 21
194.0
 31
0.0
  0
LINE
 62
3
  8
0
 10
68.0
 20
196.0
 30
0.0
 11
68.0
 21
204.0
 31
0.0
  0
LINE
 62
3
  8
0
 10
68.0
 20
206.0
 30
0.0
 11
68.0
 21
214.0
 31
0.0
  0
LINE
 62
3
  8
0
 10
68.0
 20
216.0
 30
0.0
 11
68.0
 21
222.0
 31
0.0
  0
LINE
 62
3
  8
0
 10
74.0
 20
186.0
 30
0.0
 11
74.0
 21
194.0
 31
0.0
  0
LINE
 62
3
  8
0
 10
74.0
 20
196.0
 30
0.0
 11
74.0
 21
204.0
 31
0.0
  0
LINE
 62
3
  8
0
 10
74.0
 20
206.0
 30
0.0
 11
74.0
 21
214.0
 31
0.0
  0
LINE
 62
3
  8
0
 10
74.0
 20
216.0
 30
0.0
 11
74.0
 21
222.0
 31
0.0
  0
LINE
 62
3
  8
0
 10
80.0
 20
186.0
 30
0.0
 11
80.0
 21
194.0
 31
0.0
  0
LINE
 62
3
  8
0
 10
80.0
 20
196.0
 30
0.0
 11
80.0
 21
204.0
 31
0.0
  0
LINE
 62
3
  8
0
 10
80.0
 20
206.0
 30
0.0
 11
80.0
 21
214.0
 31
0.0
  0
LINE
 62
3
  8
0
 10
80.0
 20
216.0
 30
0.0
 11
80.0
 21
222.0
 31
0.0
  0
TEXT
 62
3
  8
0
 10
12.0
 20
194.0
 30
0.0
 40
3.0
  1
pitch 3.0
 50
0.0
 41
1.0
 51
0.0
  7
STANDARD
 71
0
 72
0
 73
3
 11
12.0
 21
194.0
 31
0.0
  0
ENDSEC
  0
EOF
