  0
SECTION
  2
HEADER
  9
$ACADVER
  1
AC1009
  9
$EXTMIN
 10
0.0
 20
0.0
 30
0.0
  9
$EXTMAX
 10
100.0
 20
100.0
 30
0.0
  9
$INSBASE
 10
0.0
 20
0.0
 30
0.0
  0
ENDSEC
  0
SECTION
  2
TABLES
  0
TABLE
  2
LTYPE
 70
19
  0
LTYPE
  2
PHANTOM
 70
0
  3
Phantom ______  __  __  ______  __  __  ______
 72
65
 73
6
 40
2.5
 49
1.25
 49
-0.25
 49
0.25
 49
-0.25
 49
0.25
 49
-0.25
  0
LTYPE
  2
DOT2
 70
0
  3
Dot (.5) . . . . . . . . . . . . . . . . . . . 
 72
65
 73
2
 40
0.1
 49
0.0
 49
-0.1
  0
LTYPE
  2
DIVIDE
 70
0
  3
Divide __ . . __ . . __ . . __ . . __ . . __
 72
65
 73
6
 40
1.6
 49
1.0
 49
-0.2
 49
0.0
 49
-0.2
 49
0.0
 49
-0.2
  0
LTYPE
  2
DIVIDEX2
 70
0
  3
Divide (2x) ____  . .  ____  . .  ____  . .  ____
 72
65
 73
6
 40
2.6
 49
2.0
 49
-0.2
 49
0.0
 49
-0.2
 49
0.0
 49
-0.2
  0
LTYPE
  2
CENTER
 70
0
  3
Center ____ _ ____ _ ____ _ ____ _ ____ _ ____
 72
65
 73
4
 40
2.0
 49
1.25
 49
-0.25
 49
0.25
 49
-0.25
  0
LTYPE
  2
DASHDOT
 70
0
  3
Dash dot __ . __ . __ . __ . __ . __ . __ . __
 72
65
 73
4
 40
1.4
 49
1.0
 49
-0.2
 49
0.0
 49
-0.2
  0
LTYPE
  2
CENTERX2
 70
0
  3
Center (2x) ________  __  ________  __  ________
 72
65
 73
4
 40
3.5
 49
2.5
 49
-0.25
 49
0.5
 49
-0.25
  0
LTYPE
  2
PHANTOMX2
 70
0
  3
Phantom (2x)____________    ____    ____    ____________
 72
65
 73
6
 40
4.25
 49
2.5
 49
-0.25
 49
0.5
 49
-0.25
 49
0.5
 49
-0.25
  0
LTYPE
  2
CONTINUOUS
 70
0
  3
Solid
 72
65
 73
0
 40
0.0
  0
LTYPE
  2
PHANTOM2
 70
0
  3
Phantom (.5x) ___ _ _ ___ _ _ ___ _ _ ___ _ _ ___
 72
65
 73
6
 40
1.25
 49
0.625
 49
-0.125
 49
0.125
 49
-0.125
 49
0.125
 49
-0.125
  0
LTYPE
  2
DASHED
 70
0
  3
Dashed __ __ __ __ __ __ __ __ __ __ __ __ __ _
 72
65
 73
2
 40
0.6
 49
0.5
 49
-0.1
  0
LTYPE
  2
DASHED2
 70
0
  3
Dashed (.5x) _ _ _ _ _ _ _ _ _ _ _ _ _ _
 72
65
 73
2
 40
0.3
 49
0.25
 49
-0.05
  0
LTYPE
  2
DASHDOT2
 70
0
  3
Dash dot (.5x) _ . _ . _ . _ . _ . _ . _ . _
 72
65
 73
4
 40
0.7
 49
0.5
 49
-0.1
 49
0.0
 49
-0.1
  0
LTYPE
  2
DOTX2
 70
0
  3
Dot (2x) .    .    .    .    .    .    .    . 
 72
65
 73
2
 40
0.4
 49
0.0
 49
-0.4
  0
LTYPE
  2
DIVIDE2
 70
0
  3
Divide(.5x) _ . _ . _ . _ . _ . _ . _ . _
 72
65
 73
6
 40
0.8
 49
0.5
 49
-0.1
 49
0.0
 49
-0.1
 49
0.0
 49
-0.1
  0
LTYPE
  2
CENTER2
 70
0
  3
Center (.5x) ____ _ ____ _ ____ _ ____ _ ____
 72
65
 73
4
 40
1.0
 49
0.625
 49
-0.125
 49
0.125
 49
-0.125
  0
LTYPE
  2
DASHDOTX2
 70
0
  3
Dash dot (2x) ____  .  ____  .  ____  .  ____
 72
65
 73
4
 40
2.4
 49
2.0
 49
-0.2
 49
0.0
 49
-0.2
  0
LTYPE
  2
DOT
 70
0
  3
Dot .  .  .  .  .  .  .  .  .  .  .  .  .  .  .  .
 72
65
 73
2
 40
0.2
 49
0.0
 49
-0.2
  0
LTYPE
  2
DASHEDX2
 70
0
  3
Dashed (2x) ____  ____  ____  ____  ____  ____
 72
65
 73
2
 40
1.2
 49
1.0
 49
-0.2
  0
ENDTAB
  0
TABLE
  2
LAYER
 70
5
  0
LAYER
  2
VIEWPORTS
 70
0
 62
7
  6
CONTINUOUS
  0
LAYER
  2
TABLEGRID
 70
0
 62
1
  6
CONTINUOUS
  0
LAYER
  2
TABLECONTENT
 70
0
 62
1
  6
CONTINUOUS
  0
LAYER
  2
DIMENSIONS
 70
0
 62
1
  6
CONTINUOUS
  0
LAYER
  2
TABLEBACKGROUND
 70
0
 62
1
  6
CONTINUOUS
  0
ENDTAB
  0
TABLE
  2
STYLE
 70
12
  0
STYLE
  2
TIMES
 70
0
 40
0.0
 41
1.0
 42
1.0
 50
0.0
 71
0
  3
times.ttf
  4

  0
STYLE
  2
ARIAL
 70
0
 40
0.0
 41
1.0
 42
1.0
 50
0.0
 71
0
  3
arial.ttf
  4

  0
STYLE
  2
TIMES_BOLD
 70
0
 40
0.0
 41
1.0
 42
1.0
 50
0.0
 71
0
  3
timesbd.ttf
  4

  0
STYLE
  2
ARIAL_BLACK
 70
0
 40
0.0
 41
1.0
 42
1.0
 50
0.0
 71
0
  3
ariblk.ttf
  4

  0
STYLE
  2
TIMES_ITALIC
 70
0
 40
0.0
 41
1.0
 42
1.0
 50
0.0
 71
0
  3
timesi.ttf
  4

  0
STYLE
  2
ISOCPEUR
 70
0
 40
0.0
 41
1.0
 42
1.0
 50
0.0
 71
0
  3
isocpeur.ttf
  4

  0
STYLE
  2
ARIAL_BOLD
 70
0
 40
0.0
 41
1.0
 42
1.0
 50
0.0
 71
0
  3
arialbd.ttf
  4

  0
STYLE
  2
ARIAL_ITALIC
 70
0
 40
0.0
 41
1.0
 42
1.0
 50
0.0
 71
0
  3
ariali.ttf
  4

  0
STYLE
  2
ARIAL_BOLD_ITALIC
 70
0
 40
0.0
 41
1.0
 42
1.0
 50
0.0
 71
0
  3
arialbi.ttf
  4

  0
STYLE
  2
TIMES_BOLD_ITALIC
 70
0
 40
0.0
 41
1.0
 42
1.0
 50
0.0
 71
0
  3
timesbi.ttf
  4

  0
STYLE
  2
ISOCPEUR_ITALIC
 70
0
 40
0.0
 41
1.0
 42
1.0
 50
0.0
 71
0
  3
isocpeui.ttf
  4

  0
STYLE
  2
STANDARD
 70
0
 40
0.0
 41
1.0
 42
1.0
 50
0.0
 71
0
  3
arial.ttf
  4

  0
ENDTAB
  0
TABLE
  2
VIEW
 70
0
  0
ENDTAB
  0
TABLE
  2
APPID
 70
1
  0
APPID
  2
DXFWRITE
 70
0
  0
ENDTAB
  0
TABLE
  2
VPORT
 70
0
  0
ENDTAB
  0
TABLE
  2
UCS
 70
0
  0
ENDTAB
  0
ENDSEC
  0
SECTION
  2
BLOCKS
  0
ENDSEC
  0
SECTION
  2
ENTITIES
  0
VIEWPORT
  8
VIEWPORTS
 67
1
 10
0.0
 20
0.0
 30
0.0
 40
1.0
 41
1.0
 68
1
 69
1
1001
ACAD
1000
MVIEW
1002
{
1070
16
1010
0.0
1020
0.0
1030
0.0
1010
0.0
1020
0.0
1030
0.0
1040
0.0
1040
1.0
1040
0.0
1040
0.0
1040
50.0
1040
0.0
1040
0.0
1070
0
1070
100
1070
1
1070
3
1070
0
1070
0
1070
0
1070
0
1040
0.0
1040
0.0
1040
0.0
1040
0.1
1040
0.1
1040
0.1
1040
0.1
1070
0
1002
{
1002
}
1002
}
  0
LINE
 62
3
  8
0
 10
10.0
 20
26.0
 30
0.0
 11
10.0
 21
112.6
 31
0.0
  0
LINE
 62
3
  8
0
 10
13.0
 20
115.6
 30
0.0
 11
77.4
 21
115.6
 31
0.0
  0
LINE
 62
3
  8
0
 10
80.4
 20
112.6
 30
0.0
 11
80.4
 21
26.0
 31
0.0
  0
ARC
 62
3
  8
0
 10
77.4
 20
112.6
 30
0.0
 40
3.0
 50
0.0
 51
90.0
  0
ARC
 62
3
  8
0
 10
13.0
 20
112.6
 30
0.0
 40
3.0
 50
90.0
 51
-180.0
  0
LINE
 62
3
  8
0
 10
32.4666666667
 20
26.0
 30
0.0
 11
38.4666666667
 21
26.0
 31
0.0
  0
LINE
 62
3
  8
0
 10
38.4666666667
 20
26.0
 30
0.0
 11
38.4666666667
 21
29.0
 31
0.0
  0
LINE
 62
3
  8
0
 10
38.4666666667
 20
29.0
 30
0.0
 11
32.4666666667
 21
29.0
 31
0.0
  0
LINE
 62
3
  8
0
 10
32.4666666667
 20
29.0
 30
0.0
 11
32.4666666667
 21
26.0
 31
0.0
  0
LINE
 62
3
  8
0
 10
32.4666666667
 20
109.6
 30
0.0
 11
38.4666666667
 21
109.6
 31
0.0
  0
LINE
 62
3
  8
0
 10
38.4666666667
 20
109.6
 30
0.0
 11
38.4666666667
 21
112.6
 31
0.0
  0
LINE
 62
3
  8
0
 10
38.4666666667
 20
112.6
 30
0.0
 11
32.4666666667
 21
112.6
 31
0.0
  0
LINE
 62
3
  8
0
 10
32.4666666667
 20
112.6
 30
0.0
 11
32.4666666667
 21
109.6
 31
0.0
  0
LINE
 62
3
  8
0
 10
32.4666666667
 20
80.6
 30
0.0
 11
38.4666666667
 21
80.6
 31
0.0
  0
LINE
 62
3
  8
0
 10
38.4666666667
 20
80.6
 30
0.0
 11
38.4666666667
 21
83.6
 31
0.0
  0
LINE
 62
3
  8
0
 10
38.4666666667
 20
83.6
 30
0.0
 11
32.4666666667
 21
83.6
 31
0.0
  0
LINE
 62
3
  8
0
 10
32.4666666667
 20
83.6
 30
0.0
 11
32.4666666667
 21
80.6
 31
0.0
  0
LINE
 62
3
  8
0
 10
51.9333333333
 20
26.0
 30
0.0
 11
57.9333333333
 21
26.0
 31
0.0
  0
LINE
 62
3
  8
0
 10
57.9333333333
 20
26.0
 30
0.0
 11
57.9333333333
 21
29.0
 31
0.0
  0
LINE
 62
3
  8
0
 10
57.9333333333
 20
29.0
 30
0.0
 11
51.9333333333
 21
29.0
 31
0.0
  0
LINE
 62
3
  8
0
 10
51.9333333333
 20
29.0
 30
0.0
 11
51.9333333333
 21
26.0
 31
0.0
  0
LINE
 62
3
  8
0
 10
51.9333333333
 20
109.6
 30
0.0
 11
57.9333333333
 21
109.6
 31
0.0
  0
LINE
 62
3
  8
0
 10
57.9333333333
 20
109.6
 30
0.0
 11
57.9333333333
 21
112.6
 31
0.0
  0
LINE
 62
3
  8
0
 10
57.9333333333
 20
112.6
 30
0.0
 11
51.9333333333
 21
112.6
 31
0.0
  0
LINE
 62
3
  8
0
 10
51.9333333333
 20
112.6
 30
0.0
 11
51.9333333333
 21
109.6
 31
0.0
  0
LINE
 62
3
  8
0
 10
51.9333333333
 20
80.6
 30
0.0
 11
57.9333333333
 21
80.6
 31
0.0
  0
LINE
 62
3
  8
0
 10
57.9333333333
 20
80.6
 30
0.0
 11
57.9333333333
 21
83.6
 31
0.0
  0
LINE
 62
3
  8
0
 10
57.9333333333
 20
83.6
 30
0.0
 11
51.9333333333
 21
83.6
 31
0.0
  0
LINE
 62
3
  8
0
 10
51.9333333333
 20
83.6
 30
0.0
 11
51.9333333333
 21
80.6
 31
0.0
  0
LINE
 62
3
  8
0
 10
13.0
 20
42.5333333333
 30
0.0
 11
16.0
 21
42.5333333333
 31
0.0
  0
LINE
 62
3
  8
0
 10
16.0
 20
42.5333333333
 30
0.0
 11
16.0
 21
48.5333333333
 31
0.0
  0
LINE
 62
3
  8
0
 10
16.0
 20
48.5333333333
 30
0.0
 11
13.0
 21
48.5333333333
 31
0.0
  0
LINE
 62
3
  8
0
 10
13.0
 20
48.5333333333
 30
0.0
 11
13.0
 21
42.5333333333
 31
0.0
  0
LINE
 62
3
  8
0
 10
74.4
 20
42.5333333333
 30
0.0
 11
77.4
 21
42.5333333333
 31
0.0
  0
LINE
 62
3
  8
0
 10
77.4
 20
42.5333333333
 30
0.0
 11
77.4
 21
48.5333333333
 31
0.0
  0
LINE
 62
3
  8
0
 10
77.4
 20
48.5333333333
 30
0.0
 11
74.4
 21
48.5333333333
 31
0.0
  0
LINE
 62
3
  8
0
 10
74.4
 20
48.5333333333
 30
0.0
 11
74.4
 21
42.5333333333
 31
0.0
  0
LINE
 62
3
  8
0
 10
13.0
 20
59.0666666667
 30
0.0
 11
16.0
 21
59.0666666667
 31
0.0
  0
LINE
 62
3
  8
0
 10
16.0
 20
59.0666666667
 30
0.0
 11
16.0
 21
65.0666666667
 31
0.0
  0
LINE
 62
3
  8
0
 10
16.0
 20
65.0666666667
 30
0.0
 11
13.0
 21
65.0666666667
 31
0.0
  0
LINE
 62
3
  8
0
 10
13.0
 20
65.0666666667
 30
0.0
 11
13.0
 21
59.0666666667
 31
0.0
  0
LINE
 62
3
  8
0
 10
74.4
 20
59.0666666667
 30
0.0
 11
77.4
 21
59.0666666667
 31
0.0
  0
LINE
 62
3
  8
0
 10
77.4
 20
59.0666666667
 30
0.0
 11
77.4
 21
65.0666666667
 31
0.0
  0
LINE
 62
3
  8
0
 10
77.4
 20
65.0666666667
 30
0.0
 11
74.4
 21
65.0666666667
 31
0.0
  0
LINE
 62
3
  8
0
 10
74.4
 20
65.0666666667
 30
0.0
 11
74.4
 21
59.0666666667
 31
0.0
  0
LINE
 62
3
  8
0
 10
13.0
 20
83.6
 30
0.0
 11
16.0
 21
83.6
 31
0.0
  0
LINE
 62
3
  8
0
 10
16.0
 20
83.6
 30
0.0
 11
16.0
 21
89.6
 31
0.0
  0
LINE
 62
3
  8
0
 10
16.0
 20
89.6
 30
0.0
 11
13.0
 21
89.6
 31
0.0
  0
LINE
 62
3
  8
0
 10
13.0
 20
89.6
 30
0.0
 11
13.0
 21
83.6
 31
0.0
  0
LINE
 62
3
  8
0
 10
74.4
 20
83.6
 30
0.0
 11
77.4
 21
83.6
 31
0.0
  0
LINE
 62
3
  8
0
 10
77.4
 20
83.6
 30
0.0
 11
77.4
 21
89.6
 31
0.0
  0
LINE
 62
3
  8
0
 10
77.4
 20
89.6
 30
0.0
 11
74.4
 21
89.6
 31
0.0
  0
LINE
 62
3
  8
0
 10
74.4
 20
89.6
 30
0.0
 11
74.4
 21
83.6
 31
0.0
  0
CIRCLE
 62
3
  8
0
 10
14.5
 20
96.6
 30
0.0
 40
1.5
  0
CIRCLE
 62
3
  8
0
 10
75.9
 20
96.6
 30
0.0
 40
1.5
  0
CIRCLE
 62
3
  8
0
 10
14.5
 20
96.6
 30
0.0
 40
1.5
  0
CIRCLE
 62
3
  8
0
 10
75.9
 20
96.6
 30
0.0
 40
1.5
  0
CIRCLE
 62
3
  8
0
 10
14.5
 20
53.8
 30
0.0
 40
1.5
  0
CIRCLE
 62
3
  8
0
 10
75.9
 20
53.8
 30
0.0
 40
1.5
  0
CIRCLE
 62
3
  8
0
 10
14.5
 20
53.8
 30
0.0
 40
1.5
  0
CIRCLE
 62
3
  8
0
 10
75.9
 20
53.8
 30
0.0
 40
1.5
  0
LINE
 62
3
  8
0
 10
10.0
 20
26.0
 30
0.0
 11
10.0
 21
20.0
 31
0.0
  0
LINE
 62
3
  8
0
 10
10.0
 20
20.0
 30
0.0
 11
25.0
 21
20.0
 31
0.0
  0
ARC
 62
3
  8
0
 10
29.0
 20
20.0
 30
0.0
 40
4.0
 50
90.0
 51
180.0
  0
LINE
 62
3
  8
0
 10
80.4
 20
26.0
 30
0.0
 11
80.4
 21
20.0
 31
0.0
  0
LINE
 62
3
  8
0
 10
80.4
 20
20.0
 30
0.0
 11
65.4
 21
20.0
 31
0.0
  0
ARC
 62
3
  8
0
 10
61.4
 20
20.0
 30
0.0
 40
4.0
 50
0.0
 51
90.0
  0
LINE
 62
3
  8
0
 10
29.0
 20
24.0
 30
0.0
 11
61.4
 21
24.0
 31
0.0
  0
CIRCLE
 62
3
  8
0
 10
20.025
 20
34.0
 30
0.0
 40
1.5
  0
CIRCLE
 62
3
  8
0
 10
20.025
 20
75.6
 30
0.0
 40
1.5
  0
CIRCLE
 62
3
  8
0
 10
69.375
 20
75.6
 30
0.0
 40
1.5
  0
CIRCLE
 62
3
  8
0
 10
69.375
 20
34.0
 30
0.0
 40
1.5
  0
ARC
 62
3
  8
0
 10
45.2
 20
93.6
 30
0.0
 40
1.5
 50
0.0
 51
180.0
  0
CIRCLE
 62
3
  8
0
 10
45.2
 20
87.6
 30
0.0
 40
3.0
  0
LINE
 62
3
  8
0
 10
43.7
 20
87.6
 30
0.0
 11
43.7
 21
93.6
 31
0.0
  0
LINE
 62
3
  8
0
 10
46.7
 20
87.6
 30
0.0
 11
46.7
 21
93.6
 31
0.0
  0
LINE
 62
3
  8
0
 10
81.4
 20
26.0
 30
0.0
 11
81.4
 21
112.6
 31
0.0
  0
LINE
 62
3
  8
0
 10
84.4
 20
115.6
 30
0.0
 11
148.8
 21
115.6
 31
0.0
  0
LINE
 62
3
  8
0
 10
151.8
 20
112.6
 30
0.0
 11
151.8
 21
26.0
 31
0.0
  0
ARC
 62
3
  8
0
 10
148.8
 20
112.6
 30
0.0
 40
3.0
 50
0.0
 51
90.0
  0
ARC
 62
3
  8
0
 10
84.4
 20
112.6
 30
0.0
 40
3.0
 50
90.0
 51
-180.0
  0
LINE
 62
3
  8
0
 10
103.866666667
 20
26.0
 30
0.0
 11
109.866666667
 21
26.0
 31
0.0
  0
LINE
 62
3
  8
0
 10
109.866666667
 20
26.0
 30
0.0
 11
109.866666667
 21
29.0
 31
0.0
  0
LINE
 62
3
  8
0
 10
109.866666667
 20
29.0
 30
0.0
 11
103.866666667
 21
29.0
 31
0.0
  0
LINE
 62
3
  8
0
 10
103.866666667
 20
29.0
 30
0.0
 11
103.866666667
 21
26.0
 31
0.0
  0
LINE
 62
3
  8
0
 10
103.866666667
 20
109.6
 30
0.0
 11
109.866666667
 21
109.6
 31
0.0
  0
LINE
 62
3
  8
0
 10
109.866666667
 20
109.6
 30
0.0
 11
109.866666667
 21
112.6
 31
0.0
  0
LINE
 62
3
  8
0
 10
109.866666667
 20
112.6
 30
0.0
 11
103.866666667
 21
112.6
 31
0.0
  0
LINE
 62
3
  8
0
 10
103.866666667
 20
112.6
 30
0.0
 11
103.866666667
 21
109.6
 31
0.0
  0
LINE
 62
3
  8
0
 10
123.333333333
 20
26.0
 30
0.0
 11
129.333333333
 21
26.0
 31
0.0
  0
LINE
 62
3
  8
0
 10
129.333333333
 20
26.0
 30
0.0
 11
129.333333333
 21
29.0
 31
0.0
  0
LINE
 62
3
  8
0
 10
129.333333333
 20
29.0
 30
0.0
 11
123.333333333
 21
29.0
 31
0.0
  0
LINE
 62
3
  8
0
 10
123.333333333
 20
29.0
 30
0.0
 11
123.333333333
 21
26.0
 31
0.0
  0
LINE
 62
3
  8
0
 10
123.333333333
 20
109.6
 30
0.0
 11
129.333333333
 21
109.6
 31
0.0
  0
LINE
 62
3
  8
0
 10
129.333333333
 20
109.6
 30
0.0
 11
129.333333333
 21
112.6
 31
0.0
  0
LINE
 62
3
  8
0
 10
129.333333333
 20
112.6
 30
0.0
 11
123.333333333
 21
112.6
 31
0.0
  0
LINE
 62
3
  8
0
 10
123.333333333
 20
112.6
 30
0.0
 11
123.333333333
 21
109.6
 31
0.0
  0
LINE
 62
3
  8
0
 10
84.4
 20
42.5333333333
 30
0.0
 11
87.4
 21
42.5333333333
 31
0.0
  0
LINE
 62
3
  8
0
 10
87.4
 20
42.5333333333
 30
0.0
 11
87.4
 21
48.5333333333
 31
0.0
  0
LINE
 62
3
  8
0
 10
87.4
 20
48.5333333333
 30
0.0
 11
84.4
 21
48.5333333333
 31
0.0
  0
LINE
 62
3
  8
0
 10
84.4
 20
48.5333333333
 30
0.0
 11
84.4
 21
42.5333333333
 31
0.0
  0
LINE
 62
3
  8
0
 10
145.8
 20
42.5333333333
 30
0.0
 11
148.8
 21
42.5333333333
 31
0.0
  0
LINE
 62
3
  8
0
 10
148.8
 20
42.5333333333
 30
0.0
 11
148.8
 21
48.5333333333
 31
0.0
  0
LINE
 62
3
  8
0
 10
148.8
 20
48.5333333333
 30
0.0
 11
145.8
 21
48.5333333333
 31
0.0
  0
LINE
 62
3
  8
0
 10
145.8
 20
48.5333333333
 30
0.0
 11
145.8
 21
42.5333333333
 31
0.0
  0
LINE
 62
3
  8
0
 10
84.4
 20
59.0666666667
 30
0.0
 11
87.4
 21
59.0666666667
 31
0.0
  0
LINE
 62
3
  8
0
 10
87.4
 20
59.0666666667
 30
0.0
 11
87.4
 21
65.0666666667
 31
0.0
  0
LINE
 62
3
  8
0
 10
87.4
 20
65.0666666667
 30
0.0
 11
84.4
 21
65.0666666667
 31
0.0
  0
LINE
 62
3
  8
0
 10
84.4
 20
65.0666666667
 30
0.0
 11
84.4
 21
59.0666666667
 31
0.0
  0
LINE
 62
3
  8
0
 10
145.8
 20
59.0666666667
 30
0.0
 11
148.8
 21
59.0666666667
 31
0.0
  0
LINE
 62
3
  8
0
 10
148.8
 20
59.0666666667
 30
0.0
 11
148.8
 21
65.0666666667
 31
0.0
  0
LINE
 62
3
  8
0
 10
148.8
 20
65.0666666667
 30
0.0
 11
145.8
 21
65.0666666667
 31
0.0
  0
LINE
 62
3
  8
0
 10
145.8
 20
65.0666666667
 30
0.0
 11
145.8
 21
59.0666666667
 31
0.0
  0
LINE
 62
3
  8
0
 10
84.4
 20
83.6
 30
0.0
 11
87.4
 21
83.6
 31
0.0
  0
LINE
 62
3
  8
0
 10
87.4
 20
83.6
 30
0.0
 11
87.4
 21
89.6
 31
0.0
  0
LINE
 62
3
  8
0
 10
87.4
 20
89.6
 30
0.0
 11
84.4
 21
89.6
 31
0.0
  0
LINE
 62
3
  8
0
 10
84.4
 20
89.6
 30
0.0
 11
84.4
 21
83.6
 31
0.0
  0
LINE
 62
3
  8
0
 10
145.8
 20
83.6
 30
0.0
 11
148.8
 21
83.6
 31
0.0
  0
LINE
 62
3
  8
0
 10
148.8
 20
83.6
 30
0.0
 11
148.8
 21
89.6
 31
0.0
  0
LINE
 62
3
  8
0
 10
148.8
 20
89.6
 30
0.0
 11
145.8
 21
89.6
 31
0.0
  0
LINE
 62
3
  8
0
 10
145.8
 20
89.6
 30
0.0
 11
145.8
 21
83.6
 31
0.0
  0
CIRCLE
 62
3
  8
0
 10
85.9
 20
96.6
 30
0.0
 40
1.5
  0
CIRCLE
 62
3
  8
0
 10
147.3
 20
96.6
 30
0.0
 40
1.5
  0
CIRCLE
 62
3
  8
0
 10
85.9
 20
96.6
 30
0.0
 40
1.5
  0
CIRCLE
 62
3
  8
0
 10
147.3
 20
96.6
 30
0.0
 40
1.5
  0
CIRCLE
 62
3
  8
0
 10
85.9
 20
53.8
 30
0.0
 40
1.5
  0
CIRCLE
 62
3
  8
0
 10
147.3
 20
53.8
 30
0.0
 40
1.5
  0
CIRCLE
 62
3
  8
0
 10
85.9
 20
53.8
 30
0.0
 40
1.5
  0
CIRCLE
 62
3
  8
0
 10
147.3
 20
53.8
 30
0.0
 40
1.5
  0
LINE
 62
3
  8
0
 10
81.4
 20
26.0
 30
0.0
 11
81.4
 21
20.0
 31
0.0
  0
LINE
 62
3
  8
0
 10
81.4
 20
20.0
 30
0.0
 11
96.4
 21
20.0
 31
0.0
  0
ARC
 62
3
  8
0
 10
100.4
 20
20.0
 30
0.0
 40
4.0
 50
90.0
 51
180.0
  0
LINE
 62
3
  8
0
 10
151.8
 20
26.0
 30
0.0
 11
151.8
 21
20.0
 31
0.0
  0
LINE
 62
3
  8
0
 10
151.8
 20
20.0
 30
0.0
 11
136.8
 21
20.0
 31
0.0
  0
ARC
 62
3
  8
0
 10
132.8
 20
20.0
 30
0.0
 40
4.0
 50
0.0
 51
90.0
  0
LINE
 62
3
  8
0
 10
100.4
 20
24.0
 30
0.0
 11
132.8
 21
24.0
 31
0.0
  0
LINE
 62
3
  8
0
 10
105.1
 20
85.1
 30
0.0
 11
128.1
 21
85.1
 31
0.0
  0
LINE
 62
3
  8
0
 10
128.1
 20
85.1
 30
0.0
 11
128.1
 21
108.1
 31
0.0
  0
LINE
 62
3
  8
0
 10
128.1
 20
108.1
 30
0.0
 11
105.1
 21
108.1
 31
0.0
  0
LINE
 62
3
  8
0
 10
105.1
 20
108.1
 30
0.0
 11
105.1
 21
85.1
 31
0.0
  0
CIRCLE
 62
3
  8
0
 10
102.6
 20
96.6
 30
0.0
 40
1.0
  0
CIRCLE
 62
3
  8
0
 10
130.6
 20
96.6
 30
0.0
 40
1.0
  0
LINE
 62
3
  8
0
 10
214.2
 20
50.0
 30
0.0
 11
208.2
 21
50.0
 31
0.0
  0
LINE
 62
3
  8
0
 10
208.2
 20
50.0
 30
0.0
 11
208.2
 21
29.0
 31
0.0
  0
LINE
 62
3
  8
0
 10
208.2
 20
29.0
 30
0.0
 11
161.8
 21
29.0
 31
0.0
  0
LINE
 62
3
  8
0
 10
161.8
 20
29.0
 30
0.0
 11
161.8
 21
50.0
 31
0.0
  0
LINE
 62
3
  8
0
 10
161.8
 20
50.0
 30
0.0
 11
155.8
 21
50.0
 31
0.0
  0
LINE
 62
3
  8
0
 10
155.8
 20
50.0
 30
0.0
 11
155.8
 21
50.0
 31
0.0
  0
LINE
 62
3
  8
0
 10
155.8
 20
50.0
 30
0.0
 11
152.8
 21
50.0
 31
0.0
  0
LINE
 62
3
  8
0
 10
152.8
 20
50.0
 30
0.0
 11
152.8
 21
44.0
 31
0.0
  0
LINE
 62
3
  8
0
 10
152.8
 20
44.0
 30
0.0
 11
155.8
 21
44.0
 31
0.0
  0
LINE
 62
3
  8
0
 10
155.8
 20
44.0
 30
0.0
 11
155.8
 21
23.0
 31
0.0
  0
LINE
 62
3
  8
0
 10
155.8
 20
23.0
 30
0.0
 11
172.266666667
 21
23.0
 31
0.0
  0
LINE
 62
3
  8
0
 10
172.266666667
 20
23.0
 30
0.0
 11
172.266666667
 21
20.0
 31
0.0
  0
LINE
 62
3
  8
0
 10
172.266666667
 20
20.0
 30
0.0
 11
178.266666667
 21
20.0
 31
0.0
  0
LINE
 62
3
  8
0
 10
178.266666667
 20
20.0
 30
0.0
 11
178.266666667
 21
23.0
 31
0.0
  0
LINE
 62
3
  8
0
 10
178.266666667
 20
23.0
 30
0.0
 11
191.733333333
 21
23.0
 31
0.0
  0
LINE
 62
3
  8
0
 10
191.733333333
 20
23.0
 30
0.0
 11
191.733333333
 21
20.0
 31
0.0
  0
LINE
 62
3
  8
0
 10
191.733333333
 20
20.0
 30
0.0
 11
197.733333333
 21
20.0
 31
0.0
  0
LINE
 62
3
  8
0
 10
197.733333333
 20
20.0
 30
0.0
 11
197.733333333
 21
23.0
 31
0.0
  0
LINE
 62
3
  8
0
 10
197.733333333
 20
23.0
 30
0.0
 11
214.2
 21
23.0
 31
0.0
  0
LINE
 62
3
  8
0
 10
214.2
 20
23.0
 30
0.0
 11
214.2
 21
44.0
 31
0.0
  0
LINE
 62
3
  8
0
 10
214.2
 20
44.0
 30
0.0
 11
223.2
 21
44.0
 31
0.0
  0
LINE
 62
3
  8
0
 10
229.2
 20
50.0
 30
0.0
 11
214.2
 21
50.0
 31
0.0
  0
CIRCLE
 62
3
  8
0
 10
229.2
 20
44.0
 30
0.0
 40
2.35
  0
ARC
 62
3
  8
0
 10
229.2
 20
44.0
 30
0.0
 40
6.0
 50
180.0
 51
90.0
  0
LINE
 62
3
  8
0
 10
214.2
 20
78.0
 30
0.0
 11
197.733333333
 21
78.0
 31
0.0
  0
LINE
 62
3
  8
0
 10
197.733333333
 20
78.0
 30
0.0
 11
197.733333333
 21
81.0
 31
0.0
  0
LINE
 62
3
  8
0
 10
197.733333333
 20
81.0
 30
0.0
 11
191.733333333
 21
81.0
 31
0.0
  0
LINE
 62
3
  8
0
 10
191.733333333
 20
81.0
 30
0.0
 11
191.733333333
 21
78.0
 31
0.0
  0
LINE
 62
3
  8
0
 10
191.733333333
 20
78.0
 30
0.0
 11
178.266666667
 21
78.0
 31
0.0
  0
LINE
 62
3
  8
0
 10
178.266666667
 20
78.0
 30
0.0
 11
178.266666667
 21
81.0
 31
0.0
  0
LINE
 62
3
  8
0
 10
178.266666667
 20
81.0
 30
0.0
 11
172.266666667
 21
81.0
 31
0.0
  0
LINE
 62
3
  8
0
 10
172.266666667
 20
81.0
 30
0.0
 11
172.266666667
 21
78.0
 31
0.0
  0
LINE
 62
3
  8
0
 10
172.266666667
 20
78.0
 30
0.0
 11
155.8
 21
78.0
 31
0.0
  0
LINE
 62
3
  8
0
 10
155.8
 20
78.0
 30
0.0
 11
155.8
 21
78.0
 31
0.0
  0
LINE
 62
3
  8
0
 10
155.8
 20
78.0
 30
0.0
 11
152.8
 21
78.0
 31
0.0
  0
LINE
 62
3
  8
0
 10
152.8
 20
78.0
 30
0.0
 11
152.8
 21
72.0
 31
0.0
  0
LINE
 62
3
  8
0
 10
152.8
 20
72.0
 30
0.0
 11
155.8
 21
72.0
 31
0.0
  0
LINE
 62
3
  8
0
 10
155.8
 20
72.0
 30
0.0
 11
155.8
 21
57.0
 31
0.0
  0
LINE
 62
3
  8
0
 10
155.8
 20
57.0
 30
0.0
 11
152.8
 21
57.0
 31
0.0
  0
LINE
 62
3
  8
0
 10
152.8
 20
57.0
 30
0.0
 11
152.8
 21
51.0
 31
0.0
  0
LINE
 62
3
  8
0
 10
152.8
 20
51.0
 30
0.0
 11
155.8
 21
51.0
 31
0.0
  0
LINE
 62
3
  8
0
 10
155.8
 20
51.0
 30
0.0
 11
155.8
 21
51.0
 31
0.0
  0
LINE
 62
3
  8
0
 10
155.8
 20
51.0
 30
0.0
 11
172.266666667
 21
51.0
 31
0.0
  0
LINE
 62
3
  8
0
 10
172.266666667
 20
51.0
 30
0.0
 11
172.266666667
 21
48.0
 31
0.0
  0
LINE
 62
3
  8
0
 10
172.266666667
 20
48.0
 30
0.0
 11
178.266666667
 21
48.0
 31
0.0
  0
LINE
 62
3
  8
0
 10
178.266666667
 20
48.0
 30
0.0
 11
178.266666667
 21
51.0
 31
0.0
  0
LINE
 62
3
  8
0
 10
178.266666667
 20
51.0
 30
0.0
 11
191.733333333
 21
51.0
 31
0.0
  0
LINE
 62
3
  8
0
 10
191.733333333
 20
51.0
 30
0.0
 11
191.733333333
 21
48.0
 31
0.0
  0
LINE
 62
3
  8
0
 10
191.733333333
 20
48.0
 30
0.0
 11
197.733333333
 21
48.0
 31
0.0
  0
LINE
 62
3
  8
0
 10
197.733333333
 20
48.0
 30
0.0
 11
197.733333333
 21
51.0
 31
0.0
  0
LINE
 62
3
  8
0
 10
197.733333333
 20
51.0
 30
0.0
 11
214.2
 21
51.0
 31
0.0
  0
LINE
 62
3
  8
0
 10
214.2
 20
51.0
 30
0.0
 11
214.2
 21
51.0
 31
0.0
  0
LINE
 62
3
  8
0
 10
214.2
 20
51.0
 30
0.0
 11
217.2
 21
51.0
 31
0.0
  0
LINE
 62
3
  8
0
 10
217.2
 20
51.0
 30
0.0
 11
217.2
 21
57.0
 31
0.0
  0
LINE
 62
3
  8
0
 10
217.2
 20
57.0
 30
0.0
 11
214.2
 21
57.0
 31
0.0
  0
LINE
 62
3
  8
0
 10
214.2
 20
57.0
 30
0.0
 11
214.2
 21
72.0
 31
0.0
  0
LINE
 62
3
  8
0
 10
214.2
 20
72.0
 30
0.0
 11
223.2
 21
72.0
 31
0.0
  0
LINE
 62
3
  8
0
 10
229.2
 20
78.0
 30
0.0
 11
214.2
 21
78.0
 31
0.0
  0
CIRCLE
 62
3
  8
0
 10
229.2
 20
72.0
 30
0.0
 40
3.05
  0
ARC
 62
3
  8
0
 10
229.2
 20
72.0
 30
0.0
 40
6.0
 50
180.0
 51
90.0
  0
LINE
 62
3
  8
0
 10
155.8
 20
85.0
 30
0.0
 11
172.266666667
 21
85.0
 31
0.0
  0
LINE
 62
3
  8
0
 10
172.266666667
 20
85.0
 30
0.0
 11
172.266666667
 21
82.0
 31
0.0
  0
LINE
 62
3
  8
0
 10
172.266666667
 20
82.0
 30
0.0
 11
178.266666667
 21
82.0
 31
0.0
  0
LINE
 62
3
  8
0
 10
178.266666667
 20
82.0
 30
0.0
 11
178.266666667
 21
85.0
 31
0.0
  0
LINE
 62
3
  8
0
 10
178.266666667
 20
85.0
 30
0.0
 11
191.733333333
 21
85.0
 31
0.0
  0
LINE
 62
3
  8
0
 10
191.733333333
 20
85.0
 30
0.0
 11
191.733333333
 21
82.0
 31
0.0
  0
LINE
 62
3
  8
0
 10
191.733333333
 20
82.0
 30
0.0
 11
197.733333333
 21
82.0
 31
0.0
  0
LINE
 62
3
  8
0
 10
197.733333333
 20
82.0
 30
0.0
 11
197.733333333
 21
85.0
 31
0.0
  0
LINE
 62
3
  8
0
 10
197.733333333
 20
85.0
 30
0.0
 11
214.2
 21
85.0
 31
0.0
  0
LINE
 62
3
  8
0
 10
214.2
 20
85.0
 30
0.0
 11
214.2
 21
85.0
 31
0.0
  0
LINE
 62
3
  8
0
 10
214.2
 20
85.0
 30
0.0
 11
217.2
 21
85.0
 31
0.0
  0
LINE
 62
3
  8
0
 10
217.2
 20
85.0
 30
0.0
 11
217.2
 21
91.0
 31
0.0
  0
LINE
 62
3
  8
0
 10
217.2
 20
91.0
 30
0.0
 11
214.2
 21
91.0
 31
0.0
  0
LINE
 62
3
  8
0
 10
214.2
 20
91.0
 30
0.0
 11
214.2
 21
106.0
 31
0.0
  0
LINE
 62
3
  8
0
 10
214.2
 20
106.0
 30
0.0
 11
217.2
 21
106.0
 31
0.0
  0
LINE
 62
3
  8
0
 10
217.2
 20
106.0
 30
0.0
 11
217.2
 21
112.0
 31
0.0
  0
LINE
 62
3
  8
0
 10
217.2
 20
112.0
 30
0.0
 11
214.2
 21
112.0
 31
0.0
  0
LINE
 62
3
  8
0
 10
214.2
 20
112.0
 30
0.0
 11
214.2
 21
112.0
 31
0.0
  0
LINE
 62
3
  8
0
 10
214.2
 20
112.0
 30
0.0
 11
197.733333333
 21
112.0
 31
0.0
  0
LINE
 62
3
  8
0
 10
197.733333333
 20
112.0
 30
0.0
 11
197.733333333
 21
115.0
 31
0.0
  0
LINE
 62
3
  8
0
 10
197.733333333
 20
115.0
 30
0.0
 11
191.733333333
 21
115.0
 31
0.0
  0
LINE
 62
3
  8
0
 10
191.733333333
 20
115.0
 30
0.0
 11
191.733333333
 21
112.0
 31
0.0
  0
LINE
 62
3
  8
0
 10
191.733333333
 20
112.0
 30
0.0
 11
178.266666667
 21
112.0
 31
0.0
  0
LINE
 62
3
  8
0
 10
178.266666667
 20
112.0
 30
0.0
 11
178.266666667
 21
115.0
 31
0.0
  0
LINE
 62
3
  8
0
 10
178.266666667
 20
115.0
 30
0.0
 11
172.266666667
 21
115.0
 31
0.0
  0
LINE
 62
3
  8
0
 10
172.266666667
 20
115.0
 30
0.0
 11
172.266666667
 21
112.0
 31
0.0
  0
LINE
 62
3
  8
0
 10
172.266666667
 20
112.0
 30
0.0
 11
155.8
 21
112.0
 31
0.0
  0
LINE
 62
3
  8
0
 10
155.8
 20
112.0
 30
0.0
 11
155.8
 21
112.0
 31
0.0
  0
LINE
 62
3
  8
0
 10
155.8
 20
112.0
 30
0.0
 11
152.8
 21
112.0
 31
0.0
  0
LINE
 62
3
  8
0
 10
152.8
 20
112.0
 30
0.0
 11
152.8
 21
106.0
 31
0.0
  0
LINE
 62
3
  8
0
 10
152.8
 20
106.0
 30
0.0
 11
155.8
 21
106.0
 31
0.0
  0
LINE
 62
3
  8
0
 10
155.8
 20
106.0
 30
0.0
 11
155.8
 21
91.0
 31
0.0
  0
LINE
 62
3
  8
0
 10
155.8
 20
91.0
 30
0.0
 11
152.8
 21
91.0
 31
0.0
  0
LINE
 62
3
  8
0
 10
152.8
 20
91.0
 30
0.0
 11
152.8
 21
85.0
 31
0.0
  0
LINE
 62
3
  8
0
 10
152.8
 20
85.0
 30
0.0
 11
155.8
 21
85.0
 31
0.0
  0
LINE
 62
3
  8
0
 10
155.8
 20
85.0
 30
0.0
 11
155.8
 21
85.0
 31
0.0
  0
TEXT
 62
2
  8
0
 10
165.8
 20
97.0
 30
0.0
 40
2.0
  1
PIR V1.0
 50
0.0
 41
1.0
 51
0.0
  7
STANDARD
 71
0
 72
0
 73
3
 11
165.8
 21
97.0
 31
0.0
  0
TEXT
 62
2
  8
0
 10
165.8
 20
94.0
 30
0.0
 40
2.0
  1
(C) 2015 Dave Berkeley
 50
0.0
 41
1.0
 51
0.0
  7
STANDARD
 71
0
 72
0
 73
3
 11
165.8
 21
94.0
 31
0.0
  0
LINE
 62
3
  8
0
 10
13.0
 20
146.6
 30
0.0
 11
13.0
 21
140.6
 31
0.0
  0
LINE
 62
3
  8
0
 10
13.0
 20
140.6
 30
0.0
 11
10.0
 21
140.6
 31
0.0
  0
LINE
 62
3
  8
0
 10
10.0
 20
140.6
 30
0.0
 11
10.0
 21
125.6
 31
0.0
  0
LINE
 62
3
  8
0
 10
10.0
 20
125.6
 30
0.0
 11
13.0
 21
125.6
 31
0.0
  0
LINE
 62
3
  8
0
 10
13.0
 20
125.6
 30
0.0
 11
13.0
 21
119.6
 31
0.0
  0
LINE
 62
3
  8
0
 10
13.0
 20
119.6
 30
0.0
 11
26.5333333333
 21
119.6
 31
0.0
  0
LINE
 62
3
  8
0
 10
26.5333333333
 20
119.6
 30
0.0
 11
26.5333333333
 21
116.6
 31
0.0
  0
LINE
 62
3
  8
0
 10
26.5333333333
 20
116.6
 30
0.0
 11
32.5333333333
 21
116.6
 31
0.0
  0
LINE
 62
3
  8
0
 10
32.5333333333
 20
116.6
 30
0.0
 11
32.5333333333
 21
119.6
 31
0.0
  0
LINE
 62
3
  8
0
 10
32.5333333333
 20
119.6
 30
0.0
 11
36.3
 21
119.6
 31
0.0
  0
LINE
 62
3
  8
0
 10
36.3
 20
119.6
 30
0.0
 11
36.3
 21
124.6
 31
0.0
  0
LINE
 62
3
  8
0
 10
36.3
 20
124.6
 30
0.0
 11
35.05
 21
124.6
 31
0.0
  0
LINE
 62
3
  8
0
 10
35.05
 20
124.6
 30
0.0
 11
35.05
 21
126.9
 31
0.0
  0
LINE
 62
3
  8
0
 10
35.05
 20
126.9
 30
0.0
 11
36.3
 21
126.9
 31
0.0
  0
LINE
 62
3
  8
0
 10
36.3
 20
126.9
 30
0.0
 11
36.3
 21
128.6
 31
0.0
  0
LINE
 62
3
  8
0
 10
36.3
 20
128.6
 30
0.0
 11
39.3
 21
128.6
 31
0.0
  0
LINE
 62
3
  8
0
 10
39.3
 20
128.6
 30
0.0
 11
39.3
 21
126.9
 31
0.0
  0
LINE
 62
3
  8
0
 10
39.3
 20
126.9
 30
0.0
 11
40.55
 21
126.9
 31
0.0
  0
LINE
 62
3
  8
0
 10
40.55
 20
126.9
 30
0.0
 11
40.55
 21
124.6
 31
0.0
  0
LINE
 62
3
  8
0
 10
40.55
 20
124.6
 30
0.0
 11
39.3
 21
124.6
 31
0.0
  0
LINE
 62
3
  8
0
 10
39.3
 20
124.6
 30
0.0
 11
39.3
 21
119.6
 31
0.0
  0
LINE
 62
3
  8
0
 10
39.3
 20
119.6
 30
0.0
 11
43.0666666667
 21
119.6
 31
0.0
  0
LINE
 62
3
  8
0
 10
43.0666666667
 20
119.6
 30
0.0
 11
43.0666666667
 21
116.6
 31
0.0
  0
LINE
 62
3
  8
0
 10
43.0666666667
 20
116.6
 30
0.0
 11
49.0666666667
 21
116.6
 31
0.0
  0
LINE
 62
3
  8
0
 10
49.0666666667
 20
116.6
 30
0.0
 11
49.0666666667
 21
119.6
 31
0.0
  0
LINE
 62
3
  8
0
 10
49.0666666667
 20
119.6
 30
0.0
 11
64.6
 21
119.6
 31
0.0
  0
LINE
 62
3
  8
0
 10
64.6
 20
119.6
 30
0.0
 11
64.6
 21
125.6
 31
0.0
  0
LINE
 62
3
  8
0
 10
64.6
 20
125.6
 30
0.0
 11
67.6
 21
125.6
 31
0.0
  0
LINE
 62
3
  8
0
 10
67.6
 20
125.6
 30
0.0
 11
67.6
 21
119.6
 31
0.0
  0
LINE
 62
3
  8
0
 10
67.6
 20
119.6
 30
0.0
 11
67.6
 21
119.6
 31
0.0
  0
LINE
 62
3
  8
0
 10
67.6
 20
119.6
 30
0.0
 11
67.6
 21
116.6
 31
0.0
  0
LINE
 62
3
  8
0
 10
67.6
 20
116.6
 30
0.0
 11
73.6
 21
116.6
 31
0.0
  0
LINE
 62
3
  8
0
 10
73.6
 20
116.6
 30
0.0
 11
73.6
 21
119.6
 31
0.0
  0
LINE
 62
3
  8
0
 10
73.6
 20
119.6
 30
0.0
 11
79.1
 21
119.6
 31
0.0
  0
LINE
 62
3
  8
0
 10
79.1
 20
119.6
 30
0.0
 11
79.1
 21
124.6
 31
0.0
  0
LINE
 62
3
  8
0
 10
79.1
 20
124.6
 30
0.0
 11
77.85
 21
124.6
 31
0.0
  0
LINE
 62
3
  8
0
 10
77.85
 20
124.6
 30
0.0
 11
77.85
 21
126.9
 31
0.0
  0
LINE
 62
3
  8
0
 10
77.85
 20
126.9
 30
0.0
 11
79.1
 21
126.9
 31
0.0
  0
LINE
 62
3
  8
0
 10
79.1
 20
126.9
 30
0.0
 11
79.1
 21
128.6
 31
0.0
  0
LINE
 62
3
  8
0
 10
79.1
 20
128.6
 30
0.0
 11
82.1
 21
128.6
 31
0.0
  0
LINE
 62
3
  8
0
 10
82.1
 20
128.6
 30
0.0
 11
82.1
 21
126.9
 31
0.0
  0
LINE
 62
3
  8
0
 10
82.1
 20
126.9
 30
0.0
 11
83.35
 21
126.9
 31
0.0
  0
LINE
 62
3
  8
0
 10
83.35
 20
126.9
 30
0.0
 11
83.35
 21
124.6
 31
0.0
  0
LINE
 62
3
  8
0
 10
83.35
 20
124.6
 30
0.0
 11
82.1
 21
124.6
 31
0.0
  0
LINE
 62
3
  8
0
 10
82.1
 20
124.6
 30
0.0
 11
82.1
 21
119.6
 31
0.0
  0
LINE
 62
3
  8
0
 10
82.1
 20
119.6
 30
0.0
 11
93.6
 21
119.6
 31
0.0
  0
LINE
 62
3
  8
0
 10
93.6
 20
119.6
 30
0.0
 11
93.6
 21
125.6
 31
0.0
  0
LINE
 62
3
  8
0
 10
93.6
 20
125.6
 30
0.0
 11
96.6
 21
125.6
 31
0.0
  0
LINE
 62
3
  8
0
 10
96.6
 20
125.6
 30
0.0
 11
96.6
 21
140.6
 31
0.0
  0
LINE
 62
3
  8
0
 10
96.6
 20
140.6
 30
0.0
 11
93.6
 21
140.6
 31
0.0
  0
LINE
 62
3
  8
0
 10
93.6
 20
140.6
 30
0.0
 11
93.6
 21
146.6
 31
0.0
  0
LINE
 62
3
  8
0
 10
93.6
 20
146.6
 30
0.0
 11
82.1
 21
146.6
 31
0.0
  0
LINE
 62
3
  8
0
 10
82.1
 20
146.6
 30
0.0
 11
82.1
 21
141.6
 31
0.0
  0
LINE
 62
3
  8
0
 10
82.1
 20
141.6
 30
0.0
 11
83.35
 21
141.6
 31
0.0
  0
LINE
 62
3
  8
0
 10
83.35
 20
141.6
 30
0.0
 11
83.35
 21
139.3
 31
0.0
  0
LINE
 62
3
  8
0
 10
83.35
 20
139.3
 30
0.0
 11
82.1
 21
139.3
 31
0.0
  0
LINE
 62
3
  8
0
 10
82.1
 20
139.3
 30
0.0
 11
82.1
 21
137.6
 31
0.0
  0
LINE
 62
3
  8
0
 10
82.1
 20
137.6
 30
0.0
 11
79.1
 21
137.6
 31
0.0
  0
LINE
 62
3
  8
0
 10
79.1
 20
137.6
 30
0.0
 11
79.1
 21
139.3
 31
0.0
  0
LINE
 62
3
  8
0
 10
79.1
 20
139.3
 30
0.0
 11
77.85
 21
139.3
 31
0.0
  0
LINE
 62
3
  8
0
 10
77.85
 20
139.3
 30
0.0
 11
77.85
 21
141.6
 31
0.0
  0
LINE
 62
3
  8
0
 10
77.85
 20
141.6
 30
0.0
 11
79.1
 21
141.6
 31
0.0
  0
LINE
 62
3
  8
0
 10
79.1
 20
141.6
 30
0.0
 11
79.1
 21
146.6
 31
0.0
  0
LINE
 62
3
  8
0
 10
79.1
 20
146.6
 30
0.0
 11
73.6
 21
146.6
 31
0.0
  0
LINE
 62
3
  8
0
 10
73.6
 20
146.6
 30
0.0
 11
73.6
 21
149.6
 31
0.0
  0
LINE
 62
3
  8
0
 10
73.6
 20
149.6
 30
0.0
 11
67.6
 21
149.6
 31
0.0
  0
LINE
 62
3
  8
0
 10
67.6
 20
149.6
 30
0.0
 11
67.6
 21
146.6
 31
0.0
  0
LINE
 62
3
  8
0
 10
67.6
 20
146.6
 30
0.0
 11
49.0666666667
 21
146.6
 31
0.0
  0
LINE
 62
3
  8
0
 10
49.0666666667
 20
146.6
 30
0.0
 11
49.0666666667
 21
149.6
 31
0.0
  0
LINE
 62
3
  8
0
 10
49.0666666667
 20
149.6
 30
0.0
 11
43.0666666667
 21
149.6
 31
0.0
  0
LINE
 62
3
  8
0
 10
43.0666666667
 20
149.6
 30
0.0
 11
43.0666666667
 21
146.6
 31
0.0
  0
LINE
 62
3
  8
0
 10
43.0666666667
 20
146.6
 30
0.0
 11
39.3
 21
146.6
 31
0.0
  0
LINE
 62
3
  8
0
 10
39.3
 20
146.6
 30
0.0
 11
39.3
 21
141.6
 31
0.0
  0
LINE
 62
3
  8
0
 10
39.3
 20
141.6
 30
0.0
 11
40.55
 21
141.6
 31
0.0
  0
LINE
 62
3
  8
0
 10
40.55
 20
141.6
 30
0.0
 11
40.55
 21
139.3
 31
0.0
  0
LINE
 62
3
  8
0
 10
40.55
 20
139.3
 30
0.0
 11
39.3
 21
139.3
 31
0.0
  0
LINE
 62
3
  8
0
 10
39.3
 20
139.3
 30
0.0
 11
39.3
 21
137.6
 31
0.0
  0
LINE
 62
3
  8
0
 10
39.3
 20
137.6
 30
0.0
 11
36.3
 21
137.6
 31
0.0
  0
LINE
 62
3
  8
0
 10
36.3
 20
137.6
 30
0.0
 11
36.3
 21
139.3
 31
0.0
  0
LINE
 62
3
  8
0
 10
36.3
 20
139.3
 30
0.0
 11
35.05
 21
139.3
 31
0.0
  0
LINE
 62
3
  8
0
 10
35.05
 20
139.3
 30
0.0
 11
35.05
 21
141.6
 31
0.0
  0
LINE
 62
3
  8
0
 10
35.05
 20
141.6
 30
0.0
 11
36.3
 21
141.6
 31
0.0
  0
LINE
 62
3
  8
0
 10
36.3
 20
141.6
 30
0.0
 11
36.3
 21
146.6
 31
0.0
  0
LINE
 62
3
  8
0
 10
36.3
 20
146.6
 30
0.0
 11
32.5333333333
 21
146.6
 31
0.0
  0
LINE
 62
3
  8
0
 10
32.5333333333
 20
146.6
 30
0.0
 11
32.5333333333
 21
149.6
 31
0.0
  0
LINE
 62
3
  8
0
 10
32.5333333333
 20
149.6
 30
0.0
 11
26.5333333333
 21
149.6
 31
0.0
  0
LINE
 62
3
  8
0
 10
26.5333333333
 20
149.6
 30
0.0
 11
26.5333333333
 21
146.6
 31
0.0
  0
LINE
 62
3
  8
0
 10
26.5333333333
 20
146.6
 30
0.0
 11
13.0
 21
146.6
 31
0.0
  0
CIRCLE
 62
3
  8
0
 10
77.85
 20
141.6
 30
0.0
 40
0.25
  0
CIRCLE
 62
3
  8
0
 10
83.35
 20
141.6
 30
0.0
 40
0.25
  0
CIRCLE
 62
3
  8
0
 10
83.35
 20
124.6
 30
0.0
 40
0.25
  0
CIRCLE
 62
3
  8
0
 10
77.85
 20
124.6
 30
0.0
 40
0.25
  0
CIRCLE
 62
3
  8
0
 10
35.05
 20
141.6
 30
0.0
 40
0.25
  0
CIRCLE
 62
3
  8
0
 10
40.55
 20
141.6
 30
0.0
 40
0.25
  0
CIRCLE
 62
3
  8
0
 10
40.55
 20
124.6
 30
0.0
 40
0.25
  0
CIRCLE
 62
3
  8
0
 10
35.05
 20
124.6
 30
0.0
 40
0.25
  0
LINE
 62
3
  8
0
 10
31.5
 20
141.4
 30
0.0
 11
22.5
 21
141.4
 31
0.0
  0
LINE
 62
3
  8
0
 10
22.5
 20
141.4
 30
0.0
 11
22.5
 21
130.4
 31
0.0
  0
LINE
 62
3
  8
0
 10
22.5
 20
130.4
 30
0.0
 11
31.5
 21
130.4
 31
0.0
  0
LINE
 62
3
  8
0
 10
31.5
 20
130.4
 30
0.0
 11
31.5
 21
141.4
 31
0.0
  0
LINE
 62
3
  8
0
 10
100.6
 20
146.6
 30
0.0
 11
100.6
 21
140.6
 31
0.0
  0
LINE
 62
3
  8
0
 10
100.6
 20
140.6
 30
0.0
 11
97.6
 21
140.6
 31
0.0
  0
LINE
 62
3
  8
0
 10
97.6
 20
140.6
 30
0.0
 11
97.6
 21
125.6
 31
0.0
  0
LINE
 62
3
  8
0
 10
97.6
 20
125.6
 30
0.0
 11
100.6
 21
125.6
 31
0.0
  0
LINE
 62
3
  8
0
 10
100.6
 20
125.6
 30
0.0
 11
100.6
 21
119.6
 31
0.0
  0
LINE
 62
3
  8
0
 10
100.6
 20
119.6
 30
0.0
 11
114.133333333
 21
119.6
 31
0.0
  0
LINE
 62
3
  8
0
 10
114.133333333
 20
119.6
 30
0.0
 11
114.133333333
 21
116.6
 31
0.0
  0
LINE
 62
3
  8
0
 10
114.133333333
 20
116.6
 30
0.0
 11
120.133333333
 21
116.6
 31
0.0
  0
LINE
 62
3
  8
0
 10
120.133333333
 20
116.6
 30
0.0
 11
120.133333333
 21
119.6
 31
0.0
  0
LINE
 62
3
  8
0
 10
120.133333333
 20
119.6
 30
0.0
 11
123.9
 21
119.6
 31
0.0
  0
LINE
 62
3
  8
0
 10
123.9
 20
119.6
 30
0.0
 11
123.9
 21
124.6
 31
0.0
  0
LINE
 62
3
  8
0
 10
123.9
 20
124.6
 30
0.0
 11
122.65
 21
124.6
 31
0.0
  0
LINE
 62
3
  8
0
 10
122.65
 20
124.6
 30
0.0
 11
122.65
 21
126.9
 31
0.0
  0
LINE
 62
3
  8
0
 10
122.65
 20
126.9
 30
0.0
 11
123.9
 21
126.9
 31
0.0
  0
LINE
 62
3
  8
0
 10
123.9
 20
126.9
 30
0.0
 11
123.9
 21
128.6
 31
0.0
  0
LINE
 62
3
  8
0
 10
123.9
 20
128.6
 30
0.0
 11
126.9
 21
128.6
 31
0.0
  0
LINE
 62
3
  8
0
 10
126.9
 20
128.6
 30
0.0
 11
126.9
 21
126.9
 31
0.0
  0
LINE
 62
3
  8
0
 10
126.9
 20
126.9
 30
0.0
 11
128.15
 21
126.9
 31
0.0
  0
LINE
 62
3
  8
0
 10
128.15
 20
126.9
 30
0.0
 11
128.15
 21
124.6
 31
0.0
  0
LINE
 62
3
  8
0
 10
128.15
 20
124.6
 30
0.0
 11
126.9
 21
124.6
 31
0.0
  0
LINE
 62
3
  8
0
 10
126.9
 20
124.6
 30
0.0
 11
126.9
 21
119.6
 31
0.0
  0
LINE
 62
3
  8
0
 10
126.9
 20
119.6
 30
0.0
 11
130.666666667
 21
119.6
 31
0.0
  0
LINE
 62
3
  8
0
 10
130.666666667
 20
119.6
 30
0.0
 11
130.666666667
 21
116.6
 31
0.0
  0
LINE
 62
3
  8
0
 10
130.666666667
 20
116.6
 30
0.0
 11
136.666666667
 21
116.6
 31
0.0
  0
LINE
 62
3
  8
0
 10
136.666666667
 20
116.6
 30
0.0
 11
136.666666667
 21
119.6
 31
0.0
  0
LINE
 62
3
  8
0
 10
136.666666667
 20
119.6
 30
0.0
 11
152.2
 21
119.6
 31
0.0
  0
LINE
 62
3
  8
0
 10
152.2
 20
119.6
 30
0.0
 11
152.2
 21
125.6
 31
0.0
  0
LINE
 62
3
  8
0
 10
152.2
 20
125.6
 30
0.0
 11
155.2
 21
125.6
 31
0.0
  0
LINE
 62
3
  8
0
 10
155.2
 20
125.6
 30
0.0
 11
155.2
 21
119.6
 31
0.0
  0
LINE
 62
3
  8
0
 10
155.2
 20
119.6
 30
0.0
 11
155.2
 21
119.6
 31
0.0
  0
LINE
 62
3
  8
0
 10
155.2
 20
119.6
 30
0.0
 11
155.2
 21
116.6
 31
0.0
  0
LINE
 62
3
  8
0
 10
155.2
 20
116.6
 30
0.0
 11
161.2
 21
116.6
 31
0.0
  0
LINE
 62
3
  8
0
 10
161.2
 20
116.6
 30
0.0
 11
161.2
 21
119.6
 31
0.0
  0
LINE
 62
3
  8
0
 10
161.2
 20
119.6
 30
0.0
 11
166.7
 21
119.6
 31
0.0
  0
LINE
 62
3
  8
0
 10
166.7
 20
119.6
 30
0.0
 11
166.7
 21
124.6
 31
0.0
  0
LINE
 62
3
  8
0
 10
166.7
 20
124.6
 30
0.0
 11
165.45
 21
124.6
 31
0.0
  0
LINE
 62
3
  8
0
 10
165.45
 20
124.6
 30
0.0
 11
165.45
 21
126.9
 31
0.0
  0
LINE
 62
3
  8
0
 10
165.45
 20
126.9
 30
0.0
 11
166.7
 21
126.9
 31
0.0
  0
LINE
 62
3
  8
0
 10
166.7
 20
126.9
 30
0.0
 11
166.7
 21
128.6
 31
0.0
  0
LINE
 62
3
  8
0
 10
166.7
 20
128.6
 30
0.0
 11
169.7
 21
128.6
 31
0.0
  0
LINE
 62
3
  8
0
 10
169.7
 20
128.6
 30
0.0
 11
169.7
 21
126.9
 31
0.0
  0
LINE
 62
3
  8
0
 10
169.7
 20
126.9
 30
0.0
 11
170.95
 21
126.9
 31
0.0
  0
LINE
 62
3
  8
0
 10
170.95
 20
126.9
 30
0.0
 11
170.95
 21
124.6
 31
0.0
  0
LINE
 62
3
  8
0
 10
170.95
 20
124.6
 30
0.0
 11
169.7
 21
124.6
 31
0.0
  0
LINE
 62
3
  8
0
 10
169.7
 20
124.6
 30
0.0
 11
169.7
 21
119.6
 31
0.0
  0
LINE
 62
3
  8
0
 10
169.7
 20
119.6
 30
0.0
 11
181.2
 21
119.6
 31
0.0
  0
LINE
 62
3
  8
0
 10
181.2
 20
119.6
 30
0.0
 11
181.2
 21
125.6
 31
0.0
  0
LINE
 62
3
  8
0
 10
181.2
 20
125.6
 30
0.0
 11
184.2
 21
125.6
 31
0.0
  0
LINE
 62
3
  8
0
 10
184.2
 20
125.6
 30
0.0
 11
184.2
 21
140.6
 31
0.0
  0
LINE
 62
3
  8
0
 10
184.2
 20
140.6
 30
0.0
 11
181.2
 21
140.6
 31
0.0
  0
LINE
 62
3
  8
0
 10
181.2
 20
140.6
 30
0.0
 11
181.2
 21
146.6
 31
0.0
  0
LINE
 62
3
  8
0
 10
181.2
 20
146.6
 30
0.0
 11
169.7
 21
146.6
 31
0.0
  0
LINE
 62
3
  8
0
 10
169.7
 20
146.6
 30
0.0
 11
169.7
 21
141.6
 31
0.0
  0
LINE
 62
3
  8
0
 10
169.7
 20
141.6
 30
0.0
 11
170.95
 21
141.6
 31
0.0
  0
LINE
 62
3
  8
0
 10
170.95
 20
141.6
 30
0.0
 11
170.95
 21
139.3
 31
0.0
  0
LINE
 62
3
  8
0
 10
170.95
 20
139.3
 30
0.0
 11
169.7
 21
139.3
 31
0.0
  0
LINE
 62
3
  8
0
 10
169.7
 20
139.3
 30
0.0
 11
169.7
 21
137.6
 31
0.0
  0
LINE
 62
3
  8
0
 10
169.7
 20
137.6
 30
0.0
 11
166.7
 21
137.6
 31
0.0
  0
LINE
 62
3
  8
0
 10
166.7
 20
137.6
 30
0.0
 11
166.7
 21
139.3
 31
0.0
  0
LINE
 62
3
  8
0
 10
166.7
 20
139.3
 30
0.0
 11
165.45
 21
139.3
 31
0.0
  0
LINE
 62
3
  8
0
 10
165.45
 20
139.3
 30
0.0
 11
165.45
 21
141.6
 31
0.0
  0
LINE
 62
3
  8
0
 10
165.45
 20
141.6
 30
0.0
 11
166.7
 21
141.6
 31
0.0
  0
LINE
 62
3
  8
0
 10
166.7
 20
141.6
 30
0.0
 11
166.7
 21
146.6
 31
0.0
  0
LINE
 62
3
  8
0
 10
166.7
 20
146.6
 30
0.0
 11
161.2
 21
146.6
 31
0.0
  0
LINE
 62
3
  8
0
 10
161.2
 20
146.6
 30
0.0
 11
161.2
 21
149.6
 31
0.0
  0
LINE
 62
3
  8
0
 10
161.2
 20
149.6
 30
0.0
 11
155.2
 21
149.6
 31
0.0
  0
LINE
 62
3
  8
0
 10
155.2
 20
149.6
 30
0.0
 11
155.2
 21
146.6
 31
0.0
  0
LINE
 62
3
  8
0
 10
155.2
 20
146.6
 30
0.0
 11
136.666666667
 21
146.6
 31
0.0
  0
LINE
 62
3
  8
0
 10
136.666666667
 20
146.6
 30
0.0
 11
136.666666667
 21
149.6
 31
0.0
  0
LINE
 62
3
  8
0
 10
136.666666667
 20
149.6
 30
0.0
 11
130.666666667
 21
149.6
 31
0.0
  0
LINE
 62
3
  8
0
 10
130.666666667
 20
149.6
 30
0.0
 11
130.666666667
 21
146.6
 31
0.0
  0
LINE
 62
3
  8
0
 10
130.666666667
 20
146.6
 30
0.0
 11
126.9
 21
146.6
 31
0.0
  0
LINE
 62
3
  8
0
 10
126.9
 20
146.6
 30
0.0
 11
126.9
 21
141.6
 31
0.0
  0
LINE
 62
3
  8
0
 10
126.9
 20
141.6
 30
0.0
 11
128.15
 21
141.6
 31
0.0
  0
LINE
 62
3
  8
0
 10
128.15
 20
141.6
 30
0.0
 11
128.15
 21
139.3
 31
0.0
  0
LINE
 62
3
  8
0
 10
128.15
 20
139.3
 30
0.0
 11
126.9
 21
139.3
 31
0.0
  0
LINE
 62
3
  8
0
 10
126.9
 20
139.3
 30
0.0
 11
126.9
 21
137.6
 31
0.0
  0
LINE
 62
3
  8
0
 10
126.9
 20
137.6
 30
0.0
 11
123.9
 21
137.6
 31
0.0
  0
LINE
 62
3
  8
0
 10
123.9
 20
137.6
 30
0.0
 11
123.9
 21
139.3
 31
0.0
  0
LINE
 62
3
  8
0
 10
123.9
 20
139.3
 30
0.0
 11
122.65
 21
139.3
 31
0.0
  0
LINE
 62
3
  8
0
 10
122.65
 20
139.3
 30
0.0
 11
122.65
 21
141.6
 31
0.0
  0
LINE
 62
3
  8
0
 10
122.65
 20
141.6
 30
0.0
 11
123.9
 21
141.6
 31
0.0
  0
LINE
 62
3
  8
0
 10
123.9
 20
141.6
 30
0.0
 11
123.9
 21
146.6
 31
0.0
  0
LINE
 62
3
  8
0
 10
123.9
 20
146.6
 30
0.0
 11
120.133333333
 21
146.6
 31
0.0
  0
LINE
 62
3
  8
0
 10
120.133333333
 20
146.6
 30
0.0
 11
120.133333333
 21
149.6
 31
0.0
  0
LINE
 62
3
  8
0
 10
120.133333333
 20
149.6
 30
0.0
 11
114.133333333
 21
149.6
 31
0.0
  0
LINE
 62
3
  8
0
 10
114.133333333
 20
149.6
 30
0.0
 11
114.133333333
 21
146.6
 31
0.0
  0
LINE
 62
3
  8
0
 10
114.133333333
 20
146.6
 30
0.0
 11
100.6
 21
146.6
 31
0.0
  0
CIRCLE
 62
3
  8
0
 10
165.45
 20
141.6
 30
0.0
 40
0.25
  0
CIRCLE
 62
3
  8
0
 10
170.95
 20
141.6
 30
0.0
 40
0.25
  0
CIRCLE
 62
3
  8
0
 10
170.95
 20
124.6
 30
0.0
 40
0.25
  0
CIRCLE
 62
3
  8
0
 10
165.45
 20
124.6
 30
0.0
 40
0.25
  0
CIRCLE
 62
3
  8
0
 10
122.65
 20
141.6
 30
0.0
 40
0.25
  0
CIRCLE
 62
3
  8
0
 10
128.15
 20
141.6
 30
0.0
 40
0.25
  0
CIRCLE
 62
3
  8
0
 10
128.15
 20
124.6
 30
0.0
 40
0.25
  0
CIRCLE
 62
3
  8
0
 10
122.65
 20
124.6
 30
0.0
 40
0.25
  0
LINE
 62
3
  8
0
 10
108.7
 20
119.6
 30
0.0
 11
108.7
 21
121.5
 31
0.0
  0
LINE
 62
3
  8
0
 10
108.7
 20
121.5
 30
0.0
 11
112.5
 21
121.5
 31
0.0
  0
LINE
 62
3
  8
0
 10
112.5
 20
121.5
 30
0.0
 11
112.5
 21
119.6
 31
0.0
  0
ARC
 62
3
  8
0
 10
110.6
 20
121.5
 30
0.0
 40
1.9
 50
0.0
 51
180.0
  0
ENDSEC
  0
EOF
