  0
SECTION
  2
HEADER
  9
$ACADVER
  1
AC1009
  9
$EXTMIN
 10
0.0
 20
0.0
 30
0.0
  9
$EXTMAX
 10
100.0
 20
100.0
 30
0.0
  9
$INSBASE
 10
0.0
 20
0.0
 30
0.0
  0
ENDSEC
  0
SECTION
  2
TABLES
  0
TABLE
  2
LTYPE
 70
19
  0
LTYPE
  2
PHANTOM
 70
0
  3
Phantom ______  __  __  ______  __  __  ______
 72
65
 73
6
 40
2.5
 49
1.25
 49
-0.25
 49
0.25
 49
-0.25
 49
0.25
 49
-0.25
  0
LTYPE
  2
DOT2
 70
0
  3
Dot (.5) . . . . . . . . . . . . . . . . . . . 
 72
65
 73
2
 40
0.1
 49
0.0
 49
-0.1
  0
LTYPE
  2
DIVIDE
 70
0
  3
Divide __ . . __ . . __ . . __ . . __ . . __
 72
65
 73
6
 40
1.6
 49
1.0
 49
-0.2
 49
0.0
 49
-0.2
 49
0.0
 49
-0.2
  0
LTYPE
  2
DIVIDEX2
 70
0
  3
Divide (2x) ____  . .  ____  . .  ____  . .  ____
 72
65
 73
6
 40
2.6
 49
2.0
 49
-0.2
 49
0.0
 49
-0.2
 49
0.0
 49
-0.2
  0
LTYPE
  2
CENTER
 70
0
  3
Center ____ _ ____ _ ____ _ ____ _ ____ _ ____
 72
65
 73
4
 40
2.0
 49
1.25
 49
-0.25
 49
0.25
 49
-0.25
  0
LTYPE
  2
DASHDOT
 70
0
  3
Dash dot __ . __ . __ . __ . __ . __ . __ . __
 72
65
 73
4
 40
1.4
 49
1.0
 49
-0.2
 49
0.0
 49
-0.2
  0
LTYPE
  2
CENTERX2
 70
0
  3
Center (2x) ________  __  ________  __  ________
 72
65
 73
4
 40
3.5
 49
2.5
 49
-0.25
 49
0.5
 49
-0.25
  0
LTYPE
  2
PHANTOMX2
 70
0
  3
Phantom (2x)____________    ____    ____    ____________
 72
65
 73
6
 40
4.25
 49
2.5
 49
-0.25
 49
0.5
 49
-0.25
 49
0.5
 49
-0.25
  0
LTYPE
  2
CONTINUOUS
 70
0
  3
Solid
 72
65
 73
0
 40
0.0
  0
LTYPE
  2
PHANTOM2
 70
0
  3
Phantom (.5x) ___ _ _ ___ _ _ ___ _ _ ___ _ _ ___
 72
65
 73
6
 40
1.25
 49
0.625
 49
-0.125
 49
0.125
 49
-0.125
 49
0.125
 49
-0.125
  0
LTYPE
  2
DASHED
 70
0
  3
Dashed __ __ __ __ __ __ __ __ __ __ __ __ __ _
 72
65
 73
2
 40
0.6
 49
0.5
 49
-0.1
  0
LTYPE
  2
DASHED2
 70
0
  3
Dashed (.5x) _ _ _ _ _ _ _ _ _ _ _ _ _ _
 72
65
 73
2
 40
0.3
 49
0.25
 49
-0.05
  0
LTYPE
  2
DASHDOT2
 70
0
  3
Dash dot (.5x) _ . _ . _ . _ . _ . _ . _ . _
 72
65
 73
4
 40
0.7
 49
0.5
 49
-0.1
 49
0.0
 49
-0.1
  0
LTYPE
  2
DOTX2
 70
0
  3
Dot (2x) .    .    .    .    .    .    .    . 
 72
65
 73
2
 40
0.4
 49
0.0
 49
-0.4
  0
LTYPE
  2
DIVIDE2
 70
0
  3
Divide(.5x) _ . _ . _ . _ . _ . _ . _ . _
 72
65
 73
6
 40
0.8
 49
0.5
 49
-0.1
 49
0.0
 49
-0.1
 49
0.0
 49
-0.1
  0
LTYPE
  2
CENTER2
 70
0
  3
Center (.5x) ____ _ ____ _ ____ _ ____ _ ____
 72
65
 73
4
 40
1.0
 49
0.625
 49
-0.125
 49
0.125
 49
-0.125
  0
LTYPE
  2
DASHDOTX2
 70
0
  3
Dash dot (2x) ____  .  ____  .  ____  .  ____
 72
65
 73
4
 40
2.4
 49
2.0
 49
-0.2
 49
0.0
 49
-0.2
  0
LTYPE
  2
DOT
 70
0
  3
Dot .  .  .  .  .  .  .  .  .  .  .  .  .  .  .  .
 72
65
 73
2
 40
0.2
 49
0.0
 49
-0.2
  0
LTYPE
  2
DASHEDX2
 70
0
  3
Dashed (2x) ____  ____  ____  ____  ____  ____
 72
65
 73
2
 40
1.2
 49
1.0
 49
-0.2
  0
ENDTAB
  0
TABLE
  2
LAYER
 70
5
  0
LAYER
  2
VIEWPORTS
 70
0
 62
7
  6
CONTINUOUS
  0
LAYER
  2
TABLEGRID
 70
0
 62
1
  6
CONTINUOUS
  0
LAYER
  2
TABLECONTENT
 70
0
 62
1
  6
CONTINUOUS
  0
LAYER
  2
DIMENSIONS
 70
0
 62
1
  6
CONTINUOUS
  0
LAYER
  2
TABLEBACKGROUND
 70
0
 62
1
  6
CONTINUOUS
  0
ENDTAB
  0
TABLE
  2
STYLE
 70
12
  0
STYLE
  2
TIMES
 70
0
 40
0.0
 41
1.0
 42
1.0
 50
0.0
 71
0
  3
times.ttf
  4

  0
STYLE
  2
ARIAL
 70
0
 40
0.0
 41
1.0
 42
1.0
 50
0.0
 71
0
  3
arial.ttf
  4

  0
STYLE
  2
TIMES_BOLD
 70
0
 40
0.0
 41
1.0
 42
1.0
 50
0.0
 71
0
  3
timesbd.ttf
  4

  0
STYLE
  2
ARIAL_BLACK
 70
0
 40
0.0
 41
1.0
 42
1.0
 50
0.0
 71
0
  3
ariblk.ttf
  4

  0
STYLE
  2
TIMES_ITALIC
 70
0
 40
0.0
 41
1.0
 42
1.0
 50
0.0
 71
0
  3
timesi.ttf
  4

  0
STYLE
  2
ISOCPEUR
 70
0
 40
0.0
 41
1.0
 42
1.0
 50
0.0
 71
0
  3
isocpeur.ttf
  4

  0
STYLE
  2
ARIAL_BOLD
 70
0
 40
0.0
 41
1.0
 42
1.0
 50
0.0
 71
0
  3
arialbd.ttf
  4

  0
STYLE
  2
ARIAL_ITALIC
 70
0
 40
0.0
 41
1.0
 42
1.0
 50
0.0
 71
0
  3
ariali.ttf
  4

  0
STYLE
  2
ARIAL_BOLD_ITALIC
 70
0
 40
0.0
 41
1.0
 42
1.0
 50
0.0
 71
0
  3
arialbi.ttf
  4

  0
STYLE
  2
TIMES_BOLD_ITALIC
 70
0
 40
0.0
 41
1.0
 42
1.0
 50
0.0
 71
0
  3
timesbi.ttf
  4

  0
STYLE
  2
ISOCPEUR_ITALIC
 70
0
 40
0.0
 41
1.0
 42
1.0
 50
0.0
 71
0
  3
isocpeui.ttf
  4

  0
STYLE
  2
STANDARD
 70
0
 40
0.0
 41
1.0
 42
1.0
 50
0.0
 71
0
  3
arial.ttf
  4

  0
ENDTAB
  0
TABLE
  2
VIEW
 70
0
  0
ENDTAB
  0
TABLE
  2
APPID
 70
1
  0
APPID
  2
DXFWRITE
 70
0
  0
ENDTAB
  0
TABLE
  2
VPORT
 70
0
  0
ENDTAB
  0
TABLE
  2
UCS
 70
0
  0
ENDTAB
  0
ENDSEC
  0
SECTION
  2
BLOCKS
  0
ENDSEC
  0
SECTION
  2
ENTITIES
  0
VIEWPORT
  8
VIEWPORTS
 67
1
 10
0.0
 20
0.0
 30
0.0
 40
1.0
 41
1.0
 68
1
 69
1
1001
ACAD
1000
MVIEW
1002
{
1070
16
1010
0.0
1020
0.0
1030
0.0
1010
0.0
1020
0.0
1030
0.0
1040
0.0
1040
1.0
1040
0.0
1040
0.0
1040
50.0
1040
0.0
1040
0.0
1070
0
1070
100
1070
1
1070
3
1070
0
1070
0
1070
0
1070
0
1040
0.0
1040
0.0
1040
0.0
1040
0.1
1040
0.1
1040
0.1
1040
0.1
1070
0
1002
{
1002
}
1002
}
  0
LINE
 62
3
  8
0
 10
13.0
 20
20.0
 30
0.0
 11
99.0
 21
20.0
 31
0.0
  0
LINE
 62
3
  8
0
 10
102.0
 20
23.0
 30
0.0
 11
102.0
 21
72.0
 31
0.0
  0
LINE
 62
3
  8
0
 10
99.0
 20
75.0
 30
0.0
 11
13.0
 21
75.0
 31
0.0
  0
LINE
 62
3
  8
0
 10
10.0
 20
72.0
 30
0.0
 11
10.0
 21
23.0
 31
0.0
  0
CIRCLE
 62
3
  8
0
 10
42.0
 20
24.5
 30
0.0
 40
1.5
  0
CIRCLE
 62
3
  8
0
 10
78.0
 20
24.5
 30
0.0
 40
1.5
  0
CIRCLE
 62
3
  8
0
 10
42.0
 20
70.5
 30
0.0
 40
1.5
  0
CIRCLE
 62
3
  8
0
 10
78.0
 20
70.5
 30
0.0
 40
1.5
  0
LINE
 62
3
  8
0
 10
21.0
 20
23.0
 30
0.0
 11
27.0
 21
23.0
 31
0.0
  0
LINE
 62
3
  8
0
 10
27.0
 20
23.0
 30
0.0
 11
27.0
 21
26.0
 31
0.0
  0
LINE
 62
3
  8
0
 10
27.0
 20
26.0
 30
0.0
 11
21.0
 21
26.0
 31
0.0
  0
LINE
 62
3
  8
0
 10
21.0
 20
26.0
 30
0.0
 11
21.0
 21
23.0
 31
0.0
  0
LINE
 62
3
  8
0
 10
85.0
 20
23.0
 30
0.0
 11
91.0
 21
23.0
 31
0.0
  0
LINE
 62
3
  8
0
 10
91.0
 20
23.0
 30
0.0
 11
91.0
 21
26.0
 31
0.0
  0
LINE
 62
3
  8
0
 10
91.0
 20
26.0
 30
0.0
 11
85.0
 21
26.0
 31
0.0
  0
LINE
 62
3
  8
0
 10
85.0
 20
26.0
 30
0.0
 11
85.0
 21
23.0
 31
0.0
  0
LINE
 62
3
  8
0
 10
21.0
 20
69.0
 30
0.0
 11
27.0
 21
69.0
 31
0.0
  0
LINE
 62
3
  8
0
 10
27.0
 20
69.0
 30
0.0
 11
27.0
 21
72.0
 31
0.0
  0
LINE
 62
3
  8
0
 10
27.0
 20
72.0
 30
0.0
 11
21.0
 21
72.0
 31
0.0
  0
LINE
 62
3
  8
0
 10
21.0
 20
72.0
 30
0.0
 11
21.0
 21
69.0
 31
0.0
  0
LINE
 62
3
  8
0
 10
85.0
 20
69.0
 30
0.0
 11
91.0
 21
69.0
 31
0.0
  0
LINE
 62
3
  8
0
 10
91.0
 20
69.0
 30
0.0
 11
91.0
 21
72.0
 31
0.0
  0
LINE
 62
3
  8
0
 10
91.0
 20
72.0
 30
0.0
 11
85.0
 21
72.0
 31
0.0
  0
LINE
 62
3
  8
0
 10
85.0
 20
72.0
 30
0.0
 11
85.0
 21
69.0
 31
0.0
  0
LINE
 62
3
  8
0
 10
53.0
 20
23.0
 30
0.0
 11
59.0
 21
23.0
 31
0.0
  0
LINE
 62
3
  8
0
 10
59.0
 20
23.0
 30
0.0
 11
59.0
 21
26.0
 31
0.0
  0
LINE
 62
3
  8
0
 10
59.0
 20
26.0
 30
0.0
 11
53.0
 21
26.0
 31
0.0
  0
LINE
 62
3
  8
0
 10
53.0
 20
26.0
 30
0.0
 11
53.0
 21
23.0
 31
0.0
  0
LINE
 62
3
  8
0
 10
53.0
 20
69.0
 30
0.0
 11
59.0
 21
69.0
 31
0.0
  0
LINE
 62
3
  8
0
 10
59.0
 20
69.0
 30
0.0
 11
59.0
 21
72.0
 31
0.0
  0
LINE
 62
3
  8
0
 10
59.0
 20
72.0
 30
0.0
 11
53.0
 21
72.0
 31
0.0
  0
LINE
 62
3
  8
0
 10
53.0
 20
72.0
 30
0.0
 11
53.0
 21
69.0
 31
0.0
  0
LINE
 62
3
  8
0
 10
15.5
 20
44.5
 30
0.0
 11
18.5
 21
44.5
 31
0.0
  0
LINE
 62
3
  8
0
 10
18.5
 20
44.5
 30
0.0
 11
18.5
 21
50.5
 31
0.0
  0
LINE
 62
3
  8
0
 10
18.5
 20
50.5
 30
0.0
 11
15.5
 21
50.5
 31
0.0
  0
LINE
 62
3
  8
0
 10
15.5
 20
50.5
 30
0.0
 11
15.5
 21
44.5
 31
0.0
  0
LINE
 62
3
  8
0
 10
93.5
 20
44.5
 30
0.0
 11
96.5
 21
44.5
 31
0.0
  0
LINE
 62
3
  8
0
 10
96.5
 20
44.5
 30
0.0
 11
96.5
 21
50.5
 31
0.0
  0
LINE
 62
3
  8
0
 10
96.5
 20
50.5
 30
0.0
 11
93.5
 21
50.5
 31
0.0
  0
LINE
 62
3
  8
0
 10
93.5
 20
50.5
 30
0.0
 11
93.5
 21
44.5
 31
0.0
  0
ARC
 62
3
  8
0
 10
13.0
 20
23.0
 30
0.0
 40
3.0
 50
180.0
 51
-90.0
  0
ARC
 62
3
  8
0
 10
13.0
 20
72.0
 30
0.0
 40
3.0
 50
90.0
 51
-180.0
  0
ARC
 62
3
  8
0
 10
99.0
 20
72.0
 30
0.0
 40
3.0
 50
-8.48147915057e-15
 51
90.0
  0
ARC
 62
3
  8
0
 10
99.0
 20
23.0
 30
0.0
 40
3.0
 50
-90.0
 51
8.48147915057e-15
  0
LINE
 62
3
  8
0
 10
13.0
 20
76.0
 30
0.0
 11
99.0
 21
76.0
 31
0.0
  0
LINE
 62
3
  8
0
 10
102.0
 20
79.0
 30
0.0
 11
102.0
 21
128.0
 31
0.0
  0
LINE
 62
3
  8
0
 10
99.0
 20
131.0
 30
0.0
 11
13.0
 21
131.0
 31
0.0
  0
LINE
 62
3
  8
0
 10
10.0
 20
128.0
 30
0.0
 11
10.0
 21
79.0
 31
0.0
  0
CIRCLE
 62
3
  8
0
 10
42.0
 20
80.5
 30
0.0
 40
1.5
  0
CIRCLE
 62
3
  8
0
 10
78.0
 20
80.5
 30
0.0
 40
1.5
  0
CIRCLE
 62
3
  8
0
 10
42.0
 20
126.5
 30
0.0
 40
1.5
  0
CIRCLE
 62
3
  8
0
 10
78.0
 20
126.5
 30
0.0
 40
1.5
  0
LINE
 62
3
  8
0
 10
21.0
 20
79.0
 30
0.0
 11
27.0
 21
79.0
 31
0.0
  0
LINE
 62
3
  8
0
 10
27.0
 20
79.0
 30
0.0
 11
27.0
 21
82.0
 31
0.0
  0
LINE
 62
3
  8
0
 10
27.0
 20
82.0
 30
0.0
 11
21.0
 21
82.0
 31
0.0
  0
LINE
 62
3
  8
0
 10
21.0
 20
82.0
 30
0.0
 11
21.0
 21
79.0
 31
0.0
  0
LINE
 62
3
  8
0
 10
85.0
 20
79.0
 30
0.0
 11
91.0
 21
79.0
 31
0.0
  0
LINE
 62
3
  8
0
 10
91.0
 20
79.0
 30
0.0
 11
91.0
 21
82.0
 31
0.0
  0
LINE
 62
3
  8
0
 10
91.0
 20
82.0
 30
0.0
 11
85.0
 21
82.0
 31
0.0
  0
LINE
 62
3
  8
0
 10
85.0
 20
82.0
 30
0.0
 11
85.0
 21
79.0
 31
0.0
  0
LINE
 62
3
  8
0
 10
21.0
 20
125.0
 30
0.0
 11
27.0
 21
125.0
 31
0.0
  0
LINE
 62
3
  8
0
 10
27.0
 20
125.0
 30
0.0
 11
27.0
 21
128.0
 31
0.0
  0
LINE
 62
3
  8
0
 10
27.0
 20
128.0
 30
0.0
 11
21.0
 21
128.0
 31
0.0
  0
LINE
 62
3
  8
0
 10
21.0
 20
128.0
 30
0.0
 11
21.0
 21
125.0
 31
0.0
  0
LINE
 62
3
  8
0
 10
85.0
 20
125.0
 30
0.0
 11
91.0
 21
125.0
 31
0.0
  0
LINE
 62
3
  8
0
 10
91.0
 20
125.0
 30
0.0
 11
91.0
 21
128.0
 31
0.0
  0
LINE
 62
3
  8
0
 10
91.0
 20
128.0
 30
0.0
 11
85.0
 21
128.0
 31
0.0
  0
LINE
 62
3
  8
0
 10
85.0
 20
128.0
 30
0.0
 11
85.0
 21
125.0
 31
0.0
  0
LINE
 62
3
  8
0
 10
53.0
 20
79.0
 30
0.0
 11
59.0
 21
79.0
 31
0.0
  0
LINE
 62
3
  8
0
 10
59.0
 20
79.0
 30
0.0
 11
59.0
 21
82.0
 31
0.0
  0
LINE
 62
3
  8
0
 10
59.0
 20
82.0
 30
0.0
 11
53.0
 21
82.0
 31
0.0
  0
LINE
 62
3
  8
0
 10
53.0
 20
82.0
 30
0.0
 11
53.0
 21
79.0
 31
0.0
  0
LINE
 62
3
  8
0
 10
53.0
 20
125.0
 30
0.0
 11
59.0
 21
125.0
 31
0.0
  0
LINE
 62
3
  8
0
 10
59.0
 20
125.0
 30
0.0
 11
59.0
 21
128.0
 31
0.0
  0
LINE
 62
3
  8
0
 10
59.0
 20
128.0
 30
0.0
 11
53.0
 21
128.0
 31
0.0
  0
LINE
 62
3
  8
0
 10
53.0
 20
128.0
 30
0.0
 11
53.0
 21
125.0
 31
0.0
  0
LINE
 62
3
  8
0
 10
15.5
 20
100.5
 30
0.0
 11
18.5
 21
100.5
 31
0.0
  0
LINE
 62
3
  8
0
 10
18.5
 20
100.5
 30
0.0
 11
18.5
 21
106.5
 31
0.0
  0
LINE
 62
3
  8
0
 10
18.5
 20
106.5
 30
0.0
 11
15.5
 21
106.5
 31
0.0
  0
LINE
 62
3
  8
0
 10
15.5
 20
106.5
 30
0.0
 11
15.5
 21
100.5
 31
0.0
  0
LINE
 62
3
  8
0
 10
93.5
 20
100.5
 30
0.0
 11
96.5
 21
100.5
 31
0.0
  0
LINE
 62
3
  8
0
 10
96.5
 20
100.5
 30
0.0
 11
96.5
 21
106.5
 31
0.0
  0
LINE
 62
3
  8
0
 10
96.5
 20
106.5
 30
0.0
 11
93.5
 21
106.5
 31
0.0
  0
LINE
 62
3
  8
0
 10
93.5
 20
106.5
 30
0.0
 11
93.5
 21
100.5
 31
0.0
  0
ARC
 62
3
  8
0
 10
13.0
 20
79.0
 30
0.0
 40
3.0
 50
180.0
 51
-90.0
  0
ARC
 62
3
  8
0
 10
13.0
 20
128.0
 30
0.0
 40
3.0
 50
90.0
 51
-180.0
  0
ARC
 62
3
  8
0
 10
99.0
 20
128.0
 30
0.0
 40
3.0
 50
-8.48147915057e-15
 51
90.0
  0
ARC
 62
3
  8
0
 10
99.0
 20
79.0
 30
0.0
 40
3.0
 50
-90.0
 51
8.48147915057e-15
  0
CIRCLE
 62
3
  8
0
 10
40.0
 20
87.0
 30
0.0
 40
1.5
  0
CIRCLE
 62
3
  8
0
 10
40.0
 20
120.0
 30
0.0
 40
1.5
  0
LINE
 62
3
  8
0
 10
195.0
 20
48.0
 30
0.0
 11
189.5
 21
48.0
 31
0.0
  0
LINE
 62
3
  8
0
 10
189.5
 20
48.0
 30
0.0
 11
189.5
 21
42.0
 31
0.0
  0
LINE
 62
3
  8
0
 10
189.5
 20
42.0
 30
0.0
 11
186.5
 21
42.0
 31
0.0
  0
LINE
 62
3
  8
0
 10
186.5
 20
42.0
 30
0.0
 11
186.5
 21
48.0
 31
0.0
  0
LINE
 62
3
  8
0
 10
186.5
 20
48.0
 30
0.0
 11
184.0
 21
48.0
 31
0.0
  0
LINE
 62
3
  8
0
 10
184.0
 20
48.0
 30
0.0
 11
184.0
 21
54.0
 31
0.0
  0
LINE
 62
3
  8
0
 10
184.0
 20
54.0
 30
0.0
 11
178.0
 21
54.0
 31
0.0
  0
LINE
 62
3
  8
0
 10
178.0
 20
54.0
 30
0.0
 11
178.0
 21
48.0
 31
0.0
  0
LINE
 62
3
  8
0
 10
178.0
 20
48.0
 30
0.0
 11
164.5
 21
48.0
 31
0.0
  0
LINE
 62
3
  8
0
 10
164.5
 20
48.0
 30
0.0
 11
164.5
 21
43.0
 31
0.0
  0
LINE
 62
3
  8
0
 10
164.5
 20
43.0
 30
0.0
 11
165.75
 21
43.0
 31
0.0
  0
LINE
 62
3
  8
0
 10
165.75
 20
43.0
 30
0.0
 11
165.75
 21
40.7
 31
0.0
  0
LINE
 62
3
  8
0
 10
165.75
 20
40.7
 30
0.0
 11
164.5
 21
40.7
 31
0.0
  0
LINE
 62
3
  8
0
 10
164.5
 20
40.7
 30
0.0
 11
164.5
 21
39.0
 31
0.0
  0
LINE
 62
3
  8
0
 10
164.5
 20
39.0
 30
0.0
 11
161.5
 21
39.0
 31
0.0
  0
LINE
 62
3
  8
0
 10
161.5
 20
39.0
 30
0.0
 11
161.5
 21
40.7
 31
0.0
  0
LINE
 62
3
  8
0
 10
161.5
 20
40.7
 30
0.0
 11
160.25
 21
40.7
 31
0.0
  0
LINE
 62
3
  8
0
 10
160.25
 20
40.7
 30
0.0
 11
160.25
 21
43.0
 31
0.0
  0
LINE
 62
3
  8
0
 10
160.25
 20
43.0
 30
0.0
 11
161.5
 21
43.0
 31
0.0
  0
LINE
 62
3
  8
0
 10
161.5
 20
43.0
 30
0.0
 11
161.5
 21
48.0
 31
0.0
  0
LINE
 62
3
  8
0
 10
161.5
 20
48.0
 30
0.0
 11
152.0
 21
48.0
 31
0.0
  0
LINE
 62
3
  8
0
 10
152.0
 20
48.0
 30
0.0
 11
152.0
 21
51.0
 31
0.0
  0
LINE
 62
3
  8
0
 10
152.0
 20
51.0
 30
0.0
 11
146.0
 21
51.0
 31
0.0
  0
LINE
 62
3
  8
0
 10
146.0
 20
51.0
 30
0.0
 11
146.0
 21
48.0
 31
0.0
  0
LINE
 62
3
  8
0
 10
146.0
 20
48.0
 30
0.0
 11
128.5
 21
48.0
 31
0.0
  0
LINE
 62
3
  8
0
 10
128.5
 20
48.0
 30
0.0
 11
128.5
 21
43.0
 31
0.0
  0
LINE
 62
3
  8
0
 10
128.5
 20
43.0
 30
0.0
 11
129.75
 21
43.0
 31
0.0
  0
LINE
 62
3
  8
0
 10
129.75
 20
43.0
 30
0.0
 11
129.75
 21
40.7
 31
0.0
  0
LINE
 62
3
  8
0
 10
129.75
 20
40.7
 30
0.0
 11
128.5
 21
40.7
 31
0.0
  0
LINE
 62
3
  8
0
 10
128.5
 20
40.7
 30
0.0
 11
128.5
 21
39.0
 31
0.0
  0
LINE
 62
3
  8
0
 10
128.5
 20
39.0
 30
0.0
 11
125.5
 21
39.0
 31
0.0
  0
LINE
 62
3
  8
0
 10
125.5
 20
39.0
 30
0.0
 11
125.5
 21
40.7
 31
0.0
  0
LINE
 62
3
  8
0
 10
125.5
 20
40.7
 30
0.0
 11
124.25
 21
40.7
 31
0.0
  0
LINE
 62
3
  8
0
 10
124.25
 20
40.7
 30
0.0
 11
124.25
 21
43.0
 31
0.0
  0
LINE
 62
3
  8
0
 10
124.25
 20
43.0
 30
0.0
 11
125.5
 21
43.0
 31
0.0
  0
LINE
 62
3
  8
0
 10
125.5
 20
43.0
 30
0.0
 11
125.5
 21
48.0
 31
0.0
  0
LINE
 62
3
  8
0
 10
125.5
 20
48.0
 30
0.0
 11
120.0
 21
48.0
 31
0.0
  0
LINE
 62
3
  8
0
 10
120.0
 20
48.0
 30
0.0
 11
120.0
 21
54.0
 31
0.0
  0
LINE
 62
3
  8
0
 10
120.0
 20
54.0
 30
0.0
 11
114.0
 21
54.0
 31
0.0
  0
LINE
 62
3
  8
0
 10
114.0
 20
54.0
 30
0.0
 11
114.0
 21
48.0
 31
0.0
  0
LINE
 62
3
  8
0
 10
114.0
 20
48.0
 30
0.0
 11
111.5
 21
48.0
 31
0.0
  0
LINE
 62
3
  8
0
 10
111.5
 20
48.0
 30
0.0
 11
111.5
 21
42.0
 31
0.0
  0
LINE
 62
3
  8
0
 10
111.5
 20
42.0
 30
0.0
 11
108.5
 21
42.0
 31
0.0
  0
LINE
 62
3
  8
0
 10
108.5
 20
42.0
 30
0.0
 11
108.5
 21
48.0
 31
0.0
  0
LINE
 62
3
  8
0
 10
108.5
 20
48.0
 30
0.0
 11
103.0
 21
48.0
 31
0.0
  0
LINE
 62
3
  8
0
 10
103.0
 20
48.0
 30
0.0
 11
103.0
 21
23.0
 31
0.0
  0
LINE
 62
3
  8
0
 10
103.0
 20
23.0
 30
0.0
 11
108.5
 21
23.0
 31
0.0
  0
LINE
 62
3
  8
0
 10
108.5
 20
23.0
 30
0.0
 11
108.5
 21
29.0
 31
0.0
  0
LINE
 62
3
  8
0
 10
108.5
 20
29.0
 30
0.0
 11
111.5
 21
29.0
 31
0.0
  0
LINE
 62
3
  8
0
 10
111.5
 20
29.0
 30
0.0
 11
111.5
 21
23.0
 31
0.0
  0
LINE
 62
3
  8
0
 10
111.5
 20
23.0
 30
0.0
 11
114.0
 21
23.0
 31
0.0
  0
LINE
 62
3
  8
0
 10
114.0
 20
23.0
 30
0.0
 11
114.0
 21
20.0
 31
0.0
  0
LINE
 62
3
  8
0
 10
114.0
 20
20.0
 30
0.0
 11
120.0
 21
20.0
 31
0.0
  0
LINE
 62
3
  8
0
 10
120.0
 20
20.0
 30
0.0
 11
120.0
 21
23.0
 31
0.0
  0
LINE
 62
3
  8
0
 10
120.0
 20
23.0
 30
0.0
 11
125.5
 21
23.0
 31
0.0
  0
LINE
 62
3
  8
0
 10
125.5
 20
23.0
 30
0.0
 11
125.5
 21
28.0
 31
0.0
  0
LINE
 62
3
  8
0
 10
125.5
 20
28.0
 30
0.0
 11
124.25
 21
28.0
 31
0.0
  0
LINE
 62
3
  8
0
 10
124.25
 20
28.0
 30
0.0
 11
124.25
 21
30.3
 31
0.0
  0
LINE
 62
3
  8
0
 10
124.25
 20
30.3
 30
0.0
 11
125.5
 21
30.3
 31
0.0
  0
LINE
 62
3
  8
0
 10
125.5
 20
30.3
 30
0.0
 11
125.5
 21
32.0
 31
0.0
  0
LINE
 62
3
  8
0
 10
125.5
 20
32.0
 30
0.0
 11
128.5
 21
32.0
 31
0.0
  0
LINE
 62
3
  8
0
 10
128.5
 20
32.0
 30
0.0
 11
128.5
 21
30.3
 31
0.0
  0
LINE
 62
3
  8
0
 10
128.5
 20
30.3
 30
0.0
 11
129.75
 21
30.3
 31
0.0
  0
LINE
 62
3
  8
0
 10
129.75
 20
30.3
 30
0.0
 11
129.75
 21
28.0
 31
0.0
  0
LINE
 62
3
  8
0
 10
129.75
 20
28.0
 30
0.0
 11
128.5
 21
28.0
 31
0.0
  0
LINE
 62
3
  8
0
 10
128.5
 20
28.0
 30
0.0
 11
128.5
 21
23.0
 31
0.0
  0
LINE
 62
3
  8
0
 10
128.5
 20
23.0
 30
0.0
 11
146.0
 21
23.0
 31
0.0
  0
LINE
 62
3
  8
0
 10
146.0
 20
23.0
 30
0.0
 11
146.0
 21
20.0
 31
0.0
  0
LINE
 62
3
  8
0
 10
146.0
 20
20.0
 30
0.0
 11
152.0
 21
20.0
 31
0.0
  0
LINE
 62
3
  8
0
 10
152.0
 20
20.0
 30
0.0
 11
152.0
 21
23.0
 31
0.0
  0
LINE
 62
3
  8
0
 10
152.0
 20
23.0
 30
0.0
 11
161.5
 21
23.0
 31
0.0
  0
LINE
 62
3
  8
0
 10
161.5
 20
23.0
 30
0.0
 11
161.5
 21
28.0
 31
0.0
  0
LINE
 62
3
  8
0
 10
161.5
 20
28.0
 30
0.0
 11
160.25
 21
28.0
 31
0.0
  0
LINE
 62
3
  8
0
 10
160.25
 20
28.0
 30
0.0
 11
160.25
 21
30.3
 31
0.0
  0
LINE
 62
3
  8
0
 10
160.25
 20
30.3
 30
0.0
 11
161.5
 21
30.3
 31
0.0
  0
LINE
 62
3
  8
0
 10
161.5
 20
30.3
 30
0.0
 11
161.5
 21
32.0
 31
0.0
  0
LINE
 62
3
  8
0
 10
161.5
 20
32.0
 30
0.0
 11
164.5
 21
32.0
 31
0.0
  0
LINE
 62
3
  8
0
 10
164.5
 20
32.0
 30
0.0
 11
164.5
 21
30.3
 31
0.0
  0
LINE
 62
3
  8
0
 10
164.5
 20
30.3
 30
0.0
 11
165.75
 21
30.3
 31
0.0
  0
LINE
 62
3
  8
0
 10
165.75
 20
30.3
 30
0.0
 11
165.75
 21
28.0
 31
0.0
  0
LINE
 62
3
  8
0
 10
165.75
 20
28.0
 30
0.0
 11
164.5
 21
28.0
 31
0.0
  0
LINE
 62
3
  8
0
 10
164.5
 20
28.0
 30
0.0
 11
164.5
 21
23.0
 31
0.0
  0
LINE
 62
3
  8
0
 10
164.5
 20
23.0
 30
0.0
 11
178.0
 21
23.0
 31
0.0
  0
LINE
 62
3
  8
0
 10
178.0
 20
23.0
 30
0.0
 11
178.0
 21
20.0
 31
0.0
  0
LINE
 62
3
  8
0
 10
178.0
 20
20.0
 30
0.0
 11
184.0
 21
20.0
 31
0.0
  0
LINE
 62
3
  8
0
 10
184.0
 20
20.0
 30
0.0
 11
184.0
 21
23.0
 31
0.0
  0
LINE
 62
3
  8
0
 10
184.0
 20
23.0
 30
0.0
 11
186.5
 21
23.0
 31
0.0
  0
LINE
 62
3
  8
0
 10
186.5
 20
23.0
 30
0.0
 11
186.5
 21
29.0
 31
0.0
  0
LINE
 62
3
  8
0
 10
186.5
 20
29.0
 30
0.0
 11
189.5
 21
29.0
 31
0.0
  0
LINE
 62
3
  8
0
 10
189.5
 20
29.0
 30
0.0
 11
189.5
 21
23.0
 31
0.0
  0
LINE
 62
3
  8
0
 10
189.5
 20
23.0
 30
0.0
 11
195.0
 21
23.0
 31
0.0
  0
LINE
 62
3
  8
0
 10
195.0
 20
23.0
 30
0.0
 11
195.0
 21
48.0
 31
0.0
  0
CIRCLE
 62
3
  8
0
 10
160.25
 20
43.0
 30
0.0
 40
0.25
  0
CIRCLE
 62
3
  8
0
 10
165.75
 20
43.0
 30
0.0
 40
0.25
  0
CIRCLE
 62
3
  8
0
 10
124.25
 20
43.0
 30
0.0
 40
0.25
  0
CIRCLE
 62
3
  8
0
 10
129.75
 20
43.0
 30
0.0
 40
0.25
  0
CIRCLE
 62
3
  8
0
 10
165.75
 20
28.0
 30
0.0
 40
0.25
  0
CIRCLE
 62
3
  8
0
 10
160.25
 20
28.0
 30
0.0
 40
0.25
  0
CIRCLE
 62
3
  8
0
 10
129.75
 20
28.0
 30
0.0
 40
0.25
  0
CIRCLE
 62
3
  8
0
 10
124.25
 20
28.0
 30
0.0
 40
0.25
  0
LINE
 62
3
  8
0
 10
110.0
 20
55.0
 30
0.0
 11
115.5
 21
55.0
 31
0.0
  0
LINE
 62
3
  8
0
 10
115.5
 20
55.0
 30
0.0
 11
115.5
 21
61.0
 31
0.0
  0
LINE
 62
3
  8
0
 10
115.5
 20
61.0
 30
0.0
 11
118.5
 21
61.0
 31
0.0
  0
LINE
 62
3
  8
0
 10
118.5
 20
61.0
 30
0.0
 11
118.5
 21
55.0
 31
0.0
  0
LINE
 62
3
  8
0
 10
118.5
 20
55.0
 30
0.0
 11
121.0
 21
55.0
 31
0.0
  0
LINE
 62
3
  8
0
 10
121.0
 20
55.0
 30
0.0
 11
121.0
 21
49.0
 31
0.0
  0
LINE
 62
3
  8
0
 10
121.0
 20
49.0
 30
0.0
 11
127.0
 21
49.0
 31
0.0
  0
LINE
 62
3
  8
0
 10
127.0
 20
49.0
 30
0.0
 11
127.0
 21
55.0
 31
0.0
  0
LINE
 62
3
  8
0
 10
127.0
 20
55.0
 30
0.0
 11
140.5
 21
55.0
 31
0.0
  0
LINE
 62
3
  8
0
 10
140.5
 20
55.0
 30
0.0
 11
140.5
 21
60.0
 31
0.0
  0
LINE
 62
3
  8
0
 10
140.5
 20
60.0
 30
0.0
 11
139.25
 21
60.0
 31
0.0
  0
LINE
 62
3
  8
0
 10
139.25
 20
60.0
 30
0.0
 11
139.25
 21
62.3
 31
0.0
  0
LINE
 62
3
  8
0
 10
139.25
 20
62.3
 30
0.0
 11
140.5
 21
62.3
 31
0.0
  0
LINE
 62
3
  8
0
 10
140.5
 20
62.3
 30
0.0
 11
140.5
 21
64.0
 31
0.0
  0
LINE
 62
3
  8
0
 10
140.5
 20
64.0
 30
0.0
 11
143.5
 21
64.0
 31
0.0
  0
LINE
 62
3
  8
0
 10
143.5
 20
64.0
 30
0.0
 11
143.5
 21
62.3
 31
0.0
  0
LINE
 62
3
  8
0
 10
143.5
 20
62.3
 30
0.0
 11
144.75
 21
62.3
 31
0.0
  0
LINE
 62
3
  8
0
 10
144.75
 20
62.3
 30
0.0
 11
144.75
 21
60.0
 31
0.0
  0
LINE
 62
3
  8
0
 10
144.75
 20
60.0
 30
0.0
 11
143.5
 21
60.0
 31
0.0
  0
LINE
 62
3
  8
0
 10
143.5
 20
60.0
 30
0.0
 11
143.5
 21
55.0
 31
0.0
  0
LINE
 62
3
  8
0
 10
143.5
 20
55.0
 30
0.0
 11
153.0
 21
55.0
 31
0.0
  0
LINE
 62
3
  8
0
 10
153.0
 20
55.0
 30
0.0
 11
153.0
 21
52.0
 31
0.0
  0
LINE
 62
3
  8
0
 10
153.0
 20
52.0
 30
0.0
 11
159.0
 21
52.0
 31
0.0
  0
LINE
 62
3
  8
0
 10
159.0
 20
52.0
 30
0.0
 11
159.0
 21
55.0
 31
0.0
  0
LINE
 62
3
  8
0
 10
159.0
 20
55.0
 30
0.0
 11
176.5
 21
55.0
 31
0.0
  0
LINE
 62
3
  8
0
 10
176.5
 20
55.0
 30
0.0
 11
176.5
 21
60.0
 31
0.0
  0
LINE
 62
3
  8
0
 10
176.5
 20
60.0
 30
0.0
 11
175.25
 21
60.0
 31
0.0
  0
LINE
 62
3
  8
0
 10
175.25
 20
60.0
 30
0.0
 11
175.25
 21
62.3
 31
0.0
  0
LINE
 62
3
  8
0
 10
175.25
 20
62.3
 30
0.0
 11
176.5
 21
62.3
 31
0.0
  0
LINE
 62
3
  8
0
 10
176.5
 20
62.3
 30
0.0
 11
176.5
 21
64.0
 31
0.0
  0
LINE
 62
3
  8
0
 10
176.5
 20
64.0
 30
0.0
 11
179.5
 21
64.0
 31
0.0
  0
LINE
 62
3
  8
0
 10
179.5
 20
64.0
 30
0.0
 11
179.5
 21
62.3
 31
0.0
  0
LINE
 62
3
  8
0
 10
179.5
 20
62.3
 30
0.0
 11
180.75
 21
62.3
 31
0.0
  0
LINE
 62
3
  8
0
 10
180.75
 20
62.3
 30
0.0
 11
180.75
 21
60.0
 31
0.0
  0
LINE
 62
3
  8
0
 10
180.75
 20
60.0
 30
0.0
 11
179.5
 21
60.0
 31
0.0
  0
LINE
 62
3
  8
0
 10
179.5
 20
60.0
 30
0.0
 11
179.5
 21
55.0
 31
0.0
  0
LINE
 62
3
  8
0
 10
179.5
 20
55.0
 30
0.0
 11
185.0
 21
55.0
 31
0.0
  0
LINE
 62
3
  8
0
 10
185.0
 20
55.0
 30
0.0
 11
185.0
 21
49.0
 31
0.0
  0
LINE
 62
3
  8
0
 10
185.0
 20
49.0
 30
0.0
 11
191.0
 21
49.0
 31
0.0
  0
LINE
 62
3
  8
0
 10
191.0
 20
49.0
 30
0.0
 11
191.0
 21
55.0
 31
0.0
  0
LINE
 62
3
  8
0
 10
191.0
 20
55.0
 30
0.0
 11
193.5
 21
55.0
 31
0.0
  0
LINE
 62
3
  8
0
 10
193.5
 20
55.0
 30
0.0
 11
193.5
 21
61.0
 31
0.0
  0
LINE
 62
3
  8
0
 10
193.5
 20
61.0
 30
0.0
 11
196.5
 21
61.0
 31
0.0
  0
LINE
 62
3
  8
0
 10
196.5
 20
61.0
 30
0.0
 11
196.5
 21
55.0
 31
0.0
  0
LINE
 62
3
  8
0
 10
196.5
 20
55.0
 30
0.0
 11
202.0
 21
55.0
 31
0.0
  0
LINE
 62
3
  8
0
 10
202.0
 20
55.0
 30
0.0
 11
202.0
 21
80.0
 31
0.0
  0
LINE
 62
3
  8
0
 10
202.0
 20
80.0
 30
0.0
 11
196.5
 21
80.0
 31
0.0
  0
LINE
 62
3
  8
0
 10
196.5
 20
80.0
 30
0.0
 11
196.5
 21
74.0
 31
0.0
  0
LINE
 62
3
  8
0
 10
196.5
 20
74.0
 30
0.0
 11
193.5
 21
74.0
 31
0.0
  0
LINE
 62
3
  8
0
 10
193.5
 20
74.0
 30
0.0
 11
193.5
 21
80.0
 31
0.0
  0
LINE
 62
3
  8
0
 10
193.5
 20
80.0
 30
0.0
 11
191.0
 21
80.0
 31
0.0
  0
LINE
 62
3
  8
0
 10
191.0
 20
80.0
 30
0.0
 11
191.0
 21
83.0
 31
0.0
  0
LINE
 62
3
  8
0
 10
191.0
 20
83.0
 30
0.0
 11
185.0
 21
83.0
 31
0.0
  0
LINE
 62
3
  8
0
 10
185.0
 20
83.0
 30
0.0
 11
185.0
 21
80.0
 31
0.0
  0
LINE
 62
3
  8
0
 10
185.0
 20
80.0
 30
0.0
 11
179.5
 21
80.0
 31
0.0
  0
LINE
 62
3
  8
0
 10
179.5
 20
80.0
 30
0.0
 11
179.5
 21
75.0
 31
0.0
  0
LINE
 62
3
  8
0
 10
179.5
 20
75.0
 30
0.0
 11
180.75
 21
75.0
 31
0.0
  0
LINE
 62
3
  8
0
 10
180.75
 20
75.0
 30
0.0
 11
180.75
 21
72.7
 31
0.0
  0
LINE
 62
3
  8
0
 10
180.75
 20
72.7
 30
0.0
 11
179.5
 21
72.7
 31
0.0
  0
LINE
 62
3
  8
0
 10
179.5
 20
72.7
 30
0.0
 11
179.5
 21
71.0
 31
0.0
  0
LINE
 62
3
  8
0
 10
179.5
 20
71.0
 30
0.0
 11
176.5
 21
71.0
 31
0.0
  0
LINE
 62
3
  8
0
 10
176.5
 20
71.0
 30
0.0
 11
176.5
 21
72.7
 31
0.0
  0
LINE
 62
3
  8
0
 10
176.5
 20
72.7
 30
0.0
 11
175.25
 21
72.7
 31
0.0
  0
LINE
 62
3
  8
0
 10
175.25
 20
72.7
 30
0.0
 11
175.25
 21
75.0
 31
0.0
  0
LINE
 62
3
  8
0
 10
175.25
 20
75.0
 30
0.0
 11
176.5
 21
75.0
 31
0.0
  0
LINE
 62
3
  8
0
 10
176.5
 20
75.0
 30
0.0
 11
176.5
 21
80.0
 31
0.0
  0
LINE
 62
3
  8
0
 10
176.5
 20
80.0
 30
0.0
 11
159.0
 21
80.0
 31
0.0
  0
LINE
 62
3
  8
0
 10
159.0
 20
80.0
 30
0.0
 11
159.0
 21
83.0
 31
0.0
  0
LINE
 62
3
  8
0
 10
159.0
 20
83.0
 30
0.0
 11
153.0
 21
83.0
 31
0.0
  0
LINE
 62
3
  8
0
 10
153.0
 20
83.0
 30
0.0
 11
153.0
 21
80.0
 31
0.0
  0
LINE
 62
3
  8
0
 10
153.0
 20
80.0
 30
0.0
 11
143.5
 21
80.0
 31
0.0
  0
LINE
 62
3
  8
0
 10
143.5
 20
80.0
 30
0.0
 11
143.5
 21
75.0
 31
0.0
  0
LINE
 62
3
  8
0
 10
143.5
 20
75.0
 30
0.0
 11
144.75
 21
75.0
 31
0.0
  0
LINE
 62
3
  8
0
 10
144.75
 20
75.0
 30
0.0
 11
144.75
 21
72.7
 31
0.0
  0
LINE
 62
3
  8
0
 10
144.75
 20
72.7
 30
0.0
 11
143.5
 21
72.7
 31
0.0
  0
LINE
 62
3
  8
0
 10
143.5
 20
72.7
 30
0.0
 11
143.5
 21
71.0
 31
0.0
  0
LINE
 62
3
  8
0
 10
143.5
 20
71.0
 30
0.0
 11
140.5
 21
71.0
 31
0.0
  0
LINE
 62
3
  8
0
 10
140.5
 20
71.0
 30
0.0
 11
140.5
 21
72.7
 31
0.0
  0
LINE
 62
3
  8
0
 10
140.5
 20
72.7
 30
0.0
 11
139.25
 21
72.7
 31
0.0
  0
LINE
 62
3
  8
0
 10
139.25
 20
72.7
 30
0.0
 11
139.25
 21
75.0
 31
0.0
  0
LINE
 62
3
  8
0
 10
139.25
 20
75.0
 30
0.0
 11
140.5
 21
75.0
 31
0.0
  0
LINE
 62
3
  8
0
 10
140.5
 20
75.0
 30
0.0
 11
140.5
 21
80.0
 31
0.0
  0
LINE
 62
3
  8
0
 10
140.5
 20
80.0
 30
0.0
 11
127.0
 21
80.0
 31
0.0
  0
LINE
 62
3
  8
0
 10
127.0
 20
80.0
 30
0.0
 11
127.0
 21
83.0
 31
0.0
  0
LINE
 62
3
  8
0
 10
127.0
 20
83.0
 30
0.0
 11
121.0
 21
83.0
 31
0.0
  0
LINE
 62
3
  8
0
 10
121.0
 20
83.0
 30
0.0
 11
121.0
 21
80.0
 31
0.0
  0
LINE
 62
3
  8
0
 10
121.0
 20
80.0
 30
0.0
 11
118.5
 21
80.0
 31
0.0
  0
LINE
 62
3
  8
0
 10
118.5
 20
80.0
 30
0.0
 11
118.5
 21
74.0
 31
0.0
  0
LINE
 62
3
  8
0
 10
118.5
 20
74.0
 30
0.0
 11
115.5
 21
74.0
 31
0.0
  0
LINE
 62
3
  8
0
 10
115.5
 20
74.0
 30
0.0
 11
115.5
 21
80.0
 31
0.0
  0
LINE
 62
3
  8
0
 10
115.5
 20
80.0
 30
0.0
 11
110.0
 21
80.0
 31
0.0
  0
LINE
 62
3
  8
0
 10
110.0
 20
80.0
 30
0.0
 11
110.0
 21
55.0
 31
0.0
  0
CIRCLE
 62
3
  8
0
 10
144.75
 20
60.0
 30
0.0
 40
0.25
  0
CIRCLE
 62
3
  8
0
 10
139.25
 20
60.0
 30
0.0
 40
0.25
  0
CIRCLE
 62
3
  8
0
 10
180.75
 20
60.0
 30
0.0
 40
0.25
  0
CIRCLE
 62
3
  8
0
 10
175.25
 20
60.0
 30
0.0
 40
0.25
  0
CIRCLE
 62
3
  8
0
 10
139.25
 20
75.0
 30
0.0
 40
0.25
  0
CIRCLE
 62
3
  8
0
 10
144.75
 20
75.0
 30
0.0
 40
0.25
  0
CIRCLE
 62
3
  8
0
 10
175.25
 20
75.0
 30
0.0
 40
0.25
  0
CIRCLE
 62
3
  8
0
 10
180.75
 20
75.0
 30
0.0
 40
0.25
  0
LINE
 62
3
  8
0
 10
124.5
 20
68.95
 30
0.0
 11
132.2
 21
68.95
 31
0.0
  0
LINE
 62
3
  8
0
 10
132.2
 20
68.95
 30
0.0
 11
132.2
 21
67.6333333333
 31
0.0
  0
LINE
 62
3
  8
0
 10
132.2
 20
67.6333333333
 30
0.0
 11
131.6
 21
66.3166666667
 31
0.0
  0
LINE
 62
3
  8
0
 10
131.6
 20
66.3166666667
 30
0.0
 11
131.6
 21
65.0
 31
0.0
  0
LINE
 62
3
  8
0
 10
131.6
 20
65.0
 30
0.0
 11
125.1
 21
65.0
 31
0.0
  0
LINE
 62
3
  8
0
 10
125.1
 20
65.0
 30
0.0
 11
125.1
 21
66.3166666667
 31
0.0
  0
LINE
 62
3
  8
0
 10
125.1
 20
66.3166666667
 30
0.0
 11
124.5
 21
67.6333333333
 31
0.0
  0
LINE
 62
3
  8
0
 10
124.5
 20
67.6333333333
 30
0.0
 11
124.5
 21
68.95
 31
0.0
  0
LINE
 62
3
  8
0
 10
137.0
 20
81.0
 30
0.0
 11
137.0
 21
102.5
 31
0.0
  0
LINE
 62
3
  8
0
 10
137.0
 20
102.5
 30
0.0
 11
140.0
 21
102.5
 31
0.0
  0
LINE
 62
3
  8
0
 10
140.0
 20
102.5
 30
0.0
 11
140.0
 21
108.5
 31
0.0
  0
LINE
 62
3
  8
0
 10
140.0
 20
108.5
 30
0.0
 11
137.0
 21
108.5
 31
0.0
  0
LINE
 62
3
  8
0
 10
137.0
 20
108.5
 30
0.0
 11
137.0
 21
130.0
 31
0.0
  0
LINE
 62
3
  8
0
 10
137.0
 20
130.0
 30
0.0
 11
131.0
 21
130.0
 31
0.0
  0
LINE
 62
3
  8
0
 10
131.0
 20
130.0
 30
0.0
 11
131.0
 21
127.0
 31
0.0
  0
LINE
 62
3
  8
0
 10
131.0
 20
127.0
 30
0.0
 11
118.0
 21
127.0
 31
0.0
  0
LINE
 62
3
  8
0
 10
118.0
 20
127.0
 30
0.0
 11
118.0
 21
130.0
 31
0.0
  0
LINE
 62
3
  8
0
 10
118.0
 20
130.0
 30
0.0
 11
112.0
 21
130.0
 31
0.0
  0
LINE
 62
3
  8
0
 10
112.0
 20
130.0
 30
0.0
 11
112.0
 21
108.5
 31
0.0
  0
LINE
 62
3
  8
0
 10
112.0
 20
108.5
 30
0.0
 11
109.0
 21
108.5
 31
0.0
  0
LINE
 62
3
  8
0
 10
109.0
 20
108.5
 30
0.0
 11
109.0
 21
102.5
 31
0.0
  0
LINE
 62
3
  8
0
 10
109.0
 20
102.5
 30
0.0
 11
112.0
 21
102.5
 31
0.0
  0
LINE
 62
3
  8
0
 10
112.0
 20
102.5
 30
0.0
 11
112.0
 21
81.0
 31
0.0
  0
LINE
 62
3
  8
0
 10
112.0
 20
81.0
 30
0.0
 11
118.0
 21
81.0
 31
0.0
  0
LINE
 62
3
  8
0
 10
118.0
 20
81.0
 30
0.0
 11
118.0
 21
84.0
 31
0.0
  0
LINE
 62
3
  8
0
 10
118.0
 20
84.0
 30
0.0
 11
131.0
 21
84.0
 31
0.0
  0
LINE
 62
3
  8
0
 10
131.0
 20
84.0
 30
0.0
 11
131.0
 21
81.0
 31
0.0
  0
LINE
 62
3
  8
0
 10
131.0
 20
81.0
 30
0.0
 11
137.0
 21
81.0
 31
0.0
  0
TEXT
 62
2
  8
0
 10
124.0
 20
95.0
 30
0.0
 40
3.0
  1
Relay V1.1
 50
90.0
 41
1.0
 51
0.0
  7
STANDARD
 71
0
 72
0
 73
3
 11
124.0
 21
95.0
 31
0.0
  0
LINE
 62
3
  8
0
 10
198.0
 20
81.0
 30
0.0
 11
198.0
 21
102.5
 31
0.0
  0
LINE
 62
3
  8
0
 10
198.0
 20
102.5
 30
0.0
 11
201.0
 21
102.5
 31
0.0
  0
LINE
 62
3
  8
0
 10
201.0
 20
102.5
 30
0.0
 11
201.0
 21
108.5
 31
0.0
  0
LINE
 62
3
  8
0
 10
201.0
 20
108.5
 30
0.0
 11
198.0
 21
108.5
 31
0.0
  0
LINE
 62
3
  8
0
 10
198.0
 20
108.5
 30
0.0
 11
198.0
 21
130.0
 31
0.0
  0
LINE
 62
3
  8
0
 10
198.0
 20
130.0
 30
0.0
 11
192.0
 21
130.0
 31
0.0
  0
LINE
 62
3
  8
0
 10
192.0
 20
130.0
 30
0.0
 11
192.0
 21
127.0
 31
0.0
  0
LINE
 62
3
  8
0
 10
192.0
 20
127.0
 30
0.0
 11
179.0
 21
127.0
 31
0.0
  0
LINE
 62
3
  8
0
 10
179.0
 20
127.0
 30
0.0
 11
179.0
 21
130.0
 31
0.0
  0
LINE
 62
3
  8
0
 10
179.0
 20
130.0
 30
0.0
 11
173.0
 21
130.0
 31
0.0
  0
LINE
 62
3
  8
0
 10
173.0
 20
130.0
 30
0.0
 11
173.0
 21
108.5
 31
0.0
  0
LINE
 62
3
  8
0
 10
173.0
 20
108.5
 30
0.0
 11
170.0
 21
108.5
 31
0.0
  0
LINE
 62
3
  8
0
 10
170.0
 20
108.5
 30
0.0
 11
170.0
 21
102.5
 31
0.0
  0
LINE
 62
3
  8
0
 10
170.0
 20
102.5
 30
0.0
 11
173.0
 21
102.5
 31
0.0
  0
LINE
 62
3
  8
0
 10
173.0
 20
102.5
 30
0.0
 11
173.0
 21
81.0
 31
0.0
  0
LINE
 62
3
  8
0
 10
173.0
 20
81.0
 30
0.0
 11
179.0
 21
81.0
 31
0.0
  0
LINE
 62
3
  8
0
 10
179.0
 20
81.0
 30
0.0
 11
179.0
 21
84.0
 31
0.0
  0
LINE
 62
3
  8
0
 10
179.0
 20
84.0
 30
0.0
 11
192.0
 21
84.0
 31
0.0
  0
LINE
 62
3
  8
0
 10
192.0
 20
84.0
 30
0.0
 11
192.0
 21
81.0
 31
0.0
  0
LINE
 62
3
  8
0
 10
192.0
 20
81.0
 30
0.0
 11
198.0
 21
81.0
 31
0.0
  0
CIRCLE
 62
3
  8
0
 10
185.5
 20
113.666666667
 30
0.0
 40
3.5
  0
CIRCLE
 62
3
  8
0
 10
185.5
 20
97.3333333333
 30
0.0
 40
3.5
  0
ENDSEC
  0
EOF
